Playfair Display-Regular.ufo
<glyph name="space" format="1">
  <advance width="249"/>
  <unicode hex="0020"/>
  <outline>
    <contour>
      <point x="0" y="514" type="move" name="top"/>
    </contour>
    <contour>
      <point x="0" y="0" type="move" name="bottom"/>
    </contour>
  </outline>
</glyph>
<glyph name="exclam" format="1">
  <advance width="262"/>
  <unicode hex="0021"/>
  <outline>
    <contour>
      <point x="105" y="782"/>
      <point x="85" y="766"/>
      <point x="85" y="726" type="curve" smooth="yes"/>
      <point x="85" y="621"/>
      <point x="122" y="407"/>
      <point x="122" y="196" type="curve"/>
      <point x="140" y="196" type="line"/>
      <point x="140" y="196" type="line"/>
      <point x="140" y="407"/>
      <point x="177" y="621"/>
      <point x="177" y="726" type="curve" smooth="yes"/>
      <point x="177" y="766"/>
      <point x="156" y="782"/>
      <point x="131" y="782" type="curve" smooth="yes"/>
    </contour>
    <component base="period" xOffset="5"/>
  </outline>
</glyph>
<glyph name="dollar" format="1">
  <advance width="523"/>
  <unicode hex="0024"/>
  <outline>
    <contour>
      <point x="148" y="719"/>
      <point x="59" y="664"/>
      <point x="59" y="546" type="curve" smooth="yes"/>
      <point x="59" y="433"/>
      <point x="142" y="379"/>
      <point x="237" y="322" type="curve" smooth="yes"/>
      <point x="330" y="266"/>
      <point x="393" y="220"/>
      <point x="393" y="139" type="curve" smooth="yes"/>
      <point x="393" y="45"/>
      <point x="328" y="6"/>
      <point x="263" y="6" type="curve" smooth="yes"/>
      <point x="135" y="6"/>
      <point x="89" y="112"/>
      <point x="81" y="233" type="curve"/>
      <point x="58" y="233" type="line"/>
      <point x="58" y="92"/>
      <point x="57" y="34"/>
      <point x="54" y="-7" type="curve"/>
      <point x="77" y="-7" type="line"/>
      <point x="81" y="22"/>
      <point x="86" y="37"/>
      <point x="99" y="37" type="curve" smooth="yes"/>
      <point x="107" y="37"/>
      <point x="117" y="33"/>
      <point x="133" y="23" type="curve" smooth="yes"/>
      <point x="162" y="5"/>
      <point x="199" y="-14"/>
      <point x="270" y="-14" type="curve" smooth="yes"/>
      <point x="386" y="-14"/>
      <point x="482" y="49"/>
      <point x="482" y="176" type="curve" smooth="yes"/>
      <point x="482" y="283"/>
      <point x="406" y="336"/>
      <point x="302" y="401" type="curve" smooth="yes"/>
      <point x="212" y="457"/>
      <point x="134" y="493"/>
      <point x="134" y="584" type="curve" smooth="yes"/>
      <point x="134" y="653"/>
      <point x="185" y="700"/>
      <point x="256" y="700" type="curve" smooth="yes"/>
      <point x="367" y="700"/>
      <point x="413" y="603"/>
      <point x="420" y="508" type="curve"/>
      <point x="443" y="508" type="line"/>
      <point x="443" y="634"/>
      <point x="445" y="677"/>
      <point x="448" y="712" type="curve"/>
      <point x="425" y="712" type="line"/>
      <point x="421" y="683"/>
      <point x="416" y="668"/>
      <point x="403" y="668" type="curve" smooth="yes"/>
      <point x="394" y="668"/>
      <point x="385" y="672"/>
      <point x="369" y="682" type="curve" smooth="yes"/>
      <point x="342" y="700"/>
      <point x="313" y="719"/>
      <point x="247" y="719" type="curve" smooth="yes"/>
    </contour>
    <contour>
      <point x="212" y="840" type="line"/>
      <point x="212" y="-132" type="line"/>
      <point x="232" y="-132" type="line"/>
      <point x="232" y="840" type="line"/>
    </contour>
    <contour>
      <point x="296" y="840" type="line"/>
      <point x="296" y="-132" type="line"/>
      <point x="316" y="-132" type="line"/>
      <point x="316" y="840" type="line"/>
    </contour>
  </outline>
</glyph>
<glyph name="percent" format="1">
  <advance width="742"/>
  <unicode hex="0025"/>
  <outline>
    <contour>
      <point x="98" y="761"/>
      <point x="35" y="693"/>
      <point x="35" y="593" type="curve" smooth="yes"/>
      <point x="35" y="490"/>
      <point x="95" y="430"/>
      <point x="184" y="430" type="curve" smooth="yes"/>
      <point x="270" y="430"/>
      <point x="333" y="497"/>
      <point x="333" y="598" type="curve" smooth="yes"/>
      <point x="333" y="701"/>
      <point x="273" y="761"/>
      <point x="184" y="761" type="curve" smooth="yes"/>
    </contour>
    <contour>
      <point x="604" y="299"/>
      <point x="634" y="250"/>
      <point x="634" y="152" type="curve" smooth="yes"/>
      <point x="634" y="56"/>
      <point x="610" y="4"/>
      <point x="558" y="4" type="curve" smooth="yes"/>
      <point x="508" y="4"/>
      <point x="477" y="53"/>
      <point x="477" y="150" type="curve" smooth="yes"/>
      <point x="477" y="247"/>
      <point x="502" y="299"/>
      <point x="554" y="299" type="curve" smooth="yes"/>
    </contour>
    <contour>
      <point x="470" y="317"/>
      <point x="407" y="249"/>
      <point x="407" y="149" type="curve" smooth="yes"/>
      <point x="407" y="46"/>
      <point x="467" y="-14"/>
      <point x="556" y="-14" type="curve" smooth="yes"/>
      <point x="642" y="-14"/>
      <point x="705" y="53"/>
      <point x="705" y="154" type="curve" smooth="yes"/>
      <point x="705" y="257"/>
      <point x="645" y="317"/>
      <point x="556" y="317" type="curve" smooth="yes"/>
    </contour>
    <contour>
      <point x="232" y="743"/>
      <point x="262" y="694"/>
      <point x="262" y="596" type="curve" smooth="yes"/>
      <point x="262" y="500"/>
      <point x="238" y="448"/>
      <point x="186" y="448" type="curve" smooth="yes"/>
      <point x="136" y="448"/>
      <point x="105" y="497"/>
      <point x="105" y="594" type="curve" smooth="yes"/>
      <point x="105" y="691"/>
      <point x="130" y="743"/>
      <point x="182" y="743" type="curve" smooth="yes"/>
    </contour>
    <component base="fraction" xOffset="342"/>
  </outline>
</glyph>
<glyph name="quotesingle" format="1">
  <advance width="189"/>
  <unicode hex="0027"/>
  <outline>
    <contour>
      <point x="75" y="729"/>
      <point x="59" y="712"/>
      <point x="59" y="683" type="curve" smooth="yes"/>
      <point x="59" y="617"/>
      <point x="73" y="572"/>
      <point x="88" y="468" type="curve"/>
      <point x="102" y="468" type="line"/>
      <point x="117" y="577"/>
      <point x="131" y="618"/>
      <point x="131" y="684" type="curve" smooth="yes"/>
      <point x="131" y="713"/>
      <point x="115" y="730"/>
      <point x="95" y="730" type="curve" smooth="yes"/>
    </contour>
  </outline>
</glyph>
<glyph name="plus" format="1">
  <advance width="587"/>
  <unicode hex="002B"/>
  <outline>
    <contour>
      <point x="312" y="606" type="line"/>
      <point x="276" y="606" type="line"/>
      <point x="276" y="370" type="line"/>
      <point x="43" y="370" type="line"/>
      <point x="43" y="340" type="line"/>
      <point x="276" y="340" type="line"/>
      <point x="276" y="105" type="line"/>
      <point x="312" y="105" type="line"/>
      <point x="312" y="340" type="line"/>
      <point x="544" y="340" type="line"/>
      <point x="544" y="370" type="line"/>
      <point x="312" y="370" type="line"/>
    </contour>
  </outline>
</glyph>
<glyph name="comma" format="1">
  <advance width="261"/>
  <unicode hex="002C"/>
  <outline>
    <contour>
      <point x="91" y="114"/>
      <point x="62" y="87"/>
      <point x="62" y="50" type="curve" smooth="yes"/>
      <point x="62" y="10"/>
      <point x="91" y="-14"/>
      <point x="126" y="-14" type="curve" smooth="yes"/>
      <point x="140" y="-14"/>
      <point x="153" y="-9"/>
      <point x="163" y="-1" type="curve"/>
      <point x="165" y="-7"/>
      <point x="166" y="-13"/>
      <point x="166" y="-22" type="curve" smooth="yes"/>
      <point x="166" y="-61"/>
      <point x="131" y="-103"/>
      <point x="90" y="-120" type="curve"/>
      <point x="99" y="-138" type="line"/>
      <point x="170" y="-105"/>
      <point x="202" y="-49"/>
      <point x="202" y="16" type="curve" smooth="yes"/>
      <point x="202" y="32"/>
      <point x="199" y="60"/>
      <point x="185" y="82" type="curve" smooth="yes"/>
      <point x="173" y="101"/>
      <point x="155" y="114"/>
      <point x="126" y="114" type="curve" smooth="yes"/>
    </contour>
  </outline>
</glyph>
<glyph name="hyphen" format="1">
  <advance width="499"/>
  <unicode hex="002D"/>
  <outline>
    <contour>
      <point x="430" y="298" type="line"/>
      <point x="69" y="298" type="line"/>
      <point x="69" y="240" type="line"/>
      <point x="430" y="240" type="line"/>
    </contour>
  </outline>
</glyph>
<glyph name="slash" format="1">
  <advance width="372"/>
  <unicode hex="002F"/>
  <outline>
    <contour>
      <point x="306" y="722" type="line"/>
      <point x="34" y="-14" type="line"/>
      <point x="67" y="-14" type="line"/>
      <point x="339" y="722" type="line"/>
    </contour>
  </outline>
</glyph>
<glyph name="zero" format="1">
  <advance width="600"/>
  <unicode hex="0030"/>
  <outline>
    <contour>
      <point x="152" y="529"/>
      <point x="52" y="408"/>
      <point x="52" y="250" type="curve" smooth="yes"/>
      <point x="52" y="89"/>
      <point x="155" y="-14"/>
      <point x="294" y="-14" type="curve" smooth="yes"/>
      <point x="445" y="-14"/>
      <point x="547" y="106"/>
      <point x="547" y="266" type="curve" smooth="yes"/>
      <point x="547" y="425"/>
      <point x="446" y="529"/>
      <point x="305" y="529" type="curve" smooth="yes"/>
    </contour>
    <contour>
      <point x="379" y="511"/>
      <point x="450" y="442"/>
      <point x="450" y="263" type="curve" smooth="yes"/>
      <point x="450" y="100"/>
      <point x="389" y="4"/>
      <point x="303" y="4" type="curve" smooth="yes"/>
      <point x="220" y="4"/>
      <point x="149" y="73"/>
      <point x="149" y="253" type="curve" smooth="yes"/>
      <point x="149" y="416"/>
      <point x="210" y="511"/>
      <point x="296" y="511" type="curve" smooth="yes"/>
    </contour>
  </outline>
</glyph>
<glyph name="one" format="1">
  <advance width="370"/>
  <unicode hex="0031"/>
  <outline>
    <contour>
      <point x="202" y="490"/>
      <point x="143" y="477"/>
      <point x="47" y="475" type="curve"/>
      <point x="47" y="453" type="line"/>
      <point x="137" y="453"/>
      <point x="163" y="441"/>
      <point x="163" y="345" type="curve" smooth="yes"/>
      <point x="163" y="103" type="line" smooth="yes"/>
      <point x="163" y="38"/>
      <point x="123" y="21"/>
      <point x="57" y="21" type="curve"/>
      <point x="57" y="0" type="line"/>
      <point x="88" y="1"/>
      <point x="149" y="4"/>
      <point x="211" y="4" type="curve" smooth="yes"/>
      <point x="265" y="4"/>
      <point x="322" y="1"/>
      <point x="349" y="0" type="curve"/>
      <point x="349" y="21" type="line"/>
      <point x="280" y="21"/>
      <point x="253" y="39"/>
      <point x="253" y="103" type="curve" smooth="yes"/>
      <point x="253" y="526" type="line"/>
    </contour>
  </outline>
</glyph>
<glyph name="two" format="1">
  <advance width="479"/>
  <unicode hex="0032"/>
  <outline>
    <contour>
      <point x="136" y="529"/>
      <point x="77" y="467"/>
      <point x="47" y="404" type="curve"/>
      <point x="63" y="395" type="line"/>
      <point x="98" y="458"/>
      <point x="144" y="489"/>
      <point x="197" y="489" type="curve" smooth="yes"/>
      <point x="259" y="489"/>
      <point x="297" y="457"/>
      <point x="297" y="381" type="curve" smooth="yes"/>
      <point x="297" y="216"/>
      <point x="132" y="104"/>
      <point x="51" y="17" type="curve"/>
      <point x="51" y="0" type="line"/>
      <point x="285" y="0" type="line" smooth="yes"/>
      <point x="345" y="0"/>
      <point x="416" y="-1"/>
      <point x="434" y="-5" type="curve"/>
      <point x="431" y="26"/>
      <point x="430" y="57"/>
      <point x="430" y="128" type="curve"/>
      <point x="413" y="128" type="line"/>
      <point x="408" y="90"/>
      <point x="401" y="77"/>
      <point x="346" y="77" type="curve" smooth="yes"/>
      <point x="143" y="77" type="line"/>
      <point x="216" y="176"/>
      <point x="394" y="270"/>
      <point x="394" y="403" type="curve" smooth="yes"/>
      <point x="394" y="484"/>
      <point x="336" y="529"/>
      <point x="244" y="529" type="curve" smooth="yes"/>
    </contour>
  </outline>
</glyph>
<glyph name="four" format="1">
  <advance width="494"/>
  <unicode hex="0034"/>
  <outline>
    <contour>
      <point x="17" y="75" type="line"/>
      <point x="17" y="54" type="line"/>
      <point x="309" y="54" type="line" smooth="yes"/>
      <point x="369" y="54"/>
      <point x="440" y="53"/>
      <point x="458" y="49" type="curve"/>
      <point x="455" y="78"/>
      <point x="454" y="106"/>
      <point x="454" y="172" type="curve"/>
      <point x="437" y="172" type="line"/>
      <point x="432" y="134"/>
      <point x="425" y="121"/>
      <point x="370" y="121" type="curve" smooth="yes"/>
      <point x="64" y="121" type="line"/>
      <point x="65" y="105" type="line"/>
      <point x="346" y="503" type="line"/>
      <point x="342" y="529" type="line"/>
    </contour>
    <contour>
      <point x="342" y="529" type="line"/>
      <point x="278" y="423" type="line"/>
      <point x="278" y="-141" type="line"/>
      <point x="358" y="-141" type="line"/>
      <point x="358" y="529" type="line"/>
    </contour>
  </outline>
</glyph>
<glyph name="five" format="1">
  <advance width="415"/>
  <unicode hex="0035"/>
  <outline>
    <contour>
      <point x="315" y="565" type="line"/>
      <point x="310" y="527"/>
      <point x="303" y="514"/>
      <point x="248" y="514" type="curve" smooth="yes"/>
      <point x="135" y="514" type="line" smooth="yes"/>
      <point x="116" y="514"/>
      <point x="96" y="515"/>
      <point x="81" y="518" type="curve"/>
      <point x="62" y="220" type="line"/>
      <point x="72" y="214" type="line"/>
      <point x="100" y="225"/>
      <point x="119" y="231"/>
      <point x="154" y="231" type="curve" smooth="yes"/>
      <point x="235" y="231"/>
      <point x="280" y="181"/>
      <point x="280" y="97" type="curve" smooth="yes"/>
      <point x="280" y="-54"/>
      <point x="162" y="-129"/>
      <point x="45" y="-130" type="curve"/>
      <point x="45" y="-148" type="line"/>
      <point x="201" y="-148"/>
      <point x="375" y="-48"/>
      <point x="375" y="107" type="curve" smooth="yes"/>
      <point x="375" y="195"/>
      <point x="319" y="261"/>
      <point x="198" y="261" type="curve" smooth="yes"/>
      <point x="143" y="261"/>
      <point x="110" y="246"/>
      <point x="81" y="231" type="curve"/>
      <point x="93" y="424" type="line"/>
      <point x="199" y="424" type="line" smooth="yes"/>
      <point x="255" y="424"/>
      <point x="321" y="423"/>
      <point x="338" y="419" type="curve"/>
      <point x="335" y="452"/>
      <point x="334" y="489"/>
      <point x="334" y="565" type="curve"/>
    </contour>
  </outline>
</glyph>
<glyph name="six" format="1">
  <advance width="517"/>
  <unicode hex="0036"/>
  <outline>
    <contour>
      <point x="259" y="697"/>
      <point x="55" y="572"/>
      <point x="55" y="270" type="curve" smooth="yes"/>
      <point x="55" y="90"/>
      <point x="132" y="-14"/>
      <point x="259" y="-14" type="curve" smooth="yes"/>
      <point x="379" y="-14"/>
      <point x="479" y="70"/>
      <point x="479" y="220" type="curve" smooth="yes"/>
      <point x="479" y="360"/>
      <point x="392" y="438"/>
      <point x="299" y="438" type="curve" smooth="yes"/>
      <point x="240" y="438"/>
      <point x="150" y="405"/>
      <point x="136" y="293" type="curve"/>
      <point x="146" y="299" type="line"/>
      <point x="165" y="384"/>
      <point x="230" y="409"/>
      <point x="274" y="409" type="curve" smooth="yes"/>
      <point x="333" y="409"/>
      <point x="382" y="357"/>
      <point x="382" y="213" type="curve" smooth="yes"/>
      <point x="382" y="64"/>
      <point x="328" y="6"/>
      <point x="269" y="6" type="curve" smooth="yes"/>
      <point x="214" y="6"/>
      <point x="152" y="61"/>
      <point x="152" y="272" type="curve" smooth="yes"/>
      <point x="152" y="591"/>
      <point x="288" y="668"/>
      <point x="398" y="703" type="curve"/>
      <point x="394" y="723" type="line"/>
    </contour>
  </outline>
</glyph>
<glyph name="seven" format="1">
  <advance width="406"/>
  <unicode hex="0037"/>
  <outline>
    <contour>
      <point x="30" y="488"/>
      <point x="31" y="450"/>
      <point x="31" y="379" type="curve"/>
      <point x="48" y="379" type="line"/>
      <point x="53" y="418"/>
      <point x="60" y="430"/>
      <point x="115" y="430" type="curve" smooth="yes"/>
      <point x="358" y="430" type="line"/>
      <point x="386" y="493" type="line"/>
      <point x="300" y="320"/>
      <point x="137" y="134"/>
      <point x="137" y="-92" type="curve" smooth="yes"/>
      <point x="137" y="-121"/>
      <point x="151" y="-148"/>
      <point x="182" y="-148" type="curve" smooth="yes"/>
      <point x="210" y="-148"/>
      <point x="229" y="-127"/>
      <point x="229" y="-97" type="curve" smooth="yes"/>
      <point x="229" y="-76"/>
      <point x="225" y="-50"/>
      <point x="225" y="-18" type="curve" smooth="yes"/>
      <point x="223" y="211"/>
      <point x="341" y="357"/>
      <point x="398" y="493" type="curve"/>
      <point x="398" y="514" type="line"/>
      <point x="176" y="514" type="line" smooth="yes"/>
      <point x="116" y="514"/>
      <point x="45" y="515"/>
      <point x="27" y="519" type="curve"/>
    </contour>
  </outline>
</glyph>
<glyph name="eight" format="1">
  <advance width="520"/>
  <unicode hex="0038"/>
  <outline>
    <contour>
      <point x="165" y="722"/>
      <point x="85" y="659"/>
      <point x="85" y="566" type="curve" smooth="yes"/>
      <point x="85" y="370"/>
      <point x="384" y="329"/>
      <point x="384" y="135" type="curve" smooth="yes"/>
      <point x="384" y="50"/>
      <point x="326" y="4"/>
      <point x="259" y="4" type="curve" smooth="yes"/>
      <point x="172" y="4"/>
      <point x="140" y="84"/>
      <point x="140" y="169" type="curve" smooth="yes"/>
      <point x="140" y="245"/>
      <point x="165" y="313"/>
      <point x="234" y="360" type="curve"/>
      <point x="226" y="374" type="line"/>
      <point x="130" y="330"/>
      <point x="52" y="257"/>
      <point x="52" y="154" type="curve" smooth="yes"/>
      <point x="52" y="41"/>
      <point x="147" y="-14"/>
      <point x="253" y="-14" type="curve" smooth="yes"/>
      <point x="378" y="-14"/>
      <point x="469" y="63"/>
      <point x="469" y="177" type="curve" smooth="yes"/>
      <point x="469" y="382"/>
      <point x="163" y="409"/>
      <point x="163" y="597" type="curve" smooth="yes"/>
      <point x="163" y="663"/>
      <point x="204" y="704"/>
      <point x="257" y="704" type="curve" smooth="yes"/>
      <point x="319" y="704"/>
      <point x="353" y="651"/>
      <point x="353" y="572" type="curve" smooth="yes"/>
      <point x="353" y="506"/>
      <point x="333" y="447"/>
      <point x="282" y="404" type="curve"/>
      <point x="290" y="390" type="line"/>
      <point x="374" y="443"/>
      <point x="433" y="504"/>
      <point x="433" y="585" type="curve" smooth="yes"/>
      <point x="433" y="675"/>
      <point x="358" y="722"/>
      <point x="268" y="722" type="curve" smooth="yes"/>
    </contour>
  </outline>
</glyph>
<glyph name="nine" format="1">
  <advance width="509"/>
  <unicode hex="0039"/>
  <outline>
    <contour>
      <point x="137" y="529"/>
      <point x="37" y="445"/>
      <point x="37" y="295" type="curve" smooth="yes"/>
      <point x="37" y="155"/>
      <point x="124" y="77"/>
      <point x="217" y="77" type="curve" smooth="yes"/>
      <point x="276" y="77"/>
      <point x="366" y="110"/>
      <point x="380" y="222" type="curve"/>
      <point x="370" y="216" type="line"/>
      <point x="351" y="131"/>
      <point x="286" y="106"/>
      <point x="242" y="106" type="curve" smooth="yes"/>
      <point x="183" y="106"/>
      <point x="134" y="158"/>
      <point x="134" y="302" type="curve" smooth="yes"/>
      <point x="134" y="451"/>
      <point x="188" y="509"/>
      <point x="247" y="509" type="curve" smooth="yes"/>
      <point x="302" y="509"/>
      <point x="364" y="458"/>
      <point x="364" y="263" type="curve" smooth="yes"/>
      <point x="364" y="-28"/>
      <point x="228" y="-97"/>
      <point x="118" y="-128" type="curve"/>
      <point x="122" y="-148" type="line"/>
      <point x="257" y="-126"/>
      <point x="461" y="-9"/>
      <point x="461" y="265" type="curve" smooth="yes"/>
      <point x="461" y="433"/>
      <point x="384" y="529"/>
      <point x="257" y="529" type="curve" smooth="yes"/>
    </contour>
  </outline>
</glyph>
<glyph name="less" format="1">
  <advance width="608"/>
  <unicode hex="003C"/>
  <outline>
    <contour>
      <point x="517" y="582" type="line"/>
      <point x="30" y="355" type="line"/>
      <point x="517" y="128" type="line"/>
      <point x="534" y="164" type="line"/>
      <point x="125" y="355" type="line"/>
      <point x="534" y="546" type="line"/>
    </contour>
  </outline>
</glyph>
<glyph name="equal" format="1">
  <advance width="647"/>
  <unicode hex="003D"/>
  <outline>
    <contour>
      <point x="574" y="440" type="line"/>
      <point x="73" y="440" type="line"/>
      <point x="73" y="410" type="line"/>
      <point x="574" y="410" type="line"/>
    </contour>
    <contour>
      <point x="574" y="300" type="line"/>
      <point x="73" y="300" type="line"/>
      <point x="73" y="270" type="line"/>
      <point x="574" y="270" type="line"/>
    </contour>
  </outline>
</glyph>
<glyph name="question" format="1">
  <advance width="459"/>
  <unicode hex="003F"/>
  <outline>
    <contour>
      <point x="151" y="782"/>
      <point x="107" y="765"/>
      <point x="79" y="746" type="curve" smooth="yes"/>
      <point x="51" y="727"/>
      <point x="32" y="702"/>
      <point x="32" y="674" type="curve" smooth="yes"/>
      <point x="32" y="643"/>
      <point x="54" y="621"/>
      <point x="85" y="621" type="curve" smooth="yes"/>
      <point x="115" y="621"/>
      <point x="140" y="641"/>
      <point x="140" y="675" type="curve" smooth="yes"/>
      <point x="140" y="703"/>
      <point x="123" y="721"/>
      <point x="98" y="726" type="curve"/>
      <point x="121" y="755"/>
      <point x="164" y="762"/>
      <point x="196" y="762" type="curve" smooth="yes"/>
      <point x="279" y="762"/>
      <point x="336" y="709"/>
      <point x="336" y="583" type="curve" smooth="yes"/>
      <point x="336" y="505"/>
      <point x="313" y="438"/>
      <point x="180" y="389" type="curve"/>
      <point x="180" y="234" type="line"/>
      <point x="200" y="234" type="line"/>
      <point x="200" y="380" type="line"/>
      <point x="334" y="414"/>
      <point x="425" y="489"/>
      <point x="425" y="602" type="curve" smooth="yes"/>
      <point x="425" y="714"/>
      <point x="340" y="782"/>
      <point x="215" y="782" type="curve" smooth="yes"/>
    </contour>
    <component base="period" xOffset="65"/>
  </outline>
</glyph>
<glyph name="A" format="1">
  <advance width="630"/>
  <unicode hex="0041"/>
  <outline>
    <contour>
      <point x="318" y="713"/>
      <point x="312" y="713"/>
      <point x="307" y="713" type="curve"/>
      <point x="72" y="107" type="line" smooth="yes"/>
      <point x="49" y="47"/>
      <point x="19" y="26"/>
      <point x="-7" y="20" type="curve"/>
      <point x="-7" y="0" type="line"/>
      <point x="13" y="2"/>
      <point x="34" y="3"/>
      <point x="68" y="3" type="curve" smooth="yes"/>
      <point x="103" y="3"/>
      <point x="145" y="2"/>
      <point x="183" y="0" type="curve"/>
      <point x="183" y="20" type="line"/>
      <point x="99" y="22"/>
      <point x="74" y="54"/>
      <point x="116" y="162" type="curve" smooth="yes"/>
      <point x="290" y="614" type="line"/>
      <point x="274" y="601" type="line"/>
      <point x="460" y="104" type="line" smooth="yes"/>
      <point x="486" y="36"/>
      <point x="469" y="23"/>
      <point x="401" y="20" type="curve"/>
      <point x="401" y="0" type="line"/>
      <point x="429" y="2"/>
      <point x="477" y="3"/>
      <point x="529" y="3" type="curve" smooth="yes"/>
      <point x="567" y="3"/>
      <point x="609" y="2"/>
      <point x="636" y="0" type="curve"/>
      <point x="636" y="20" type="line"/>
      <point x="615" y="21"/>
      <point x="587" y="33"/>
      <point x="567" y="84" type="curve" smooth="yes"/>
      <point x="323" y="713" type="line"/>
    </contour>
    <contour>
      <point x="157" y="288" type="line"/>
      <point x="147" y="268" type="line"/>
      <point x="445" y="268" type="line"/>
      <point x="445" y="288" type="line"/>
    </contour>
    <contour>
      <point x="624" y="0" type="move" name="ogonek"/>
    </contour>
    <contour>
      <point x="309" y="708" type="move" name="top"/>
    </contour>
  </outline>
</glyph>
<glyph name="B" format="1">
  <advance width="623"/>
  <unicode hex="0042"/>
  <outline>
    <contour>
      <point x="42" y="688" type="line"/>
      <point x="110" y="685"/>
      <point x="123" y="675"/>
      <point x="123" y="602" type="curve" smooth="yes"/>
      <point x="123" y="106" type="line" smooth="yes"/>
      <point x="123" y="33"/>
      <point x="110" y="23"/>
      <point x="42" y="20" type="curve"/>
      <point x="42" y="0" type="line"/>
      <point x="70" y="2"/>
      <point x="119" y="3"/>
      <point x="166" y="3" type="curve" smooth="yes"/>
      <point x="248" y="3"/>
      <point x="308" y="0"/>
      <point x="338" y="0" type="curve" smooth="yes"/>
      <point x="488" y="0"/>
      <point x="578" y="80"/>
      <point x="578" y="194" type="curve" smooth="yes"/>
      <point x="578" y="275"/>
      <point x="532" y="353"/>
      <point x="374" y="374" type="curve"/>
      <point x="374" y="376" type="line"/>
      <point x="486" y="410"/>
      <point x="526" y="479"/>
      <point x="526" y="550" type="curve" smooth="yes"/>
      <point x="526" y="642"/>
      <point x="455" y="707"/>
      <point x="315" y="707" type="curve" smooth="yes"/>
      <point x="291" y="707"/>
      <point x="227" y="705"/>
      <point x="164" y="705" type="curve" smooth="yes"/>
      <point x="120" y="705"/>
      <point x="70" y="706"/>
      <point x="42" y="708" type="curve"/>
    </contour>
    <contour>
      <point x="390" y="688"/>
      <point x="430" y="637"/>
      <point x="430" y="539" type="curve" smooth="yes"/>
      <point x="430" y="452"/>
      <point x="401" y="376"/>
      <point x="283" y="376" type="curve" smooth="yes"/>
      <point x="197" y="376" type="line"/>
      <point x="197" y="376"/>
      <point x="197" y="359"/>
      <point x="197" y="359" type="curve"/>
      <point x="300" y="359" type="line" smooth="yes"/>
      <point x="427" y="359"/>
      <point x="478" y="300"/>
      <point x="478" y="198" type="curve" smooth="yes"/>
      <point x="478" y="86"/>
      <point x="422" y="23"/>
      <point x="291" y="23" type="curve" smooth="yes"/>
      <point x="229" y="23"/>
      <point x="216" y="36"/>
      <point x="216" y="106" type="curve" smooth="yes"/>
      <point x="216" y="602" type="line" smooth="yes"/>
      <point x="216" y="671"/>
      <point x="229" y="688"/>
      <point x="290" y="688" type="curve" smooth="yes"/>
    </contour>
  </outline>
</glyph>
<glyph name="C" format="1">
  <advance width="688"/>
  <unicode hex="0043"/>
  <outline>
    <contour>
      <point x="185" y="722"/>
      <point x="53" y="572"/>
      <point x="53" y="348" type="curve" smooth="yes"/>
      <point x="53" y="119"/>
      <point x="180" y="-14"/>
      <point x="370" y="-14" type="curve" smooth="yes"/>
      <point x="456" y="-14"/>
      <point x="506" y="16"/>
      <point x="555" y="51" type="curve" smooth="yes"/>
      <point x="584" y="70"/>
      <point x="595" y="57"/>
      <point x="600" y="0" type="curve"/>
      <point x="623" y="0" type="line"/>
      <point x="620" y="51"/>
      <point x="619" y="119"/>
      <point x="619" y="240" type="curve"/>
      <point x="596" y="240" type="line"/>
      <point x="586" y="159"/>
      <point x="579" y="121"/>
      <point x="550" y="82" type="curve" smooth="yes"/>
      <point x="512" y="28"/>
      <point x="439" y="6"/>
      <point x="379" y="6" type="curve" smooth="yes"/>
      <point x="250" y="6"/>
      <point x="153" y="129"/>
      <point x="153" y="352" type="curve" smooth="yes"/>
      <point x="153" y="569"/>
      <point x="239" y="704"/>
      <point x="369" y="704" type="curve" smooth="yes"/>
      <point x="438" y="704"/>
      <point x="504" y="680"/>
      <point x="546" y="626" type="curve" smooth="yes"/>
      <point x="574" y="590"/>
      <point x="582" y="563"/>
      <point x="596" y="478" type="curve"/>
      <point x="619" y="478" type="line"/>
      <point x="619" y="594"/>
      <point x="620" y="659"/>
      <point x="623" y="708" type="curve"/>
      <point x="600" y="708" type="line"/>
      <point x="595" y="651"/>
      <point x="581" y="637"/>
      <point x="555" y="657" type="curve" smooth="yes"/>
      <point x="511" y="691"/>
      <point x="459" y="722"/>
      <point x="371" y="722" type="curve" smooth="yes"/>
    </contour>
    <contour>
      <point x="374" y="0" type="move" name="bottom"/>
    </contour>
    <contour>
      <point x="364" y="708" type="move" name="top"/>
    </contour>
  </outline>
</glyph>
<glyph name="D" format="1">
  <advance width="723"/>
  <unicode hex="0044"/>
  <outline>
    <contour>
      <point x="277" y="708"/>
      <point x="210" y="706"/>
      <point x="164" y="705" type="curve" smooth="yes"/>
      <point x="120" y="704"/>
      <point x="70" y="706"/>
      <point x="42" y="708" type="curve"/>
      <point x="42" y="688" type="line"/>
      <point x="110" y="685"/>
      <point x="123" y="675"/>
      <point x="123" y="602" type="curve" smooth="yes"/>
      <point x="123" y="106" type="line" smooth="yes"/>
      <point x="123" y="33"/>
      <point x="110" y="23"/>
      <point x="42" y="20" type="curve"/>
      <point x="42" y="0" type="line"/>
      <point x="70" y="2"/>
      <point x="119" y="3"/>
      <point x="166" y="3" type="curve" smooth="yes"/>
      <point x="209" y="3"/>
      <point x="276" y="0"/>
      <point x="306" y="0" type="curve" smooth="yes"/>
      <point x="536" y="0"/>
      <point x="668" y="144"/>
      <point x="668" y="362" type="curve" smooth="yes"/>
      <point x="668" y="585"/>
      <point x="553" y="708"/>
      <point x="315" y="708" type="curve" smooth="yes"/>
    </contour>
    <contour>
      <point x="497" y="690"/>
      <point x="568" y="582"/>
      <point x="568" y="358" type="curve" smooth="yes"/>
      <point x="568" y="140"/>
      <point x="509" y="18"/>
      <point x="291" y="18" type="curve" smooth="yes"/>
      <point x="229" y="18"/>
      <point x="216" y="34"/>
      <point x="216" y="104" type="curve" smooth="yes"/>
      <point x="216" y="604" type="line" smooth="yes"/>
      <point x="216" y="673"/>
      <point x="229" y="690"/>
      <point x="290" y="690" type="curve" smooth="yes"/>
    </contour>
    <contour>
      <point x="362" y="354" type="move" name="center"/>
    </contour>
    <contour>
      <point x="42" y="346" type="move" name="centre"/>
    </contour>
    <contour>
      <point x="315" y="708" type="move" name="top"/>
    </contour>
  </outline>
</glyph>
<glyph name="E" format="1">
  <advance width="609"/>
  <unicode hex="0045"/>
  <outline>
    <contour>
      <point x="479" y="705"/>
      <point x="393" y="705"/>
      <point x="332" y="705" type="curve" smooth="yes"/>
      <point x="272" y="705"/>
      <point x="140" y="705"/>
      <point x="42" y="708" type="curve"/>
      <point x="42" y="688" type="line"/>
      <point x="110" y="685"/>
      <point x="123" y="675"/>
      <point x="123" y="602" type="curve" smooth="yes"/>
      <point x="123" y="106" type="line" smooth="yes"/>
      <point x="123" y="33"/>
      <point x="110" y="23"/>
      <point x="42" y="20" type="curve"/>
      <point x="42" y="0" type="line"/>
      <point x="140" y="3"/>
      <point x="272" y="3"/>
      <point x="332" y="3" type="curve" smooth="yes"/>
      <point x="399" y="3"/>
      <point x="493" y="3"/>
      <point x="561" y="0" type="curve"/>
      <point x="556" y="51"/>
      <point x="554" y="103"/>
      <point x="554" y="128" type="curve" smooth="yes"/>
      <point x="554" y="156"/>
      <point x="555" y="182"/>
      <point x="557" y="200" type="curve"/>
      <point x="534" y="200" type="line"/>
      <point x="520" y="68"/>
      <point x="495" y="23"/>
      <point x="370" y="23" type="curve" smooth="yes"/>
      <point x="297" y="23" type="line" smooth="yes"/>
      <point x="229" y="23"/>
      <point x="216" y="33"/>
      <point x="216" y="106" type="curve" smooth="yes"/>
      <point x="216" y="602" type="line" smooth="yes"/>
      <point x="216" y="675"/>
      <point x="229" y="685"/>
      <point x="297" y="685" type="curve" smooth="yes"/>
      <point x="380" y="685" type="line" smooth="yes"/>
      <point x="486" y="685"/>
      <point x="501" y="646"/>
      <point x="514" y="528" type="curve"/>
      <point x="537" y="528" type="line"/>
      <point x="535" y="543"/>
      <point x="534" y="566"/>
      <point x="534" y="590" type="curve" smooth="yes"/>
      <point x="534" y="613"/>
      <point x="536" y="661"/>
      <point x="541" y="708" type="curve"/>
    </contour>
    <contour>
      <point x="186" y="366" type="line"/>
      <point x="186" y="366"/>
      <point x="186" y="346"/>
      <point x="186" y="346" type="curve"/>
      <point x="369" y="346" type="line"/>
      <point x="369" y="346"/>
      <point x="369" y="366"/>
      <point x="369" y="366" type="curve"/>
    </contour>
    <contour>
      <point x="375" y="498" type="line"/>
      <point x="367" y="450"/>
      <point x="369" y="366"/>
      <point x="282" y="366" type="curve"/>
      <point x="282" y="346" type="line"/>
      <point x="369" y="346"/>
      <point x="370" y="278"/>
      <point x="378" y="214" type="curve"/>
      <point x="401" y="214" type="line"/>
      <point x="396" y="290"/>
      <point x="395" y="323"/>
      <point x="395" y="356" type="curve" smooth="yes"/>
      <point x="395" y="389"/>
      <point x="393" y="422"/>
      <point x="398" y="498" type="curve"/>
    </contour>
    <contour>
      <point x="325" y="0" type="move" name="bottom"/>
    </contour>
    <contour>
      <point x="561" y="0" type="move" name="ogonek"/>
    </contour>
    <contour>
      <point x="306" y="708" type="move" name="top"/>
    </contour>
  </outline>
</glyph>
<glyph name="F" format="1">
  <advance width="569"/>
  <unicode hex="0046"/>
  <outline>
    <contour>
      <point x="479" y="705"/>
      <point x="393" y="705"/>
      <point x="332" y="705" type="curve" smooth="yes"/>
      <point x="272" y="705"/>
      <point x="140" y="705"/>
      <point x="42" y="708" type="curve"/>
      <point x="42" y="688" type="line"/>
      <point x="110" y="685"/>
      <point x="123" y="675"/>
      <point x="123" y="602" type="curve" smooth="yes"/>
      <point x="123" y="106" type="line" smooth="yes"/>
      <point x="123" y="33"/>
      <point x="110" y="23"/>
      <point x="42" y="20" type="curve"/>
      <point x="42" y="0" type="line"/>
      <point x="70" y="2"/>
      <point x="118" y="3"/>
      <point x="170" y="3" type="curve" smooth="yes"/>
      <point x="224" y="3"/>
      <point x="282" y="2"/>
      <point x="317" y="0" type="curve"/>
      <point x="317" y="20" type="line"/>
      <point x="233" y="23"/>
      <point x="216" y="33"/>
      <point x="216" y="106" type="curve" smooth="yes"/>
      <point x="216" y="602" type="line" smooth="yes"/>
      <point x="216" y="675"/>
      <point x="229" y="685"/>
      <point x="297" y="685" type="curve" smooth="yes"/>
      <point x="360" y="685" type="line" smooth="yes"/>
      <point x="485" y="685"/>
      <point x="500" y="637"/>
      <point x="514" y="498" type="curve"/>
      <point x="537" y="498" type="line"/>
      <point x="535" y="519"/>
      <point x="534" y="548"/>
      <point x="534" y="580" type="curve" smooth="yes"/>
      <point x="534" y="605"/>
      <point x="536" y="657"/>
      <point x="541" y="708" type="curve"/>
    </contour>
    <contour>
      <point x="186" y="356" type="line"/>
      <point x="186" y="356"/>
      <point x="186" y="336"/>
      <point x="186" y="336" type="curve"/>
      <point x="386" y="336" type="line"/>
      <point x="386" y="336"/>
      <point x="386" y="356"/>
      <point x="386" y="356" type="curve"/>
    </contour>
    <contour>
      <point x="382" y="488" type="line"/>
      <point x="374" y="440"/>
      <point x="376" y="356"/>
      <point x="289" y="356" type="curve"/>
      <point x="289" y="336" type="line"/>
      <point x="376" y="336"/>
      <point x="377" y="268"/>
      <point x="385" y="204" type="curve"/>
      <point x="408" y="204" type="line"/>
      <point x="403" y="280"/>
      <point x="402" y="313"/>
      <point x="402" y="346" type="curve" smooth="yes"/>
      <point x="402" y="379"/>
      <point x="400" y="412"/>
      <point x="405" y="488" type="curve"/>
    </contour>
  </outline>
</glyph>
<glyph name="G" format="1">
  <advance width="703"/>
  <unicode hex="0047"/>
  <outline>
    <contour>
      <point x="190" y="722"/>
      <point x="54" y="575"/>
      <point x="54" y="342" type="curve" smooth="yes"/>
      <point x="54" y="119"/>
      <point x="175" y="-14"/>
      <point x="382" y="-14" type="curve" smooth="yes"/>
      <point x="447" y="-14"/>
      <point x="494" y="7"/>
      <point x="538" y="40" type="curve" smooth="yes"/>
      <point x="558" y="55"/>
      <point x="563" y="57"/>
      <point x="571" y="57" type="curve" smooth="yes"/>
      <point x="588" y="57"/>
      <point x="597" y="23"/>
      <point x="598" y="0" type="curve"/>
      <point x="618" y="0" type="line"/>
      <point x="618" y="198" type="line" smooth="yes"/>
      <point x="618" y="272"/>
      <point x="625" y="281"/>
      <point x="669" y="284" type="curve"/>
      <point x="669" y="304" type="line"/>
      <point x="645" y="302"/>
      <point x="609" y="301"/>
      <point x="565" y="301" type="curve" smooth="yes"/>
      <point x="520" y="301"/>
      <point x="459" y="302"/>
      <point x="424" y="304" type="curve"/>
      <point x="424" y="284" type="line"/>
      <point x="508" y="281"/>
      <point x="525" y="269"/>
      <point x="525" y="188" type="curve" smooth="yes"/>
      <point x="525" y="92" type="line" smooth="yes"/>
      <point x="525" y="67"/>
      <point x="521" y="54"/>
      <point x="496" y="37" type="curve" smooth="yes"/>
      <point x="476" y="23"/>
      <point x="440" y="6"/>
      <point x="392" y="6" type="curve" smooth="yes"/>
      <point x="229" y="6"/>
      <point x="154" y="113"/>
      <point x="154" y="353" type="curve" smooth="yes"/>
      <point x="154" y="568"/>
      <point x="241" y="704"/>
      <point x="374" y="704" type="curve" smooth="yes"/>
      <point x="441" y="704"/>
      <point x="508" y="675"/>
      <point x="547" y="626" type="curve" smooth="yes"/>
      <point x="578" y="588"/>
      <point x="588" y="534"/>
      <point x="597" y="478" type="curve"/>
      <point x="620" y="478" type="line"/>
      <point x="620" y="594"/>
      <point x="621" y="659"/>
      <point x="624" y="708" type="curve"/>
      <point x="601" y="708" type="line"/>
      <point x="597" y="666"/>
      <point x="589" y="647"/>
      <point x="576" y="647" type="curve" smooth="yes"/>
      <point x="570" y="647"/>
      <point x="564" y="651"/>
      <point x="556" y="657" type="curve" smooth="yes"/>
      <point x="509" y="691"/>
      <point x="463" y="722"/>
      <point x="376" y="722" type="curve" smooth="yes"/>
    </contour>
    <contour>
      <point x="377" y="0" type="move" name="bottom"/>
    </contour>
    <contour>
      <point x="361" y="708" type="move" name="top"/>
    </contour>
  </outline>
</glyph>
<glyph name="H" format="1">
  <advance width="757"/>
  <unicode hex="0048"/>
  <outline>
    <contour>
      <point x="687" y="706"/>
      <point x="639" y="705"/>
      <point x="587" y="705" type="curve" smooth="yes"/>
      <point x="541" y="705"/>
      <point x="491" y="706"/>
      <point x="460" y="708" type="curve"/>
      <point x="460" y="688" type="line"/>
      <point x="528" y="685"/>
      <point x="541" y="675"/>
      <point x="541" y="602" type="curve" smooth="yes"/>
      <point x="541" y="366" type="line"/>
      <point x="216" y="366" type="line"/>
      <point x="216" y="602" type="line" smooth="yes"/>
      <point x="216" y="675"/>
      <point x="229" y="685"/>
      <point x="297" y="688" type="curve"/>
      <point x="297" y="708" type="line"/>
      <point x="266" y="706"/>
      <point x="216" y="705"/>
      <point x="170" y="705" type="curve" smooth="yes"/>
      <point x="118" y="705"/>
      <point x="70" y="706"/>
      <point x="42" y="708" type="curve"/>
      <point x="42" y="688" type="line"/>
      <point x="110" y="685"/>
      <point x="123" y="675"/>
      <point x="123" y="602" type="curve" smooth="yes"/>
      <point x="123" y="106" type="line" smooth="yes"/>
      <point x="123" y="33"/>
      <point x="110" y="23"/>
      <point x="42" y="20" type="curve"/>
      <point x="42" y="0" type="line"/>
      <point x="70" y="2"/>
      <point x="118" y="3"/>
      <point x="170" y="3" type="curve" smooth="yes"/>
      <point x="216" y="3"/>
      <point x="266" y="2"/>
      <point x="297" y="0" type="curve"/>
      <point x="297" y="20" type="line"/>
      <point x="229" y="23"/>
      <point x="216" y="33"/>
      <point x="216" y="106" type="curve" smooth="yes"/>
      <point x="216" y="346" type="line"/>
      <point x="541" y="346" type="line"/>
      <point x="541" y="106" type="line" smooth="yes"/>
      <point x="541" y="33"/>
      <point x="528" y="23"/>
      <point x="460" y="20" type="curve"/>
      <point x="460" y="0" type="line"/>
      <point x="491" y="2"/>
      <point x="541" y="3"/>
      <point x="587" y="3" type="curve" smooth="yes"/>
      <point x="639" y="3"/>
      <point x="687" y="2"/>
      <point x="715" y="0" type="curve"/>
      <point x="715" y="20" type="line"/>
      <point x="647" y="23"/>
      <point x="634" y="33"/>
      <point x="634" y="106" type="curve" smooth="yes"/>
      <point x="634" y="602" type="line" smooth="yes"/>
      <point x="634" y="675"/>
      <point x="647" y="685"/>
      <point x="715" y="688" type="curve"/>
      <point x="715" y="708" type="line"/>
    </contour>
    <contour>
      <point x="379" y="354" type="move" name="center"/>
    </contour>
    <contour>
      <point x="381" y="708" type="move" name="top"/>
    </contour>
  </outline>
</glyph>
<glyph name="I" format="1">
  <advance width="339"/>
  <unicode hex="0049"/>
  <outline>
    <contour>
      <point x="266" y="706"/>
      <point x="216" y="705"/>
      <point x="170" y="705" type="curve" smooth="yes"/>
      <point x="118" y="705"/>
      <point x="70" y="706"/>
      <point x="42" y="708" type="curve"/>
      <point x="42" y="688" type="line"/>
      <point x="110" y="685"/>
      <point x="123" y="675"/>
      <point x="123" y="602" type="curve" smooth="yes"/>
      <point x="123" y="106" type="line" smooth="yes"/>
      <point x="123" y="33"/>
      <point x="110" y="23"/>
      <point x="42" y="20" type="curve"/>
      <point x="42" y="0" type="line"/>
      <point x="70" y="2"/>
      <point x="118" y="3"/>
      <point x="170" y="3" type="curve" smooth="yes"/>
      <point x="216" y="3"/>
      <point x="266" y="2"/>
      <point x="297" y="0" type="curve"/>
      <point x="297" y="20" type="line"/>
      <point x="229" y="23"/>
      <point x="216" y="33"/>
      <point x="216" y="106" type="curve" smooth="yes"/>
      <point x="216" y="602" type="line" smooth="yes"/>
      <point x="216" y="675"/>
      <point x="229" y="685"/>
      <point x="297" y="688" type="curve"/>
      <point x="297" y="708" type="line"/>
    </contour>
    <contour>
      <point x="170" y="0" type="move" name="bottom"/>
    </contour>
    <contour>
      <point x="297" y="0" type="move" name="ogonek"/>
    </contour>
    <contour>
      <point x="170" y="708" type="move" name="top"/>
    </contour>
  </outline>
</glyph>
<glyph name="J" format="1">
  <advance width="326"/>
  <unicode hex="004A"/>
  <outline>
    <contour>
      <point x="-20" y="-188" type="line"/>
      <point x="96" y="-188"/>
      <point x="170" y="-118"/>
      <point x="193" y="-25" type="curve" smooth="yes"/>
      <point x="209" y="42"/>
      <point x="210" y="153"/>
      <point x="210" y="236" type="curve" smooth="yes"/>
      <point x="210" y="602" type="line" smooth="yes"/>
      <point x="210" y="675"/>
      <point x="223" y="685"/>
      <point x="291" y="688" type="curve"/>
      <point x="291" y="708" type="line"/>
      <point x="260" y="706"/>
      <point x="211" y="705"/>
      <point x="162" y="705" type="curve" smooth="yes"/>
      <point x="113" y="705"/>
      <point x="64" y="706"/>
      <point x="36" y="708" type="curve"/>
      <point x="36" y="688" type="line"/>
      <point x="104" y="685"/>
      <point x="117" y="675"/>
      <point x="117" y="602" type="curve" smooth="yes"/>
      <point x="117" y="52" type="line" smooth="yes"/>
      <point x="117" y="-111"/>
      <point x="70" y="-167"/>
      <point x="-20" y="-169" type="curve"/>
    </contour>
    <contour>
      <point x="163" y="-181" type="move" name="bottom"/>
    </contour>
    <contour>
      <point x="164" y="708" type="move" name="top"/>
    </contour>
  </outline>
</glyph>
<glyph name="K" format="1">
  <advance width="655"/>
  <unicode hex="004B"/>
  <outline>
    <contour>
      <point x="595" y="706"/>
      <point x="564" y="705"/>
      <point x="530" y="705" type="curve" smooth="yes"/>
      <point x="495" y="705"/>
      <point x="453" y="706"/>
      <point x="415" y="708" type="curve"/>
      <point x="415" y="688" type="line"/>
      <point x="499" y="686"/>
      <point x="492" y="640"/>
      <point x="426" y="556" type="curve" smooth="yes"/>
      <point x="330" y="434" type="line" smooth="yes"/>
      <point x="305" y="402"/>
      <point x="268" y="379"/>
      <point x="212" y="378" type="curve"/>
      <point x="212" y="358" type="line"/>
      <point x="261" y="356"/>
      <point x="280" y="347"/>
      <point x="321" y="285" type="curve" smooth="yes"/>
      <point x="467" y="65" type="line" smooth="yes"/>
      <point x="488" y="34"/>
      <point x="476" y="22"/>
      <point x="431" y="20" type="curve"/>
      <point x="431" y="0" type="line"/>
      <point x="480" y="3"/>
      <point x="511" y="3"/>
      <point x="534" y="3" type="curve" smooth="yes"/>
      <point x="567" y="3"/>
      <point x="622" y="2"/>
      <point x="654" y="0" type="curve"/>
      <point x="654" y="20" type="line"/>
      <point x="613" y="30"/>
      <point x="588" y="48"/>
      <point x="566" y="81" type="curve" smooth="yes"/>
      <point x="326" y="417" type="line"/>
      <point x="304" y="368" type="line"/>
      <point x="497" y="615" type="line" smooth="yes"/>
      <point x="535" y="664"/>
      <point x="574" y="682"/>
      <point x="615" y="688" type="curve"/>
      <point x="615" y="708" type="line"/>
    </contour>
    <contour>
      <point x="266" y="706"/>
      <point x="216" y="705"/>
      <point x="170" y="705" type="curve" smooth="yes"/>
      <point x="118" y="705"/>
      <point x="70" y="706"/>
      <point x="42" y="708" type="curve"/>
      <point x="42" y="688" type="line"/>
      <point x="110" y="685"/>
      <point x="123" y="675"/>
      <point x="123" y="602" type="curve" smooth="yes"/>
      <point x="123" y="106" type="line" smooth="yes"/>
      <point x="123" y="33"/>
      <point x="110" y="23"/>
      <point x="42" y="20" type="curve"/>
      <point x="42" y="0" type="line"/>
      <point x="70" y="2"/>
      <point x="118" y="3"/>
      <point x="170" y="3" type="curve" smooth="yes"/>
      <point x="216" y="3"/>
      <point x="266" y="2"/>
      <point x="297" y="0" type="curve"/>
      <point x="297" y="20" type="line"/>
      <point x="229" y="23"/>
      <point x="216" y="33"/>
      <point x="216" y="106" type="curve" smooth="yes"/>
      <point x="216" y="602" type="line" smooth="yes"/>
      <point x="216" y="675"/>
      <point x="229" y="685"/>
      <point x="297" y="688" type="curve"/>
      <point x="297" y="708" type="line"/>
    </contour>
    <contour>
      <point x="346" y="0" type="move" name="bottom"/>
    </contour>
    <contour>
      <point x="345" y="708" type="move" name="top"/>
    </contour>
  </outline>
</glyph>
<glyph name="L" format="1">
  <advance width="588"/>
  <unicode hex="004C"/>
  <outline>
    <contour>
      <point x="266" y="706"/>
      <point x="216" y="705"/>
      <point x="170" y="705" type="curve" smooth="yes"/>
      <point x="118" y="705"/>
      <point x="70" y="706"/>
      <point x="42" y="708" type="curve"/>
      <point x="42" y="688" type="line"/>
      <point x="110" y="685"/>
      <point x="123" y="675"/>
      <point x="123" y="602" type="curve" smooth="yes"/>
      <point x="123" y="106" type="line" smooth="yes"/>
      <point x="123" y="33"/>
      <point x="110" y="23"/>
      <point x="42" y="20" type="curve"/>
      <point x="42" y="0" type="line"/>
      <point x="140" y="3"/>
      <point x="272" y="3"/>
      <point x="332" y="3" type="curve" smooth="yes"/>
      <point x="399" y="3"/>
      <point x="493" y="3"/>
      <point x="561" y="0" type="curve"/>
      <point x="556" y="51"/>
      <point x="554" y="103"/>
      <point x="554" y="128" type="curve" smooth="yes"/>
      <point x="554" y="160"/>
      <point x="555" y="189"/>
      <point x="557" y="210" type="curve"/>
      <point x="534" y="210" type="line"/>
      <point x="520" y="71"/>
      <point x="495" y="23"/>
      <point x="370" y="23" type="curve" smooth="yes"/>
      <point x="297" y="23" type="line" smooth="yes"/>
      <point x="229" y="23"/>
      <point x="216" y="33"/>
      <point x="216" y="106" type="curve" smooth="yes"/>
      <point x="216" y="602" type="line" smooth="yes"/>
      <point x="216" y="675"/>
      <point x="229" y="685"/>
      <point x="297" y="688" type="curve"/>
      <point x="297" y="708" type="line"/>
    </contour>
    <contour>
      <point x="332" y="0" type="move" name="bottom"/>
    </contour>
    <contour>
      <point x="297" y="708" type="move" name="right"/>
    </contour>
    <contour>
      <point x="170" y="708" type="move" name="top"/>
    </contour>
  </outline>
</glyph>
<glyph name="M" format="1">
  <advance width="871"/>
  <unicode hex="004D"/>
  <outline>
    <contour>
      <point x="798" y="706"/>
      <point x="748" y="705"/>
      <point x="702" y="705" type="curve" smooth="yes"/>
      <point x="686" y="705"/>
      <point x="671" y="705"/>
      <point x="655" y="705" type="curve"/>
      <point x="430" y="102" type="line"/>
      <point x="447" y="110" type="line"/>
      <point x="220" y="708" type="line"/>
      <point x="198" y="706"/>
      <point x="164" y="705"/>
      <point x="135" y="705" type="curve" smooth="yes"/>
      <point x="101" y="705"/>
      <point x="64" y="706"/>
      <point x="42" y="708" type="curve"/>
      <point x="42" y="688" type="line"/>
      <point x="110" y="685"/>
      <point x="123" y="675"/>
      <point x="123" y="602" type="curve" smooth="yes"/>
      <point x="123" y="116" type="line" smooth="yes"/>
      <point x="123" y="43"/>
      <point x="110" y="23"/>
      <point x="42" y="20" type="curve"/>
      <point x="42" y="0" type="line"/>
      <point x="64" y="2"/>
      <point x="101" y="3"/>
      <point x="135" y="3" type="curve" smooth="yes"/>
      <point x="169" y="3"/>
      <point x="213" y="2"/>
      <point x="237" y="0" type="curve"/>
      <point x="237" y="20" type="line"/>
      <point x="159" y="23"/>
      <point x="146" y="43"/>
      <point x="146" y="116" type="curve" smooth="yes"/>
      <point x="146" y="644" type="line"/>
      <point x="398" y="-5" type="line"/>
      <point x="414" y="-5" type="line"/>
      <point x="659" y="653" type="line"/>
      <point x="655" y="656" type="line"/>
      <point x="655" y="106" type="line" smooth="yes"/>
      <point x="655" y="33"/>
      <point x="642" y="23"/>
      <point x="574" y="20" type="curve"/>
      <point x="574" y="0" type="line"/>
      <point x="602" y="2"/>
      <point x="650" y="3"/>
      <point x="702" y="3" type="curve" smooth="yes"/>
      <point x="748" y="3"/>
      <point x="798" y="2"/>
      <point x="829" y="0" type="curve"/>
      <point x="829" y="20" type="line"/>
      <point x="761" y="23"/>
      <point x="748" y="33"/>
      <point x="748" y="106" type="curve" smooth="yes"/>
      <point x="748" y="602" type="line" smooth="yes"/>
      <point x="748" y="675"/>
      <point x="761" y="685"/>
      <point x="829" y="688" type="curve"/>
      <point x="829" y="708" type="line"/>
    </contour>
  </outline>
</glyph>
<glyph name="P" format="1">
  <advance width="585"/>
  <unicode hex="0050"/>
  <outline>
    <contour>
      <point x="42" y="688" type="line"/>
      <point x="110" y="685"/>
      <point x="123" y="675"/>
      <point x="123" y="602" type="curve" smooth="yes"/>
      <point x="123" y="106" type="line" smooth="yes"/>
      <point x="123" y="33"/>
      <point x="110" y="23"/>
      <point x="42" y="20" type="curve"/>
      <point x="42" y="0" type="line"/>
      <point x="70" y="2"/>
      <point x="118" y="3"/>
      <point x="170" y="3" type="curve" smooth="yes"/>
      <point x="224" y="3"/>
      <point x="282" y="2"/>
      <point x="317" y="0" type="curve"/>
      <point x="317" y="20" type="line"/>
      <point x="233" y="23"/>
      <point x="216" y="33"/>
      <point x="216" y="106" type="curve" smooth="yes"/>
      <point x="216" y="602" type="line" smooth="yes"/>
      <point x="216" y="671"/>
      <point x="229" y="688"/>
      <point x="290" y="688" type="curve" smooth="yes"/>
      <point x="411" y="688"/>
      <point x="456" y="625"/>
      <point x="456" y="499" type="curve" smooth="yes"/>
      <point x="456" y="397"/>
      <point x="425" y="306"/>
      <point x="283" y="306" type="curve" smooth="yes"/>
      <point x="197" y="306" type="line"/>
      <point x="197" y="306"/>
      <point x="197" y="286"/>
      <point x="197" y="286" type="curve"/>
      <point x="293" y="286" type="line" smooth="yes"/>
      <point x="500" y="286"/>
      <point x="556" y="413"/>
      <point x="556" y="510" type="curve" smooth="yes"/>
      <point x="556" y="626"/>
      <point x="476" y="707"/>
      <point x="315" y="707" type="curve" smooth="yes"/>
      <point x="291" y="707"/>
      <point x="227" y="705"/>
      <point x="164" y="705" type="curve" smooth="yes"/>
      <point x="120" y="705"/>
      <point x="70" y="706"/>
      <point x="42" y="708" type="curve"/>
    </contour>
    <contour>
      <point x="170" y="0" type="move" name="bottom"/>
    </contour>
    <contour>
      <point x="309" y="708" type="move" name="top"/>
    </contour>
  </outline>
</glyph>
<glyph name="Q" format="1">
  <advance width="741"/>
  <unicode hex="0051"/>
  <outline>
    <contour>
      <point x="718" y="-83"/>
      <point x="667" y="-110"/>
      <point x="571" y="-110" type="curve" smooth="yes"/>
      <point x="493" y="-110"/>
      <point x="354" y="-82"/>
      <point x="254" y="-62" type="curve"/>
      <point x="313" y="-45"/>
      <point x="342" y="-20"/>
      <point x="402" y="-13" type="curve"/>
      <point x="401" y="3" type="line"/>
      <point x="322" y="-4"/>
      <point x="290" y="-38"/>
      <point x="219" y="-57" type="curve"/>
      <point x="194" y="-52"/>
      <point x="166" y="-49"/>
      <point x="144" y="-49" type="curve" smooth="yes"/>
      <point x="107" y="-49"/>
      <point x="90" y="-57"/>
      <point x="90" y="-70" type="curve" smooth="yes"/>
      <point x="90" y="-84"/>
      <point x="109" y="-90"/>
      <point x="136" y="-90" type="curve" smooth="yes"/>
      <point x="162" y="-90"/>
      <point x="193" y="-84"/>
      <point x="219" y="-75" type="curve"/>
      <point x="225" y="-77"/>
      <point x="234" y="-79"/>
      <point x="243" y="-82" type="curve" smooth="yes"/>
      <point x="371" y="-125"/>
      <point x="459" y="-188"/>
      <point x="565" y="-188" type="curve" smooth="yes"/>
      <point x="633" y="-188"/>
      <point x="675" y="-166"/>
      <point x="700" y="-143" type="curve" smooth="yes"/>
      <point x="726" y="-119"/>
      <point x="747" y="-84"/>
      <point x="763" y="-29" type="curve"/>
      <point x="748" y="-23" type="line"/>
    </contour>
    <component base="O"/>
    <contour>
      <point x="379" y="708" type="move" name="top"/>
    </contour>
  </outline>
</glyph>
<glyph name="R" format="1">
  <advance width="648"/>
  <unicode hex="0052"/>
  <outline>
    <contour>
      <point x="42" y="688" type="line"/>
      <point x="110" y="685"/>
      <point x="123" y="675"/>
      <point x="123" y="602" type="curve" smooth="yes"/>
      <point x="123" y="106" type="line" smooth="yes"/>
      <point x="123" y="33"/>
      <point x="110" y="23"/>
      <point x="42" y="20" type="curve"/>
      <point x="42" y="0" type="line"/>
      <point x="70" y="2"/>
      <point x="118" y="3"/>
      <point x="170" y="3" type="curve" smooth="yes"/>
      <point x="216" y="3"/>
      <point x="266" y="2"/>
      <point x="297" y="0" type="curve"/>
      <point x="297" y="20" type="line"/>
      <point x="229" y="23"/>
      <point x="216" y="33"/>
      <point x="216" y="106" type="curve" smooth="yes"/>
      <point x="216" y="602" type="line" smooth="yes"/>
      <point x="216" y="671"/>
      <point x="229" y="688"/>
      <point x="290" y="688" type="curve" smooth="yes"/>
      <point x="411" y="688"/>
      <point x="456" y="627"/>
      <point x="456" y="522" type="curve" smooth="yes"/>
      <point x="456" y="430"/>
      <point x="425" y="356"/>
      <point x="283" y="356" type="curve" smooth="yes"/>
      <point x="197" y="356" type="line"/>
      <point x="197" y="356"/>
      <point x="197" y="336"/>
      <point x="197" y="336" type="curve"/>
      <point x="293" y="336" type="line" smooth="yes"/>
      <point x="500" y="336"/>
      <point x="556" y="454"/>
      <point x="556" y="533" type="curve" smooth="yes"/>
      <point x="556" y="631"/>
      <point x="476" y="707"/>
      <point x="315" y="707" type="curve" smooth="yes"/>
      <point x="291" y="707"/>
      <point x="227" y="705"/>
      <point x="164" y="705" type="curve" smooth="yes"/>
      <point x="120" y="705"/>
      <point x="70" y="706"/>
      <point x="42" y="708" type="curve"/>
    </contour>
    <contour>
      <point x="203" y="336" type="line"/>
      <point x="311" y="336" type="line" smooth="yes"/>
      <point x="390" y="336"/>
      <point x="405" y="279"/>
      <point x="424" y="194" type="curve" smooth="yes"/>
      <point x="446" y="94" type="line" smooth="yes"/>
      <point x="465" y="9"/>
      <point x="503" y="-14"/>
      <point x="553" y="-14" type="curve" smooth="yes"/>
      <point x="607" y="-14"/>
      <point x="632" y="9"/>
      <point x="660" y="50" type="curve"/>
      <point x="645" y="61" type="line"/>
      <point x="627" y="38"/>
      <point x="615" y="24"/>
      <point x="592" y="23" type="curve" smooth="yes"/>
      <point x="563" y="22"/>
      <point x="552" y="46"/>
      <point x="539" y="105" type="curve" smooth="yes"/>
      <point x="514" y="207" type="line" smooth="yes"/>
      <point x="495" y="290"/>
      <point x="463" y="324"/>
      <point x="374" y="339" type="curve" smooth="yes"/>
      <point x="337" y="345"/>
      <point x="308" y="348"/>
      <point x="201" y="353" type="curve"/>
    </contour>
    <contour>
      <point x="337" y="0" type="move" name="bottom"/>
    </contour>
    <contour>
      <point x="296" y="708" type="move" name="top"/>
    </contour>
  </outline>
</glyph>
<glyph name="T" format="1">
  <advance width="621"/>
  <unicode hex="0054"/>
  <outline>
    <contour>
      <point x="509" y="705"/>
      <point x="393" y="705"/>
      <point x="311" y="705" type="curve" smooth="yes"/>
      <point x="229" y="705"/>
      <point x="112" y="705"/>
      <point x="29" y="708" type="curve"/>
      <point x="34" y="657"/>
      <point x="36" y="605"/>
      <point x="36" y="580" type="curve" smooth="yes"/>
      <point x="36" y="548"/>
      <point x="35" y="519"/>
      <point x="33" y="498" type="curve"/>
      <point x="56" y="498" type="line"/>
      <point x="70" y="637"/>
      <point x="85" y="685"/>
      <point x="210" y="685" type="curve" smooth="yes"/>
      <point x="264" y="685" type="line"/>
      <point x="264" y="116" type="line" smooth="yes"/>
      <point x="264" y="35"/>
      <point x="247" y="23"/>
      <point x="163" y="20" type="curve"/>
      <point x="163" y="0" type="line"/>
      <point x="195" y="2"/>
      <point x="251" y="3"/>
      <point x="311" y="3" type="curve" smooth="yes"/>
      <point x="365" y="3"/>
      <point x="423" y="2"/>
      <point x="458" y="0" type="curve"/>
      <point x="458" y="20" type="line"/>
      <point x="374" y="23"/>
      <point x="357" y="35"/>
      <point x="357" y="116" type="curve" smooth="yes"/>
      <point x="357" y="685" type="line"/>
      <point x="411" y="685" type="line" smooth="yes"/>
      <point x="536" y="685"/>
      <point x="551" y="637"/>
      <point x="565" y="498" type="curve"/>
      <point x="588" y="498" type="line"/>
      <point x="586" y="519"/>
      <point x="585" y="548"/>
      <point x="585" y="580" type="curve" smooth="yes"/>
      <point x="585" y="605"/>
      <point x="587" y="657"/>
      <point x="592" y="708" type="curve"/>
    </contour>
    <contour>
      <point x="311" y="354" type="move" name="center"/>
    </contour>
    <contour>
      <point x="311" y="0" type="move" name="bottom"/>
    </contour>
    <contour>
      <point x="311" y="708" type="move" name="top"/>
    </contour>
  </outline>
</glyph>
<glyph name="V" format="1">
  <advance width="630"/>
  <unicode hex="0056"/>
  <outline>
    <contour>
      <point x="617" y="706"/>
      <point x="596" y="705"/>
      <point x="562" y="705" type="curve" smooth="yes"/>
      <point x="527" y="705"/>
      <point x="485" y="706"/>
      <point x="447" y="708" type="curve"/>
      <point x="447" y="688" type="line"/>
      <point x="531" y="686"/>
      <point x="556" y="654"/>
      <point x="514" y="546" type="curve" smooth="yes"/>
      <point x="340" y="94" type="line"/>
      <point x="356" y="111" type="line"/>
      <point x="170" y="604" type="line" smooth="yes"/>
      <point x="144" y="672"/>
      <point x="161" y="685"/>
      <point x="229" y="688" type="curve"/>
      <point x="229" y="708" type="line"/>
      <point x="201" y="706"/>
      <point x="153" y="705"/>
      <point x="101" y="705" type="curve" smooth="yes"/>
      <point x="63" y="705"/>
      <point x="21" y="706"/>
      <point x="-6" y="708" type="curve"/>
      <point x="-6" y="688" type="line"/>
      <point x="15" y="687"/>
      <point x="43" y="675"/>
      <point x="63" y="624" type="curve" smooth="yes"/>
      <point x="307" y="-5" type="line"/>
      <point x="310" y="-5"/>
      <point x="312" y="-5"/>
      <point x="315" y="-5" type="curve"/>
      <point x="318" y="-5"/>
      <point x="320" y="-5"/>
      <point x="323" y="-5" type="curve"/>
      <point x="558" y="601" type="line" smooth="yes"/>
      <point x="581" y="661"/>
      <point x="611" y="682"/>
      <point x="637" y="688" type="curve"/>
      <point x="637" y="708" type="line"/>
    </contour>
  </outline>
</glyph>
<glyph name="W" format="1">
  <advance width="905"/>
  <unicode hex="0057"/>
  <outline>
    <contour>
      <point x="887" y="706"/>
      <point x="866" y="705"/>
      <point x="832" y="705" type="curve" smooth="yes"/>
      <point x="797" y="705"/>
      <point x="755" y="706"/>
      <point x="717" y="708" type="curve"/>
      <point x="717" y="688" type="line"/>
      <point x="801" y="686"/>
      <point x="821" y="656"/>
      <point x="786" y="546" type="curve" smooth="yes"/>
      <point x="654" y="131" type="line"/>
      <point x="668" y="143" type="line"/>
      <point x="519" y="604" type="line" smooth="yes"/>
      <point x="494" y="681"/>
      <point x="516" y="685"/>
      <point x="577" y="688" type="curve"/>
      <point x="577" y="708" type="line"/>
      <point x="549" y="706"/>
      <point x="501" y="705"/>
      <point x="449" y="705" type="curve" smooth="yes"/>
      <point x="415" y="705"/>
      <point x="376" y="706"/>
      <point x="352" y="708" type="curve"/>
      <point x="352" y="688" type="line"/>
      <point x="370" y="687"/>
      <point x="394" y="676"/>
      <point x="411" y="624" type="curve" smooth="yes"/>
      <point x="623" y="-5" type="line"/>
      <point x="626" y="-5"/>
      <point x="628" y="-5"/>
      <point x="631" y="-5" type="curve"/>
      <point x="634" y="-5"/>
      <point x="636" y="-5"/>
      <point x="639" y="-5" type="curve"/>
      <point x="828" y="601" type="line" smooth="yes"/>
      <point x="847" y="662"/>
      <point x="881" y="682"/>
      <point x="907" y="688" type="curve"/>
      <point x="907" y="708" type="line"/>
    </contour>
    <contour>
      <point x="184" y="706"/>
      <point x="144" y="705"/>
      <point x="100" y="705" type="curve" smooth="yes"/>
      <point x="62" y="705"/>
      <point x="20" y="706"/>
      <point x="-7" y="708" type="curve"/>
      <point x="-7" y="688" type="line"/>
      <point x="14" y="687"/>
      <point x="44" y="676"/>
      <point x="62" y="624" type="curve" smooth="yes"/>
      <point x="274" y="-5" type="line"/>
      <point x="277" y="-5"/>
      <point x="279" y="-5"/>
      <point x="282" y="-5" type="curve"/>
      <point x="285" y="-5"/>
      <point x="287" y="-5"/>
      <point x="290" y="-5" type="curve"/>
      <point x="455" y="529" type="line"/>
      <point x="440" y="553" type="line"/>
      <point x="300" y="106" type="line"/>
      <point x="325" y="131" type="line"/>
      <point x="170" y="604" type="line" smooth="yes"/>
      <point x="150" y="665"/>
      <point x="155" y="684"/>
      <point x="208" y="688" type="curve"/>
      <point x="208" y="708" type="line"/>
    </contour>
    <contour>
      <point x="464" y="708" type="move" name="top"/>
    </contour>
  </outline>
</glyph>
<glyph name="X" format="1">
  <advance width="634"/>
  <unicode hex="0058"/>
  <outline>
    <contour>
      <point x="207" y="706"/>
      <point x="157" y="704"/>
      <point x="103" y="704" type="curve" smooth="yes"/>
      <point x="69" y="704"/>
      <point x="34" y="707"/>
      <point x="17" y="708" type="curve"/>
      <point x="17" y="687" type="line"/>
      <point x="47" y="685"/>
      <point x="59" y="676"/>
      <point x="84" y="637" type="curve" smooth="yes"/>
      <point x="464" y="55" type="line" smooth="yes"/>
      <point x="483" y="26"/>
      <point x="466" y="21"/>
      <point x="400" y="21" type="curve"/>
      <point x="400" y="0" type="line"/>
      <point x="427" y="1"/>
      <point x="487" y="4"/>
      <point x="541" y="4" type="curve" smooth="yes"/>
      <point x="575" y="4"/>
      <point x="610" y="1"/>
      <point x="627" y="0" type="curve"/>
      <point x="627" y="21" type="line"/>
      <point x="597" y="23"/>
      <point x="585" y="32"/>
      <point x="560" y="71" type="curve" smooth="yes"/>
      <point x="186" y="643" type="line" smooth="yes"/>
      <point x="167" y="673"/>
      <point x="177" y="687"/>
      <point x="244" y="687" type="curve"/>
      <point x="244" y="708" type="line"/>
    </contour>
    <contour>
      <point x="129" y="112" type="line" smooth="yes"/>
      <point x="92" y="57"/>
      <point x="57" y="26"/>
      <point x="16" y="20" type="curve"/>
      <point x="16" y="0" type="line"/>
      <point x="36" y="2"/>
      <point x="67" y="3"/>
      <point x="101" y="3" type="curve" smooth="yes"/>
      <point x="136" y="3"/>
      <point x="198" y="2"/>
      <point x="236" y="0" type="curve"/>
      <point x="236" y="20" type="line"/>
      <point x="152" y="22"/>
      <point x="113" y="48"/>
      <point x="185" y="156" type="curve" smooth="yes"/>
      <point x="308" y="339" type="line"/>
      <point x="308" y="339"/>
      <point x="299" y="365"/>
      <point x="299" y="365" type="curve"/>
    </contour>
    <contour>
      <point x="586" y="706"/>
      <point x="555" y="705"/>
      <point x="521" y="705" type="curve" smooth="yes"/>
      <point x="486" y="705"/>
      <point x="444" y="706"/>
      <point x="406" y="708" type="curve"/>
      <point x="406" y="688" type="line"/>
      <point x="490" y="686"/>
      <point x="512" y="660"/>
      <point x="440" y="552" type="curve" smooth="yes"/>
      <point x="326" y="382" type="line"/>
      <point x="326" y="382"/>
      <point x="332" y="356"/>
      <point x="332" y="356" type="curve"/>
      <point x="493" y="596" type="line" smooth="yes"/>
      <point x="530" y="651"/>
      <point x="565" y="682"/>
      <point x="606" y="688" type="curve"/>
      <point x="606" y="708" type="line"/>
    </contour>
  </outline>
</glyph>
<glyph name="Y" format="1">
  <advance width="591"/>
  <unicode hex="0059"/>
  <outline>
    <contour>
      <point x="568" y="706"/>
      <point x="547" y="705"/>
      <point x="513" y="705" type="curve" smooth="yes"/>
      <point x="478" y="705"/>
      <point x="436" y="706"/>
      <point x="398" y="708" type="curve"/>
      <point x="398" y="688" type="line"/>
      <point x="482" y="686"/>
      <point x="514" y="659"/>
      <point x="459" y="549" type="curve" smooth="yes"/>
      <point x="326" y="284" type="line"/>
      <point x="334" y="290" type="line"/>
      <point x="165" y="614" type="line" smooth="yes"/>
      <point x="135" y="672"/>
      <point x="175" y="687"/>
      <point x="225" y="687" type="curve"/>
      <point x="225" y="708" type="line"/>
      <point x="182" y="705"/>
      <point x="129" y="705"/>
      <point x="85" y="705" type="curve" smooth="yes"/>
      <point x="51" y="705"/>
      <point x="23" y="706"/>
      <point x="-3" y="708" type="curve"/>
      <point x="-3" y="687" type="line"/>
      <point x="11" y="687"/>
      <point x="28" y="680"/>
      <point x="55" y="631" type="curve" smooth="yes"/>
      <point x="289" y="199" type="line"/>
      <point x="306" y="199" type="line"/>
      <point x="508" y="599" type="line" smooth="yes"/>
      <point x="538" y="658"/>
      <point x="562" y="682"/>
      <point x="588" y="688" type="curve"/>
      <point x="588" y="708" type="line"/>
    </contour>
    <contour>
      <point x="312" y="249" type="line"/>
      <point x="258" y="311" type="line"/>
      <point x="258" y="106" type="line" smooth="yes"/>
      <point x="258" y="33"/>
      <point x="245" y="23"/>
      <point x="177" y="20" type="curve"/>
      <point x="177" y="0" type="line"/>
      <point x="205" y="2"/>
      <point x="253" y="3"/>
      <point x="305" y="3" type="curve" smooth="yes"/>
      <point x="351" y="3"/>
      <point x="401" y="2"/>
      <point x="432" y="0" type="curve"/>
      <point x="432" y="20" type="line"/>
      <point x="364" y="23"/>
      <point x="351" y="33"/>
      <point x="351" y="106" type="curve" smooth="yes"/>
      <point x="351" y="304" type="line"/>
    </contour>
    <contour>
      <point x="304" y="708" type="move" name="top"/>
    </contour>
  </outline>
</glyph>
<glyph name="Z" format="1">
  <advance width="594"/>
  <unicode hex="005A"/>
  <outline>
    <contour>
      <point x="477" y="705"/>
      <point x="383" y="705"/>
      <point x="307" y="705" type="curve" smooth="yes"/>
      <point x="234" y="705"/>
      <point x="132" y="705"/>
      <point x="58" y="708" type="curve"/>
      <point x="63" y="657"/>
      <point x="65" y="605"/>
      <point x="65" y="580" type="curve" smooth="yes"/>
      <point x="65" y="548"/>
      <point x="64" y="519"/>
      <point x="62" y="498" type="curve"/>
      <point x="85" y="498" type="line"/>
      <point x="99" y="637"/>
      <point x="124" y="685"/>
      <point x="249" y="685" type="curve" smooth="yes"/>
      <point x="459" y="685" type="line"/>
      <point x="42" y="20" type="line"/>
      <point x="42" y="0" type="line"/>
      <point x="118" y="3"/>
      <point x="210" y="3"/>
      <point x="289" y="3" type="curve" smooth="yes"/>
      <point x="362" y="3"/>
      <point x="464" y="3"/>
      <point x="538" y="0" type="curve"/>
      <point x="533" y="51"/>
      <point x="531" y="103"/>
      <point x="531" y="128" type="curve" smooth="yes"/>
      <point x="531" y="160"/>
      <point x="532" y="189"/>
      <point x="534" y="210" type="curve"/>
      <point x="511" y="210" type="line"/>
      <point x="497" y="71"/>
      <point x="472" y="23"/>
      <point x="347" y="23" type="curve" smooth="yes"/>
      <point x="136" y="23" type="line"/>
      <point x="550" y="688" type="line"/>
      <point x="550" y="708" type="line"/>
    </contour>
    <contour>
      <point x="299" y="0" type="move" name="bottom"/>
    </contour>
    <contour>
      <point x="295" y="708" type="move" name="top"/>
    </contour>
  </outline>
</glyph>
<glyph name="bracketleft" format="1">
  <advance width="296"/>
  <unicode hex="005B"/>
  <outline>
    <contour>
      <point x="263" y="772" type="line"/>
      <point x="92" y="772" type="line"/>
      <point x="92" y="-181" type="line"/>
      <point x="263" y="-181" type="line"/>
      <point x="263" y="-162" type="line"/>
      <point x="182" y="-162" type="line"/>
      <point x="182" y="753" type="line"/>
      <point x="263" y="753" type="line"/>
    </contour>
  </outline>
</glyph>
<glyph name="a" format="1">
  <advance width="498"/>
  <unicode hex="0061"/>
  <outline>
    <contour>
      <point x="163" y="-7" type="curve" smooth="yes"/>
      <point x="221" y="-7"/>
      <point x="277" y="11"/>
      <point x="320" y="82" type="curve"/>
      <point x="320" y="35"/>
      <point x="336" y="-7"/>
      <point x="406" y="-7" type="curve" smooth="yes"/>
      <point x="448" y="-7"/>
      <point x="469" y="9"/>
      <point x="497" y="30" type="curve"/>
      <point x="486" y="47" type="line"/>
      <point x="472" y="35"/>
      <point x="459" y="26"/>
      <point x="441" y="26" type="curve" smooth="yes"/>
      <point x="418" y="26"/>
      <point x="410" y="41"/>
      <point x="410" y="73" type="curve" smooth="yes"/>
      <point x="410" y="351" type="line" smooth="yes"/>
      <point x="410" y="415"/>
      <point x="403" y="460"/>
      <point x="368" y="492" type="curve" smooth="yes"/>
      <point x="342" y="516"/>
      <point x="305" y="529"/>
      <point x="250" y="529" type="curve" smooth="yes"/>
      <point x="188" y="529"/>
      <point x="138" y="511"/>
      <point x="108" y="490" type="curve" smooth="yes"/>
      <point x="81" y="471"/>
      <point x="62" y="452"/>
      <point x="62" y="418" type="curve" smooth="yes"/>
      <point x="62" y="387"/>
      <point x="79" y="358"/>
      <point x="118" y="358" type="curve" smooth="yes"/>
      <point x="151" y="358"/>
      <point x="175" y="378"/>
      <point x="175" y="412" type="curve" smooth="yes"/>
      <point x="175" y="445"/>
      <point x="153" y="467"/>
      <point x="128" y="473" type="curve"/>
      <point x="151" y="502"/>
      <point x="193" y="509"/>
      <point x="227" y="509" type="curve" smooth="yes"/>
      <point x="279" y="509"/>
      <point x="320" y="492"/>
      <point x="320" y="408" type="curve" smooth="yes"/>
      <point x="320" y="346" type="line" smooth="yes"/>
      <point x="320" y="253"/>
      <point x="39" y="279"/>
      <point x="39" y="112" type="curve" smooth="yes"/>
      <point x="39" y="40"/>
      <point x="76" y="-7"/>
    </contour>
    <contour>
      <point x="207" y="33" type="curve" smooth="yes"/>
      <point x="161" y="33"/>
      <point x="127" y="62"/>
      <point x="127" y="124" type="curve" smooth="yes"/>
      <point x="127" y="254"/>
      <point x="280" y="247"/>
      <point x="320" y="305" type="curve"/>
      <point x="320" y="109" type="line"/>
      <point x="286" y="54"/>
      <point x="247" y="33"/>
    </contour>
    <contour>
      <point x="249" y="0" type="move" name="bottom"/>
    </contour>
    <contour>
      <point x="455" y="0" type="move" name="ogonek"/>
    </contour>
    <contour>
      <point x="246" y="514" type="move" name="top"/>
    </contour>
  </outline>
</glyph>
<glyph name="b" format="1">
  <advance width="563"/>
  <unicode hex="0062"/>
  <outline>
    <contour>
      <point x="237" y="529"/>
      <point x="165" y="463"/>
      <point x="151" y="350" type="curve"/>
      <point x="163" y="336" type="line"/>
      <point x="175" y="443"/>
      <point x="236" y="499"/>
      <point x="297" y="499" type="curve" smooth="yes"/>
      <point x="380" y="499"/>
      <point x="419" y="419"/>
      <point x="419" y="257" type="curve" smooth="yes"/>
      <point x="419" y="87"/>
      <point x="374" y="9"/>
      <point x="285" y="9" type="curve" smooth="yes"/>
      <point x="233" y="9"/>
      <point x="180" y="35"/>
      <point x="147" y="88" type="curve"/>
      <point x="127" y="99" type="line"/>
      <point x="158" y="24"/>
      <point x="226" y="-14"/>
      <point x="293" y="-14" type="curve" smooth="yes"/>
      <point x="413" y="-14"/>
      <point x="516" y="77"/>
      <point x="516" y="257" type="curve" smooth="yes"/>
      <point x="516" y="439"/>
      <point x="435" y="529"/>
      <point x="326" y="529" type="curve" smooth="yes"/>
    </contour>
    <contour>
      <point x="141" y="773"/>
      <point x="105" y="769"/>
      <point x="66" y="769" type="curve" smooth="yes"/>
      <point x="46" y="769"/>
      <point x="25" y="770"/>
      <point x="4" y="772" type="curve"/>
      <point x="4" y="751" type="line"/>
      <point x="62" y="751"/>
      <point x="80" y="723"/>
      <point x="80" y="663" type="curve" smooth="yes"/>
      <point x="80" y="49" type="line" smooth="yes"/>
      <point x="80" y="29"/>
      <point x="78" y="9"/>
      <point x="73" y="-9" type="curve"/>
      <point x="90" y="-16" type="line"/>
      <point x="117" y="7"/>
      <point x="143" y="29"/>
      <point x="170" y="52" type="curve"/>
      <point x="170" y="783" type="line"/>
    </contour>
  </outline>
</glyph>
<glyph name="c" format="1">
  <advance width="486"/>
  <unicode hex="0063"/>
  <outline>
    <contour>
      <point x="142" y="529"/>
      <point x="46" y="415"/>
      <point x="46" y="251" type="curve" smooth="yes"/>
      <point x="46" y="86"/>
      <point x="143" y="-14"/>
      <point x="267" y="-14" type="curve" smooth="yes"/>
      <point x="374" y="-14"/>
      <point x="431" y="60"/>
      <point x="451" y="125" type="curve"/>
      <point x="432" y="132" type="line"/>
      <point x="397" y="56"/>
      <point x="339" y="29"/>
      <point x="287" y="29" type="curve" smooth="yes"/>
      <point x="210" y="29"/>
      <point x="143" y="89"/>
      <point x="143" y="266" type="curve" smooth="yes"/>
      <point x="143" y="455"/>
      <point x="220" y="511"/>
      <point x="286" y="511" type="curve" smooth="yes"/>
      <point x="324" y="511"/>
      <point x="363" y="493"/>
      <point x="376" y="469" type="curve"/>
      <point x="353" y="463"/>
      <point x="334" y="444"/>
      <point x="334" y="414" type="curve" smooth="yes"/>
      <point x="334" y="382"/>
      <point x="359" y="364"/>
      <point x="389" y="364" type="curve" smooth="yes"/>
      <point x="419" y="364"/>
      <point x="442" y="384"/>
      <point x="442" y="420" type="curve" smooth="yes"/>
      <point x="442" y="450"/>
      <point x="425" y="477"/>
      <point x="395" y="497" type="curve" smooth="yes"/>
      <point x="363" y="518"/>
      <point x="321" y="529"/>
      <point x="279" y="529" type="curve" smooth="yes"/>
    </contour>
    <contour>
      <point x="268" y="0" type="move" name="bottom"/>
    </contour>
    <contour>
      <point x="263" y="514" type="move" name="top"/>
    </contour>
  </outline>
</glyph>
<glyph name="d" format="1">
  <advance width="581"/>
  <unicode hex="0064"/>
  <outline>
    <contour>
      <point x="455" y="774"/>
      <point x="419" y="770"/>
      <point x="380" y="770" type="curve" smooth="yes"/>
      <point x="360" y="770"/>
      <point x="339" y="771"/>
      <point x="318" y="773" type="curve"/>
      <point x="318" y="752" type="line"/>
      <point x="376" y="752"/>
      <point x="394" y="724"/>
      <point x="394" y="664" type="curve" smooth="yes"/>
      <point x="394" y="-11" type="line"/>
      <point x="423" y="-1"/>
      <point x="459" y="3"/>
      <point x="498" y="3" type="curve" smooth="yes"/>
      <point x="518" y="3"/>
      <point x="539" y="2"/>
      <point x="560" y="0" type="curve"/>
      <point x="560" y="21" type="line"/>
      <point x="502" y="21"/>
      <point x="484" y="49"/>
      <point x="484" y="109" type="curve" smooth="yes"/>
      <point x="484" y="784" type="line"/>
    </contour>
    <contour>
      <point x="154" y="529"/>
      <point x="47" y="439"/>
      <point x="48" y="257" type="curve" smooth="yes"/>
      <point x="47" y="75"/>
      <point x="127" y="-14"/>
      <point x="252" y="-14" type="curve" smooth="yes"/>
      <point x="344" y="-14"/>
      <point x="399" y="43"/>
      <point x="410" y="144" type="curve"/>
      <point x="398" y="158" type="line"/>
      <point x="389" y="65"/>
      <point x="337" y="16"/>
      <point x="281" y="16" type="curve" smooth="yes"/>
      <point x="192" y="16"/>
      <point x="144" y="95"/>
      <point x="145" y="257" type="curve" smooth="yes"/>
      <point x="144" y="426"/>
      <point x="203" y="506"/>
      <point x="282" y="506" type="curve" smooth="yes"/>
      <point x="335" y="506"/>
      <point x="376" y="482"/>
      <point x="395" y="426" type="curve"/>
      <point x="408" y="436" type="line"/>
      <point x="390" y="504"/>
      <point x="332" y="529"/>
      <point x="274" y="529" type="curve" smooth="yes"/>
    </contour>
    <contour>
      <point x="560" y="608" type="move" name="bar-right"/>
    </contour>
    <contour>
      <point x="291" y="257" type="move" name="center"/>
    </contour>
  </outline>
</glyph>
<glyph name="e" format="1">
  <advance width="506"/>
  <unicode hex="0065"/>
  <outline>
    <contour>
      <point x="135" y="529"/>
      <point x="46" y="421"/>
      <point x="46" y="245" type="curve" smooth="yes"/>
      <point x="46" y="92"/>
      <point x="131" y="-14"/>
      <point x="276" y="-14" type="curve" smooth="yes"/>
      <point x="375" y="-14"/>
      <point x="441" y="53"/>
      <point x="463" y="120" type="curve"/>
      <point x="443" y="128" type="line"/>
      <point x="408" y="53"/>
      <point x="356" y="28"/>
      <point x="296" y="28" type="curve" smooth="yes"/>
      <point x="219" y="28"/>
      <point x="143" y="108"/>
      <point x="143" y="245" type="curve" smooth="yes"/>
      <point x="143" y="269"/>
      <point x="144" y="294"/>
      <point x="147" y="314" type="curve"/>
      <point x="144" y="318" type="line"/>
      <point x="153" y="451"/>
      <point x="207" y="510"/>
      <point x="268" y="510" type="curve" smooth="yes"/>
      <point x="335" y="510"/>
      <point x="366" y="426"/>
      <point x="363" y="328" type="curve"/>
      <point x="105" y="328" type="line"/>
      <point x="105" y="328"/>
      <point x="106" y="309"/>
      <point x="106" y="309" type="curve"/>
      <point x="459" y="309" type="line"/>
      <point x="459" y="460"/>
      <point x="389" y="529"/>
      <point x="272" y="529" type="curve" smooth="yes"/>
    </contour>
    <contour>
      <point x="279" y="0" type="move" name="bottom"/>
    </contour>
    <contour>
      <point x="356" y="0" type="move" name="ogonek"/>
    </contour>
    <contour>
      <point x="271" y="514" type="move" name="top"/>
    </contour>
  </outline>
</glyph>
<glyph name="f" format="1">
  <advance width="332"/>
  <unicode hex="0066"/>
  <outline>
    <contour>
      <point x="227" y="782"/>
      <point x="183" y="763"/>
      <point x="157" y="732" type="curve" smooth="yes"/>
      <point x="119" y="687"/>
      <point x="106" y="632"/>
      <point x="106" y="514" type="curve"/>
      <point x="26" y="514" type="line"/>
      <point x="26" y="494" type="line"/>
      <point x="106" y="494" type="line"/>
      <point x="106" y="93" type="line" smooth="yes"/>
      <point x="106" y="37"/>
      <point x="85" y="21"/>
      <point x="30" y="21" type="curve"/>
      <point x="30" y="0" type="line"/>
      <point x="53" y="1"/>
      <point x="102" y="4"/>
      <point x="148" y="4" type="curve" smooth="yes"/>
      <point x="210" y="4"/>
      <point x="271" y="1"/>
      <point x="302" y="0" type="curve"/>
      <point x="302" y="21" type="line"/>
      <point x="236" y="21"/>
      <point x="196" y="38"/>
      <point x="196" y="103" type="curve" smooth="yes"/>
      <point x="196" y="494" type="line"/>
      <point x="303" y="494" type="line"/>
      <point x="303" y="514" type="line"/>
      <point x="196" y="514" type="line"/>
      <point x="196" y="540" type="line" smooth="yes"/>
      <point x="196" y="654"/>
      <point x="198" y="702"/>
      <point x="214" y="730" type="curve" smooth="yes"/>
      <point x="226" y="752"/>
      <point x="248" y="767"/>
      <point x="279" y="767" type="curve" smooth="yes"/>
      <point x="307" y="767"/>
      <point x="324" y="757"/>
      <point x="328" y="745" type="curve"/>
      <point x="303" y="740"/>
      <point x="286" y="722"/>
      <point x="286" y="694" type="curve" smooth="yes"/>
      <point x="286" y="660"/>
      <point x="311" y="640"/>
      <point x="341" y="640" type="curve" smooth="yes"/>
      <point x="372" y="640"/>
      <point x="394" y="662"/>
      <point x="394" y="693" type="curve" smooth="yes"/>
      <point x="394" y="717"/>
      <point x="383" y="739"/>
      <point x="363" y="755" type="curve" smooth="yes"/>
      <point x="342" y="771"/>
      <point x="313" y="782"/>
      <point x="276" y="782" type="curve" smooth="yes"/>
    </contour>
  </outline>
</glyph>
<glyph name="g" format="1">
  <advance width="528"/>
  <unicode hex="0067"/>
  <outline>
    <contour>
      <point x="213" y="-188" type="curve" smooth="yes"/>
      <point x="389" y="-188"/>
      <point x="480" y="-102"/>
      <point x="480" y="-8" type="curve" smooth="yes"/>
      <point x="480" y="76"/>
      <point x="406" y="110"/>
      <point x="323" y="110" type="curve" smooth="yes"/>
      <point x="198" y="110" type="line" smooth="yes"/>
      <point x="165" y="110"/>
      <point x="150" y="121"/>
      <point x="150" y="142" type="curve" smooth="yes"/>
      <point x="150" y="175"/>
      <point x="189" y="198"/>
      <point x="234" y="222" type="curve"/>
      <point x="222" y="231" type="line"/>
      <point x="122" y="187"/>
      <point x="91" y="146"/>
      <point x="91" y="101" type="curve" smooth="yes"/>
      <point x="91" y="35"/>
      <point x="157" y="26"/>
      <point x="221" y="26" type="curve" smooth="yes"/>
      <point x="295" y="26" type="line" smooth="yes"/>
      <point x="387" y="26"/>
      <point x="411" y="-6"/>
      <point x="411" y="-50" type="curve" smooth="yes"/>
      <point x="411" y="-139"/>
      <point x="314" y="-171"/>
      <point x="224" y="-171" type="curve" smooth="yes"/>
      <point x="133" y="-171"/>
      <point x="71" y="-138"/>
      <point x="71" y="-76" type="curve" smooth="yes"/>
      <point x="71" y="-41"/>
      <point x="90" y="-11"/>
      <point x="119" y="-1" type="curve"/>
      <point x="113" y="15" type="line"/>
      <point x="49" y="-3"/>
      <point x="9" y="-36"/>
      <point x="9" y="-83" type="curve" smooth="yes"/>
      <point x="9" y="-156"/>
      <point x="106" y="-188"/>
    </contour>
    <contour>
      <point x="218" y="213" type="curve" smooth="yes"/>
      <point x="317" y="213"/>
      <point x="393" y="261"/>
      <point x="393" y="371" type="curve" smooth="yes"/>
      <point x="393" y="481"/>
      <point x="317" y="529"/>
      <point x="218" y="529" type="curve" smooth="yes"/>
      <point x="119" y="529"/>
      <point x="43" y="481"/>
      <point x="43" y="371" type="curve" smooth="yes"/>
      <point x="43" y="261"/>
      <point x="119" y="213"/>
    </contour>
    <contour>
      <point x="218" y="231" type="curve" smooth="yes"/>
      <point x="168" y="231"/>
      <point x="137" y="264"/>
      <point x="137" y="371" type="curve" smooth="yes"/>
      <point x="137" y="478"/>
      <point x="168" y="511"/>
      <point x="218" y="511" type="curve" smooth="yes"/>
      <point x="268" y="511"/>
      <point x="299" y="478"/>
      <point x="299" y="371" type="curve" smooth="yes"/>
      <point x="299" y="264"/>
      <point x="268" y="231"/>
    </contour>
    <contour>
      <point x="362" y="446" type="line"/>
      <point x="382" y="483"/>
      <point x="399" y="504"/>
      <point x="455" y="525" type="curve"/>
      <point x="442" y="528" type="line"/>
      <point x="409" y="455"/>
      <point x="440" y="425"/>
      <point x="471" y="425" type="curve" smooth="yes"/>
      <point x="493" y="425"/>
      <point x="521" y="440"/>
      <point x="521" y="481" type="curve" smooth="yes"/>
      <point x="521" y="519"/>
      <point x="497" y="539"/>
      <point x="463" y="539" type="curve" smooth="yes"/>
      <point x="414" y="539"/>
      <point x="363" y="498"/>
      <point x="344" y="453" type="curve"/>
    </contour>
    <contour>
      <point x="259" y="-181" type="move" name="bottom"/>
    </contour>
    <contour>
      <point x="239" y="514" type="move" name="top"/>
    </contour>
  </outline>
</glyph>
<glyph name="h" format="1">
  <advance width="588"/>
  <unicode hex="0068"/>
  <outline>
    <contour>
      <point x="157" y="773"/>
      <point x="121" y="769"/>
      <point x="82" y="769" type="curve" smooth="yes"/>
      <point x="62" y="769"/>
      <point x="41" y="770"/>
      <point x="20" y="772" type="curve"/>
      <point x="20" y="751" type="line"/>
      <point x="78" y="751"/>
      <point x="96" y="723"/>
      <point x="96" y="663" type="curve" smooth="yes"/>
      <point x="96" y="93" type="line" smooth="yes"/>
      <point x="96" y="37"/>
      <point x="75" y="21"/>
      <point x="20" y="21" type="curve"/>
      <point x="20" y="0" type="line"/>
      <point x="43" y="1"/>
      <point x="96" y="4"/>
      <point x="140" y="4" type="curve" smooth="yes"/>
      <point x="184" y="4"/>
      <point x="231" y="1"/>
      <point x="252" y="0" type="curve"/>
      <point x="252" y="21" type="line"/>
      <point x="204" y="21"/>
      <point x="186" y="37"/>
      <point x="186" y="93" type="curve" smooth="yes"/>
      <point x="186" y="316" type="line" smooth="yes"/>
      <point x="186" y="422"/>
      <point x="244" y="497"/>
      <point x="326" y="497" type="curve" smooth="yes"/>
      <point x="398" y="497"/>
      <point x="407" y="444"/>
      <point x="407" y="382" type="curve" smooth="yes"/>
      <point x="407" y="93" type="line" smooth="yes"/>
      <point x="407" y="37"/>
      <point x="389" y="21"/>
      <point x="341" y="21" type="curve"/>
      <point x="341" y="0" type="line"/>
      <point x="362" y="1"/>
      <point x="409" y="4"/>
      <point x="453" y="4" type="curve" smooth="yes"/>
      <point x="497" y="4"/>
      <point x="550" y="1"/>
      <point x="573" y="0" type="curve"/>
      <point x="573" y="21" type="line"/>
      <point x="518" y="21"/>
      <point x="497" y="37"/>
      <point x="497" y="93" type="curve" smooth="yes"/>
      <point x="497" y="360" type="line" smooth="yes"/>
      <point x="497" y="428"/>
      <point x="487" y="464"/>
      <point x="462" y="491" type="curve" smooth="yes"/>
      <point x="439" y="515"/>
      <point x="407" y="529"/>
      <point x="356" y="529" type="curve" smooth="yes"/>
      <point x="288" y="529"/>
      <point x="221" y="499"/>
      <point x="186" y="409" type="curve"/>
      <point x="186" y="783" type="line"/>
    </contour>
    <contour>
      <point x="20" y="608" type="move" name="bar-left"/>
    </contour>
    <contour>
      <point x="294" y="257" type="move" name="center"/>
    </contour>
    <contour>
      <point x="148" y="772" type="move" name="top"/>
    </contour>
  </outline>
</glyph>
<glyph name="i" format="1">
  <advance width="293"/>
  <unicode hex="0069"/>
  <outline>
    <component base="dotaccent" xOffset="44"/>
    <component base="dotlessi"/>
    <contour>
      <point x="260" y="0" type="move" name="right"/>
    </contour>
    <contour>
      <point x="142" y="514" type="move" name="top"/>
    </contour>
  </outline>
</glyph>
<glyph name="k" format="1">
  <advance width="550"/>
  <unicode hex="006B"/>
  <outline>
    <contour>
      <point x="157" y="774"/>
      <point x="121" y="770"/>
      <point x="82" y="770" type="curve" smooth="yes"/>
      <point x="62" y="770"/>
      <point x="41" y="771"/>
      <point x="20" y="773" type="curve"/>
      <point x="20" y="752" type="line"/>
      <point x="78" y="752"/>
      <point x="96" y="724"/>
      <point x="96" y="664" type="curve" smooth="yes"/>
      <point x="96" y="93" type="line" smooth="yes"/>
      <point x="96" y="37"/>
      <point x="75" y="21"/>
      <point x="20" y="21" type="curve"/>
      <point x="20" y="0" type="line"/>
      <point x="43" y="1"/>
      <point x="95" y="4"/>
      <point x="141" y="4" type="curve" smooth="yes"/>
      <point x="183" y="4"/>
      <point x="231" y="1"/>
      <point x="252" y="0" type="curve"/>
      <point x="252" y="21" type="line"/>
      <point x="204" y="21"/>
      <point x="186" y="37"/>
      <point x="186" y="93" type="curve" smooth="yes"/>
      <point x="186" y="784" type="line"/>
    </contour>
    <contour>
      <point x="484" y="513"/>
      <point x="450" y="511"/>
      <point x="417" y="511" type="curve" smooth="yes"/>
      <point x="388" y="511"/>
      <point x="339" y="513"/>
      <point x="304" y="515" type="curve"/>
      <point x="304" y="495" type="line"/>
      <point x="369" y="495"/>
      <point x="409" y="472"/>
      <point x="346" y="406" type="curve" smooth="yes"/>
      <point x="272" y="329" type="line" smooth="yes"/>
      <point x="248" y="304"/>
      <point x="224" y="292"/>
      <point x="182" y="287" type="curve"/>
      <point x="182" y="267" type="line"/>
      <point x="220" y="266"/>
      <point x="236" y="259"/>
      <point x="261" y="223" type="curve" smooth="yes"/>
      <point x="376" y="55" type="line" smooth="yes"/>
      <point x="390" y="36"/>
      <point x="378" y="21"/>
      <point x="351" y="21" type="curve"/>
      <point x="351" y="0" type="line"/>
      <point x="372" y="1"/>
      <point x="420" y="4"/>
      <point x="462" y="4" type="curve" smooth="yes"/>
      <point x="492" y="4"/>
      <point x="528" y="1"/>
      <point x="543" y="0" type="curve"/>
      <point x="543" y="21" type="line"/>
      <point x="513" y="25"/>
      <point x="496" y="42"/>
      <point x="473" y="73" type="curve" smooth="yes"/>
      <point x="287" y="328" type="line"/>
      <point x="273" y="300" type="line"/>
      <point x="414" y="448" type="line" smooth="yes"/>
      <point x="442" y="477"/>
      <point x="471" y="492"/>
      <point x="504" y="495" type="curve"/>
      <point x="504" y="515" type="line"/>
    </contour>
    <contour>
      <point x="281" y="0" type="move" name="bottom"/>
    </contour>
    <contour>
      <point x="147" y="782" type="move" name="top"/>
    </contour>
  </outline>
</glyph>
<glyph name="l" format="1">
  <advance width="286"/>
  <unicode hex="006C"/>
  <outline>
    <contour>
      <point x="159" y="774"/>
      <point x="123" y="770"/>
      <point x="84" y="770" type="curve" smooth="yes"/>
      <point x="64" y="770"/>
      <point x="43" y="771"/>
      <point x="22" y="773" type="curve"/>
      <point x="22" y="752" type="line"/>
      <point x="80" y="752"/>
      <point x="98" y="724"/>
      <point x="98" y="664" type="curve" smooth="yes"/>
      <point x="98" y="93" type="line" smooth="yes"/>
      <point x="98" y="37"/>
      <point x="77" y="21"/>
      <point x="22" y="21" type="curve"/>
      <point x="22" y="0" type="line"/>
      <point x="45" y="1"/>
      <point x="97" y="4"/>
      <point x="143" y="4" type="curve" smooth="yes"/>
      <point x="189" y="4"/>
      <point x="241" y="1"/>
      <point x="264" y="0" type="curve"/>
      <point x="264" y="21" type="line"/>
      <point x="209" y="21"/>
      <point x="188" y="37"/>
      <point x="188" y="93" type="curve" smooth="yes"/>
      <point x="188" y="784" type="line"/>
    </contour>
    <contour>
      <point x="143" y="0" type="move" name="bottom"/>
    </contour>
    <contour>
      <point x="249" y="515" type="move" name="right"/>
    </contour>
    <contour>
      <point x="143" y="772" type="move" name="top"/>
    </contour>
    <contour>
      <point x="266" y="514" type="move" name="topright"/>
    </contour>
  </outline>
</glyph>
<glyph name="m" format="1">
  <advance width="888"/>
  <unicode hex="006D"/>
  <outline>
    <contour>
      <point x="295" y="529"/>
      <point x="229" y="495"/>
      <point x="195" y="408" type="curve"/>
      <point x="195" y="526" type="line"/>
      <point x="166" y="516"/>
      <point x="130" y="512"/>
      <point x="91" y="512" type="curve" smooth="yes"/>
      <point x="71" y="512"/>
      <point x="50" y="513"/>
      <point x="29" y="515" type="curve"/>
      <point x="29" y="494" type="line"/>
      <point x="87" y="494"/>
      <point x="105" y="466"/>
      <point x="105" y="406" type="curve" smooth="yes"/>
      <point x="105" y="93" type="line" smooth="yes"/>
      <point x="105" y="37"/>
      <point x="84" y="21"/>
      <point x="29" y="21" type="curve"/>
      <point x="29" y="0" type="line"/>
      <point x="52" y="1"/>
      <point x="105" y="4"/>
      <point x="149" y="4" type="curve" smooth="yes"/>
      <point x="193" y="4"/>
      <point x="240" y="1"/>
      <point x="261" y="0" type="curve"/>
      <point x="261" y="21" type="line"/>
      <point x="213" y="21"/>
      <point x="195" y="37"/>
      <point x="195" y="93" type="curve" smooth="yes"/>
      <point x="195" y="315" type="line" smooth="yes"/>
      <point x="195" y="417"/>
      <point x="252" y="497"/>
      <point x="330" y="497" type="curve" smooth="yes"/>
      <point x="402" y="497"/>
      <point x="406" y="444"/>
      <point x="406" y="382" type="curve" smooth="yes"/>
      <point x="406" y="93" type="line" smooth="yes"/>
      <point x="406" y="37"/>
      <point x="388" y="21"/>
      <point x="340" y="21" type="curve"/>
      <point x="340" y="0" type="line"/>
      <point x="361" y="1"/>
      <point x="408" y="4"/>
      <point x="452" y="4" type="curve" smooth="yes"/>
      <point x="496" y="4"/>
      <point x="549" y="1"/>
      <point x="572" y="0" type="curve"/>
      <point x="572" y="21" type="line"/>
      <point x="517" y="21"/>
      <point x="496" y="37"/>
      <point x="496" y="93" type="curve" smooth="yes"/>
      <point x="496" y="360" type="line" smooth="yes"/>
      <point x="496" y="423"/>
      <point x="488" y="464"/>
      <point x="463" y="491" type="curve" smooth="yes"/>
      <point x="440" y="515"/>
      <point x="406" y="529"/>
      <point x="359" y="529" type="curve" smooth="yes"/>
    </contour>
    <contour>
      <point x="596" y="529"/>
      <point x="529" y="501"/>
      <point x="493" y="409" type="curve"/>
      <point x="496" y="316" type="line"/>
      <point x="496" y="418"/>
      <point x="553" y="497"/>
      <point x="631" y="497" type="curve" smooth="yes"/>
      <point x="703" y="497"/>
      <point x="707" y="444"/>
      <point x="707" y="382" type="curve" smooth="yes"/>
      <point x="707" y="93" type="line" smooth="yes"/>
      <point x="707" y="37"/>
      <point x="689" y="21"/>
      <point x="641" y="21" type="curve"/>
      <point x="641" y="0" type="line"/>
      <point x="662" y="1"/>
      <point x="709" y="4"/>
      <point x="753" y="4" type="curve" smooth="yes"/>
      <point x="797" y="4"/>
      <point x="850" y="1"/>
      <point x="873" y="0" type="curve"/>
      <point x="873" y="21" type="line"/>
      <point x="818" y="21"/>
      <point x="797" y="37"/>
      <point x="797" y="93" type="curve" smooth="yes"/>
      <point x="797" y="360" type="line" smooth="yes"/>
      <point x="797" y="423"/>
      <point x="789" y="464"/>
      <point x="764" y="491" type="curve" smooth="yes"/>
      <point x="741" y="515"/>
      <point x="707" y="529"/>
      <point x="660" y="529" type="curve" smooth="yes"/>
    </contour>
  </outline>
</glyph>
<glyph name="n" format="1">
  <advance width="597"/>
  <unicode hex="006E"/>
  <outline>
    <contour>
      <point x="297" y="529"/>
      <point x="230" y="498"/>
      <point x="195" y="408" type="curve"/>
      <point x="195" y="526" type="line"/>
      <point x="166" y="516"/>
      <point x="130" y="512"/>
      <point x="91" y="512" type="curve" smooth="yes"/>
      <point x="71" y="512"/>
      <point x="50" y="513"/>
      <point x="29" y="515" type="curve"/>
      <point x="29" y="494" type="line"/>
      <point x="87" y="494"/>
      <point x="105" y="466"/>
      <point x="105" y="406" type="curve" smooth="yes"/>
      <point x="105" y="93" type="line" smooth="yes"/>
      <point x="105" y="37"/>
      <point x="84" y="21"/>
      <point x="29" y="21" type="curve"/>
      <point x="29" y="0" type="line"/>
      <point x="52" y="1"/>
      <point x="105" y="4"/>
      <point x="149" y="4" type="curve" smooth="yes"/>
      <point x="193" y="4"/>
      <point x="240" y="1"/>
      <point x="261" y="0" type="curve"/>
      <point x="261" y="21" type="line"/>
      <point x="213" y="21"/>
      <point x="195" y="37"/>
      <point x="195" y="93" type="curve" smooth="yes"/>
      <point x="195" y="315" type="line" smooth="yes"/>
      <point x="195" y="417"/>
      <point x="251" y="497"/>
      <point x="335" y="497" type="curve" smooth="yes"/>
      <point x="407" y="497"/>
      <point x="416" y="444"/>
      <point x="416" y="382" type="curve" smooth="yes"/>
      <point x="416" y="93" type="line" smooth="yes"/>
      <point x="416" y="37"/>
      <point x="398" y="21"/>
      <point x="350" y="21" type="curve"/>
      <point x="350" y="0" type="line"/>
      <point x="371" y="1"/>
      <point x="418" y="4"/>
      <point x="462" y="4" type="curve" smooth="yes"/>
      <point x="506" y="4"/>
      <point x="559" y="1"/>
      <point x="582" y="0" type="curve"/>
      <point x="582" y="21" type="line"/>
      <point x="527" y="21"/>
      <point x="506" y="37"/>
      <point x="506" y="93" type="curve" smooth="yes"/>
      <point x="506" y="360" type="line" smooth="yes"/>
      <point x="506" y="428"/>
      <point x="496" y="464"/>
      <point x="471" y="491" type="curve" smooth="yes"/>
      <point x="448" y="515"/>
      <point x="416" y="529"/>
      <point x="365" y="529" type="curve" smooth="yes"/>
    </contour>
    <contour>
      <point x="316" y="0" type="move" name="bottom"/>
    </contour>
    <contour>
      <point x="306" y="514" type="move" name="top"/>
    </contour>
  </outline>
</glyph>
<glyph name="o" format="1">
  <advance width="548"/>
  <unicode hex="006F"/>
  <outline>
    <contour>
      <point x="147" y="529"/>
      <point x="47" y="449"/>
      <point x="47" y="257" type="curve" smooth="yes"/>
      <point x="47" y="65"/>
      <point x="147" y="-14"/>
      <point x="274" y="-14" type="curve" smooth="yes"/>
      <point x="401" y="-14"/>
      <point x="501" y="65"/>
      <point x="501" y="257" type="curve" smooth="yes"/>
      <point x="501" y="449"/>
      <point x="401" y="529"/>
      <point x="274" y="529" type="curve" smooth="yes"/>
    </contour>
    <contour>
      <point x="350" y="509"/>
      <point x="404" y="436"/>
      <point x="404" y="257" type="curve" smooth="yes"/>
      <point x="404" y="78"/>
      <point x="350" y="6"/>
      <point x="274" y="6" type="curve" smooth="yes"/>
      <point x="198" y="6"/>
      <point x="144" y="78"/>
      <point x="144" y="257" type="curve" smooth="yes"/>
      <point x="144" y="436"/>
      <point x="198" y="509"/>
      <point x="274" y="509" type="curve" smooth="yes"/>
    </contour>
    <contour>
      <point x="274" y="0" type="move" name="bottom"/>
    </contour>
    <contour>
      <point x="277" y="514" type="move" name="top"/>
    </contour>
  </outline>
</glyph>
<glyph name="p" format="1">
  <advance width="581"/>
  <unicode hex="0070"/>
  <outline>
    <contour>
      <point x="159" y="516"/>
      <point x="123" y="512"/>
      <point x="84" y="512" type="curve" smooth="yes"/>
      <point x="64" y="512"/>
      <point x="43" y="513"/>
      <point x="22" y="515" type="curve"/>
      <point x="22" y="494" type="line"/>
      <point x="80" y="494"/>
      <point x="98" y="466"/>
      <point x="98" y="406" type="curve" smooth="yes"/>
      <point x="98" y="-98" type="line" smooth="yes"/>
      <point x="98" y="-146"/>
      <point x="80" y="-160"/>
      <point x="32" y="-160" type="curve"/>
      <point x="32" y="-181" type="line"/>
      <point x="53" y="-180"/>
      <point x="98" y="-177"/>
      <point x="140" y="-177" type="curve" smooth="yes"/>
      <point x="198" y="-177"/>
      <point x="255" y="-180"/>
      <point x="284" y="-181" type="curve"/>
      <point x="284" y="-160" type="line"/>
      <point x="224" y="-160"/>
      <point x="188" y="-145"/>
      <point x="188" y="-88" type="curve" smooth="yes"/>
      <point x="188" y="526" type="line"/>
    </contour>
    <contour>
      <point x="256" y="529"/>
      <point x="184" y="463"/>
      <point x="169" y="350" type="curve"/>
      <point x="181" y="336" type="line"/>
      <point x="195" y="445"/>
      <point x="255" y="499"/>
      <point x="321" y="499" type="curve" smooth="yes"/>
      <point x="397" y="499"/>
      <point x="437" y="426"/>
      <point x="437" y="267" type="curve" smooth="yes"/>
      <point x="437" y="125"/>
      <point x="405" y="9"/>
      <point x="294" y="9" type="curve" smooth="yes"/>
      <point x="240" y="9"/>
      <point x="205" y="37"/>
      <point x="187" y="75" type="curve"/>
      <point x="177" y="61" type="line"/>
      <point x="193" y="19"/>
      <point x="242" y="-14"/>
      <point x="305" y="-14" type="curve" smooth="yes"/>
      <point x="468" y="-14"/>
      <point x="534" y="136"/>
      <point x="534" y="281" type="curve" smooth="yes"/>
      <point x="534" y="442"/>
      <point x="453" y="529"/>
      <point x="348" y="529" type="curve" smooth="yes"/>
    </contour>
  </outline>
</glyph>
<glyph name="q" format="1">
  <advance width="563"/>
  <unicode hex="0071"/>
  <outline>
    <contour>
      <point x="141" y="529"/>
      <point x="47" y="439"/>
      <point x="47" y="257" type="curve" smooth="yes"/>
      <point x="47" y="74"/>
      <point x="138" y="-14"/>
      <point x="253" y="-14" type="curve" smooth="yes"/>
      <point x="337" y="-14"/>
      <point x="402" y="51"/>
      <point x="412" y="164" type="curve"/>
      <point x="400" y="178" type="line"/>
      <point x="392" y="71"/>
      <point x="338" y="16"/>
      <point x="282" y="16" type="curve" smooth="yes"/>
      <point x="193" y="16"/>
      <point x="144" y="96"/>
      <point x="144" y="257" type="curve" smooth="yes"/>
      <point x="144" y="426"/>
      <point x="190" y="506"/>
      <point x="269" y="506" type="curve" smooth="yes"/>
      <point x="327" y="506"/>
      <point x="375" y="481"/>
      <point x="400" y="426" type="curve"/>
      <point x="420" y="415" type="line"/>
      <point x="392" y="496"/>
      <point x="344" y="529"/>
      <point x="261" y="529" type="curve" smooth="yes"/>
    </contour>
    <contour>
      <point x="446" y="503"/>
      <point x="420" y="475"/>
      <point x="393" y="447" type="curve"/>
      <point x="393" y="-88" type="line" smooth="yes"/>
      <point x="393" y="-145"/>
      <point x="357" y="-160"/>
      <point x="297" y="-160" type="curve"/>
      <point x="297" y="-181" type="line"/>
      <point x="326" y="-180"/>
      <point x="383" y="-177"/>
      <point x="441" y="-177" type="curve" smooth="yes"/>
      <point x="483" y="-177"/>
      <point x="528" y="-180"/>
      <point x="549" y="-181" type="curve"/>
      <point x="549" y="-160" type="line"/>
      <point x="501" y="-160"/>
      <point x="483" y="-146"/>
      <point x="483" y="-98" type="curve" smooth="yes"/>
      <point x="483" y="466" type="line" smooth="yes"/>
      <point x="483" y="486"/>
      <point x="485" y="506"/>
      <point x="490" y="524" type="curve"/>
      <point x="473" y="531" type="line"/>
    </contour>
  </outline>
</glyph>
<glyph name="r" format="1">
  <advance width="445"/>
  <unicode hex="0072"/>
  <outline>
    <contour>
      <point x="270" y="529"/>
      <point x="216" y="459"/>
      <point x="195" y="401" type="curve"/>
      <point x="195" y="526" type="line"/>
      <point x="166" y="516"/>
      <point x="130" y="512"/>
      <point x="91" y="512" type="curve" smooth="yes"/>
      <point x="71" y="512"/>
      <point x="50" y="513"/>
      <point x="29" y="515" type="curve"/>
      <point x="29" y="494" type="line"/>
      <point x="87" y="494"/>
      <point x="105" y="466"/>
      <point x="105" y="406" type="curve" smooth="yes"/>
      <point x="105" y="93" type="line" smooth="yes"/>
      <point x="105" y="37"/>
      <point x="84" y="21"/>
      <point x="29" y="21" type="curve"/>
      <point x="29" y="0" type="line"/>
      <point x="52" y="1"/>
      <point x="101" y="4"/>
      <point x="147" y="4" type="curve" smooth="yes"/>
      <point x="209" y="4"/>
      <point x="270" y="1"/>
      <point x="301" y="0" type="curve"/>
      <point x="301" y="21" type="line"/>
      <point x="235" y="21"/>
      <point x="195" y="38"/>
      <point x="195" y="103" type="curve" smooth="yes"/>
      <point x="195" y="315" type="line" smooth="yes"/>
      <point x="195" y="389"/>
      <point x="250" y="503"/>
      <point x="334" y="503" type="curve" smooth="yes"/>
      <point x="343" y="503"/>
      <point x="350" y="500"/>
      <point x="355" y="493" type="curve"/>
      <point x="337" y="482"/>
      <point x="321" y="464"/>
      <point x="321" y="439" type="curve" smooth="yes"/>
      <point x="321" y="406"/>
      <point x="346" y="387"/>
      <point x="374" y="387" type="curve" smooth="yes"/>
      <point x="409" y="387"/>
      <point x="431" y="416"/>
      <point x="431" y="450" type="curve" smooth="yes"/>
      <point x="431" y="493"/>
      <point x="394" y="529"/>
      <point x="340" y="529" type="curve" smooth="yes"/>
    </contour>
    <contour>
      <point x="169" y="0" type="move" name="bottom"/>
    </contour>
    <contour>
      <point x="236" y="514" type="move" name="top"/>
    </contour>
  </outline>
</glyph>
<glyph name="s" format="1">
  <advance width="446"/>
  <unicode hex="0073"/>
  <outline>
    <contour>
      <point x="128" y="529"/>
      <point x="59" y="489"/>
      <point x="59" y="400" type="curve" smooth="yes"/>
      <point x="59" y="317"/>
      <point x="124" y="278"/>
      <point x="197" y="232" type="curve" smooth="yes"/>
      <point x="262" y="191"/>
      <point x="310" y="159"/>
      <point x="310" y="101" type="curve" smooth="yes"/>
      <point x="310" y="30"/>
      <point x="261" y="6"/>
      <point x="221" y="6" type="curve" smooth="yes"/>
      <point x="121" y="6"/>
      <point x="95" y="81"/>
      <point x="82" y="193" type="curve"/>
      <point x="59" y="193" type="line"/>
      <point x="59" y="92"/>
      <point x="58" y="36"/>
      <point x="55" y="-7" type="curve"/>
      <point x="78" y="-7" type="line"/>
      <point x="83" y="26"/>
      <point x="95" y="38"/>
      <point x="108" y="27" type="curve" smooth="yes"/>
      <point x="121" y="16"/>
      <point x="135" y="7"/>
      <point x="149" y="0" type="curve" smooth="yes"/>
      <point x="173" y="-10"/>
      <point x="199" y="-14"/>
      <point x="228" y="-14" type="curve" smooth="yes"/>
      <point x="319" y="-14"/>
      <point x="399" y="34"/>
      <point x="399" y="126" type="curve" smooth="yes"/>
      <point x="399" y="208"/>
      <point x="338" y="252"/>
      <point x="262" y="301" type="curve" smooth="yes"/>
      <point x="194" y="345"/>
      <point x="134" y="373"/>
      <point x="134" y="433" type="curve" smooth="yes"/>
      <point x="134" y="483"/>
      <point x="169" y="510"/>
      <point x="216" y="510" type="curve" smooth="yes"/>
      <point x="306" y="510"/>
      <point x="340" y="432"/>
      <point x="352" y="358" type="curve"/>
      <point x="375" y="358" type="line"/>
      <point x="375" y="444"/>
      <point x="376" y="491"/>
      <point x="379" y="528" type="curve"/>
      <point x="356" y="528" type="line"/>
      <point x="351" y="485"/>
      <point x="338" y="474"/>
      <point x="316" y="492" type="curve" smooth="yes"/>
      <point x="298" y="507"/>
      <point x="260" y="529"/>
      <point x="207" y="529" type="curve" smooth="yes"/>
    </contour>
    <contour>
      <point x="228" y="514" type="move" name="top"/>
    </contour>
    <contour>
      <point x="228" y="0" type="move" name="bottom"/>
    </contour>
  </outline>
</glyph>
<glyph name="t" format="1">
  <advance width="354"/>
  <unicode hex="0074"/>
  <outline>
    <contour>
      <point x="165" y="672"/>
      <point x="133" y="668"/>
      <point x="100" y="667" type="curve"/>
      <point x="100" y="514" type="line"/>
      <point x="4" y="514" type="line"/>
      <point x="4" y="494" type="line"/>
      <point x="100" y="494" type="line"/>
      <point x="100" y="159" type="line" smooth="yes"/>
      <point x="100" y="88"/>
      <point x="110" y="49"/>
      <point x="139" y="19" type="curve" smooth="yes"/>
      <point x="161" y="-3"/>
      <point x="188" y="-14"/>
      <point x="234" y="-14" type="curve" smooth="yes"/>
      <point x="315" y="-14"/>
      <point x="350" y="46"/>
      <point x="364" y="124" type="curve"/>
      <point x="344" y="129" type="line"/>
      <point x="323" y="51"/>
      <point x="294" y="22"/>
      <point x="254" y="22" type="curve" smooth="yes"/>
      <point x="214" y="22"/>
      <point x="190" y="44"/>
      <point x="190" y="107" type="curve" smooth="yes"/>
      <point x="190" y="494" type="line"/>
      <point x="338" y="494" type="line"/>
      <point x="338" y="514" type="line"/>
      <point x="190" y="514" type="line"/>
      <point x="190" y="681" type="line"/>
    </contour>
    <contour>
      <point x="234" y="0" type="move" name="bottom"/>
    </contour>
    <contour>
      <point x="187" y="257" type="move" name="center"/>
    </contour>
    <contour>
      <point x="288" y="514" type="move" name="right"/>
    </contour>
    <contour>
      <point x="154" y="514" type="move" name="top"/>
    </contour>
  </outline>
</glyph>
<glyph name="u" format="1">
  <advance width="581"/>
  <unicode hex="0075"/>
  <outline>
    <contour>
      <point x="454" y="516"/>
      <point x="418" y="512"/>
      <point x="379" y="512" type="curve" smooth="yes"/>
      <point x="359" y="512"/>
      <point x="338" y="513"/>
      <point x="317" y="515" type="curve"/>
      <point x="317" y="494" type="line"/>
      <point x="375" y="494"/>
      <point x="393" y="466"/>
      <point x="393" y="406" type="curve" smooth="yes"/>
      <point x="393" y="199" type="line" smooth="yes"/>
      <point x="393" y="97"/>
      <point x="336" y="18"/>
      <point x="258" y="18" type="curve" smooth="yes"/>
      <point x="186" y="18"/>
      <point x="182" y="71"/>
      <point x="182" y="133" type="curve" smooth="yes"/>
      <point x="182" y="526" type="line"/>
      <point x="153" y="516"/>
      <point x="117" y="512"/>
      <point x="78" y="512" type="curve" smooth="yes"/>
      <point x="58" y="512"/>
      <point x="37" y="513"/>
      <point x="16" y="515" type="curve"/>
      <point x="16" y="494" type="line"/>
      <point x="74" y="494"/>
      <point x="92" y="466"/>
      <point x="92" y="406" type="curve" smooth="yes"/>
      <point x="92" y="155" type="line" smooth="yes"/>
      <point x="92" y="92"/>
      <point x="100" y="51"/>
      <point x="125" y="24" type="curve" smooth="yes"/>
      <point x="148" y="0"/>
      <point x="182" y="-14"/>
      <point x="229" y="-14" type="curve" smooth="yes"/>
      <point x="293" y="-14"/>
      <point x="359" y="19"/>
      <point x="393" y="106" type="curve"/>
      <point x="393" y="-12" type="line"/>
      <point x="422" y="-2"/>
      <point x="458" y="2"/>
      <point x="497" y="2" type="curve" smooth="yes"/>
      <point x="517" y="2"/>
      <point x="538" y="1"/>
      <point x="559" y="-1" type="curve"/>
      <point x="559" y="20" type="line"/>
      <point x="501" y="20"/>
      <point x="483" y="48"/>
      <point x="483" y="108" type="curve" smooth="yes"/>
      <point x="483" y="526" type="line"/>
    </contour>
    <contour>
      <point x="301" y="0" type="move" name="bottom"/>
    </contour>
    <contour>
      <point x="547" y="0" type="move" name="ogonek"/>
    </contour>
    <contour>
      <point x="280" y="514" type="move" name="top"/>
    </contour>
  </outline>
</glyph>
<glyph name="v" format="1">
  <advance width="489"/>
  <unicode hex="0076"/>
  <outline>
    <contour>
      <point x="465" y="513"/>
      <point x="441" y="512"/>
      <point x="410" y="512" type="curve" smooth="yes"/>
      <point x="379" y="512"/>
      <point x="361" y="513"/>
      <point x="326" y="515" type="curve"/>
      <point x="326" y="495" type="line"/>
      <point x="397" y="490"/>
      <point x="414" y="467"/>
      <point x="389" y="401" type="curve" smooth="yes"/>
      <point x="275" y="102" type="line"/>
      <point x="281" y="107" type="line"/>
      <point x="156" y="416" type="line" smooth="yes"/>
      <point x="125" y="494"/>
      <point x="166" y="494"/>
      <point x="216" y="494" type="curve"/>
      <point x="216" y="515" type="line"/>
      <point x="176" y="512"/>
      <point x="127" y="511"/>
      <point x="86" y="511" type="curve" smooth="yes"/>
      <point x="52" y="511"/>
      <point x="24" y="513"/>
      <point x="-2" y="515" type="curve"/>
      <point x="-2" y="494" type="line"/>
      <point x="12" y="494"/>
      <point x="34" y="490"/>
      <point x="56" y="438" type="curve" smooth="yes"/>
      <point x="240" y="-5" type="line"/>
      <point x="246" y="-5"/>
      <point x="251" y="-5"/>
      <point x="257" y="-5" type="curve"/>
      <point x="421" y="425" type="line" smooth="yes"/>
      <point x="440" y="476"/>
      <point x="461" y="492"/>
      <point x="486" y="495" type="curve"/>
      <point x="486" y="515" type="line"/>
    </contour>
  </outline>
</glyph>
<glyph name="w" format="1">
  <advance width="770"/>
  <unicode hex="0077"/>
  <outline>
    <contour>
      <point x="178" y="512"/>
      <point x="129" y="509"/>
      <point x="88" y="509" type="curve" smooth="yes"/>
      <point x="54" y="509"/>
      <point x="26" y="511"/>
      <point x="0" y="515" type="curve"/>
      <point x="0" y="494" type="line"/>
      <point x="14" y="494"/>
      <point x="37" y="491"/>
      <point x="58" y="438" type="curve" smooth="yes"/>
      <point x="222" y="-5" type="line"/>
      <point x="228" y="-5"/>
      <point x="233" y="-5"/>
      <point x="239" y="-5" type="curve"/>
      <point x="422" y="511" type="line"/>
      <point x="402" y="519" type="line"/>
      <point x="255" y="113" type="line"/>
      <point x="262" y="112" type="line"/>
      <point x="158" y="410" type="line" smooth="yes"/>
      <point x="128" y="495"/>
      <point x="168" y="494"/>
      <point x="218" y="494" type="curve"/>
      <point x="218" y="515" type="line"/>
    </contour>
    <contour>
      <point x="746" y="513"/>
      <point x="722" y="512"/>
      <point x="691" y="512" type="curve" smooth="yes"/>
      <point x="660" y="512"/>
      <point x="642" y="513"/>
      <point x="607" y="515" type="curve"/>
      <point x="607" y="495" type="line"/>
      <point x="678" y="490"/>
      <point x="694" y="468"/>
      <point x="672" y="401" type="curve" smooth="yes"/>
      <point x="573" y="100" type="line"/>
      <point x="581" y="106" type="line"/>
      <point x="425" y="519" type="line"/>
      <point x="417" y="519"/>
      <point x="410" y="519"/>
      <point x="402" y="519" type="curve"/>
      <point x="379" y="404" type="line"/>
      <point x="540" y="-5" type="line"/>
      <point x="546" y="-5"/>
      <point x="551" y="-5"/>
      <point x="557" y="-5" type="curve"/>
      <point x="702" y="425" type="line" smooth="yes"/>
      <point x="719" y="477"/>
      <point x="742" y="492"/>
      <point x="767" y="495" type="curve"/>
      <point x="767" y="515" type="line"/>
    </contour>
    <contour>
      <point x="411" y="514" type="move" name="top"/>
    </contour>
  </outline>
</glyph>
<glyph name="x" format="1">
  <advance width="519"/>
  <unicode hex="0078"/>
  <outline>
    <contour>
      <point x="191" y="514"/>
      <point x="136" y="511"/>
      <point x="94" y="511" type="curve" smooth="yes"/>
      <point x="68" y="511"/>
      <point x="36" y="514"/>
      <point x="23" y="515" type="curve"/>
      <point x="23" y="494" type="line"/>
      <point x="47" y="491"/>
      <point x="58" y="483"/>
      <point x="85" y="444" type="curve" smooth="yes"/>
      <point x="352" y="55" type="line" smooth="yes"/>
      <point x="366" y="35"/>
      <point x="343" y="21"/>
      <point x="317" y="21" type="curve"/>
      <point x="317" y="0" type="line"/>
      <point x="338" y="1"/>
      <point x="393" y="4"/>
      <point x="435" y="4" type="curve" smooth="yes"/>
      <point x="461" y="4"/>
      <point x="493" y="1"/>
      <point x="506" y="0" type="curve"/>
      <point x="506" y="21" type="line"/>
      <point x="480" y="26"/>
      <point x="467" y="38"/>
      <point x="444" y="71" type="curve" smooth="yes"/>
      <point x="177" y="460" type="line" smooth="yes"/>
      <point x="163" y="481"/>
      <point x="186" y="494"/>
      <point x="212" y="494" type="curve"/>
      <point x="212" y="515" type="line"/>
    </contour>
    <contour>
      <point x="109" y="90" type="line" smooth="yes"/>
      <point x="71" y="40"/>
      <point x="46" y="23"/>
      <point x="21" y="20" type="curve"/>
      <point x="21" y="0" type="line"/>
      <point x="42" y="2"/>
      <point x="66" y="3"/>
      <point x="97" y="3" type="curve" smooth="yes"/>
      <point x="128" y="3"/>
      <point x="176" y="2"/>
      <point x="211" y="0" type="curve"/>
      <point x="211" y="20" type="line"/>
      <point x="140" y="25"/>
      <point x="112" y="57"/>
      <point x="165" y="126" type="curve" smooth="yes"/>
      <point x="248" y="234" type="line"/>
      <point x="248" y="234"/>
      <point x="239" y="261"/>
      <point x="239" y="261" type="curve"/>
    </contour>
    <contour>
      <point x="465" y="513"/>
      <point x="441" y="512"/>
      <point x="410" y="512" type="curve" smooth="yes"/>
      <point x="379" y="512"/>
      <point x="361" y="513"/>
      <point x="326" y="515" type="curve"/>
      <point x="326" y="495" type="line"/>
      <point x="397" y="490"/>
      <point x="397" y="463"/>
      <point x="353" y="401" type="curve" smooth="yes"/>
      <point x="275" y="292" type="line"/>
      <point x="275" y="292"/>
      <point x="283" y="266"/>
      <point x="283" y="266" type="curve"/>
      <point x="398" y="425" type="line" smooth="yes"/>
      <point x="430" y="469"/>
      <point x="461" y="492"/>
      <point x="486" y="495" type="curve"/>
      <point x="486" y="515" type="line"/>
    </contour>
    <contour>
      <point x="274" y="514" type="move" name="top"/>
    </contour>
    <contour>
      <point x="268" y="0" type="move" name="bottom"/>
    </contour>
  </outline>
</glyph>
<glyph name="y" format="1">
  <advance width="504"/>
  <unicode hex="0079"/>
  <outline>
    <contour>
      <point x="473" y="513"/>
      <point x="449" y="512"/>
      <point x="418" y="512" type="curve" smooth="yes"/>
      <point x="387" y="512"/>
      <point x="369" y="513"/>
      <point x="334" y="515" type="curve"/>
      <point x="334" y="495" type="line"/>
      <point x="405" y="490"/>
      <point x="423" y="467"/>
      <point x="398" y="401" type="curve" smooth="yes"/>
      <point x="284" y="103" type="line"/>
      <point x="290" y="105" type="line"/>
      <point x="167" y="410" type="line" smooth="yes"/>
      <point x="133" y="494"/>
      <point x="174" y="494"/>
      <point x="224" y="494" type="curve"/>
      <point x="224" y="515" type="line"/>
      <point x="184" y="512"/>
      <point x="135" y="509"/>
      <point x="94" y="509" type="curve" smooth="yes"/>
      <point x="56" y="509"/>
      <point x="25" y="511"/>
      <point x="-4" y="515" type="curve"/>
      <point x="-4" y="494" type="line"/>
      <point x="12" y="494"/>
      <point x="38" y="490"/>
      <point x="64" y="438" type="curve" smooth="yes"/>
      <point x="248" y="-5" type="line"/>
      <point x="265" y="-5" type="line"/>
      <point x="429" y="425" type="line" smooth="yes"/>
      <point x="448" y="476"/>
      <point x="469" y="492"/>
      <point x="494" y="495" type="curve"/>
      <point x="494" y="515" type="line"/>
    </contour>
    <contour>
      <point x="246" y="3" type="line"/>
      <point x="210" y="-90" type="line" smooth="yes"/>
      <point x="189" y="-145"/>
      <point x="161" y="-168"/>
      <point x="125" y="-168" type="curve" smooth="yes"/>
      <point x="123" y="-168"/>
      <point x="121" y="-168"/>
      <point x="119" y="-167" type="curve"/>
      <point x="133" y="-159"/>
      <point x="146" y="-145"/>
      <point x="146" y="-122" type="curve" smooth="yes"/>
      <point x="146" y="-91"/>
      <point x="123" y="-75"/>
      <point x="95" y="-75" type="curve" smooth="yes"/>
      <point x="62" y="-75"/>
      <point x="42" y="-96"/>
      <point x="42" y="-128" type="curve" smooth="yes"/>
      <point x="42" y="-167"/>
      <point x="72" y="-188"/>
      <point x="110" y="-188" type="curve" smooth="yes"/>
      <point x="134" y="-188"/>
      <point x="166" y="-182"/>
      <point x="188" y="-162" type="curve" smooth="yes"/>
      <point x="204" y="-148"/>
      <point x="218" y="-126"/>
      <point x="231" y="-92" type="curve" smooth="yes"/>
      <point x="265" y="-5" type="line"/>
    </contour>
    <contour>
      <point x="254" y="514" type="move" name="top"/>
    </contour>
  </outline>
</glyph>
<glyph name="z" format="1">
  <advance width="476"/>
  <unicode hex="007A"/>
  <outline>
    <contour>
      <point x="375" y="517"/>
      <point x="304" y="515"/>
      <point x="237" y="515" type="curve" smooth="yes"/>
      <point x="174" y="515"/>
      <point x="110" y="516"/>
      <point x="51" y="519" type="curve"/>
      <point x="54" y="482"/>
      <point x="55" y="425"/>
      <point x="55" y="339" type="curve"/>
      <point x="78" y="339" type="line"/>
      <point x="87" y="455"/>
      <point x="128" y="500"/>
      <point x="217" y="500" type="curve" smooth="yes"/>
      <point x="327" y="500" type="line"/>
      <point x="38" y="-5" type="line"/>
      <point x="102" y="-2"/>
      <point x="173" y="0"/>
      <point x="240" y="0" type="curve" smooth="yes"/>
      <point x="303" y="0"/>
      <point x="367" y="-1"/>
      <point x="426" y="-4" type="curve"/>
      <point x="423" y="33"/>
      <point x="422" y="90"/>
      <point x="422" y="176" type="curve"/>
      <point x="399" y="176" type="line"/>
      <point x="390" y="60"/>
      <point x="339" y="15"/>
      <point x="260" y="15" type="curve" smooth="yes"/>
      <point x="150" y="15" type="line"/>
      <point x="439" y="520" type="line"/>
    </contour>
    <contour>
      <point x="254" y="514" type="move" name="top"/>
    </contour>
    <contour>
      <point x="242" y="0" type="move" name="bottom"/>
    </contour>
  </outline>
</glyph>
<glyph name="bar" format="1">
  <advance width="222"/>
  <unicode hex="007C"/>
  <outline>
    <contour>
      <point x="131" y="858" type="line"/>
      <point x="91" y="858" type="line"/>
      <point x="91" y="-195" type="line"/>
      <point x="131" y="-195" type="line"/>
    </contour>
  </outline>
</glyph>
<glyph name="asciitilde" format="1">
  <advance width="649"/>
  <unicode hex="007E"/>
  <outline>
    <contour>
      <point x="144" y="365"/>
      <point x="82" y="325"/>
      <point x="74" y="259" type="curve"/>
      <point x="91" y="254" type="line"/>
      <point x="109" y="297"/>
      <point x="141" y="312"/>
      <point x="181" y="312" type="curve" smooth="yes"/>
      <point x="273" y="312"/>
      <point x="337" y="235"/>
      <point x="435" y="235" type="curve" smooth="yes"/>
      <point x="506" y="235"/>
      <point x="568" y="275"/>
      <point x="576" y="341" type="curve"/>
      <point x="559" y="346" type="line"/>
      <point x="541" y="303"/>
      <point x="509" y="288"/>
      <point x="469" y="288" type="curve" smooth="yes"/>
      <point x="377" y="288"/>
      <point x="313" y="365"/>
      <point x="215" y="365" type="curve" smooth="yes"/>
    </contour>
  </outline>
</glyph>
<glyph name="exclamdown" format="1">
  <advance width="249"/>
  <unicode hex="00A1"/>
  <outline>
    <contour>
      <point x="115" y="318" type="line"/>
      <point x="115" y="139"/>
      <point x="78" y="-43"/>
      <point x="78" y="-132" type="curve" smooth="yes"/>
      <point x="78" y="-172"/>
      <point x="99" y="-188"/>
      <point x="124" y="-188" type="curve" smooth="yes"/>
      <point x="150" y="-188"/>
      <point x="170" y="-172"/>
      <point x="170" y="-132" type="curve" smooth="yes"/>
      <point x="170" y="-43"/>
      <point x="133" y="139"/>
      <point x="133" y="318" type="curve"/>
    </contour>
    <component base="period" xOffset="-1" yOffset="415"/>
  </outline>
</glyph>
<glyph name="cent" format="1">
  <advance width="474"/>
  <unicode hex="00A2"/>
  <outline>
    <contour>
      <point x="243" y="708" type="line"/>
      <point x="243" y="-181" type="line"/>
      <point x="265" y="-181" type="line"/>
      <point x="265" y="708" type="line"/>
    </contour>
    <component base="c" xOffset="-12"/>
  </outline>
</glyph>
<glyph name="sterling" format="1">
  <advance width="602"/>
  <unicode hex="00A3"/>
  <outline>
    <contour>
      <point x="188" y="736"/>
      <point x="136" y="603"/>
      <point x="136" y="439" type="curve" smooth="yes"/>
      <point x="136" y="258" type="line" smooth="yes"/>
      <point x="136" y="163"/>
      <point x="135" y="118"/>
      <point x="125" y="73" type="curve"/>
      <point x="81" y="57"/>
      <point x="35" y="15"/>
      <point x="35" y="-4" type="curve" smooth="yes"/>
      <point x="35" y="-13"/>
      <point x="42" y="-14"/>
      <point x="51" y="-14" type="curve" smooth="yes"/>
      <point x="86" y="-14"/>
      <point x="124" y="17"/>
      <point x="155" y="70" type="curve"/>
      <point x="174" y="77"/>
      <point x="192" y="80"/>
      <point x="210" y="80" type="curve" smooth="yes"/>
      <point x="228" y="80"/>
      <point x="245" y="77"/>
      <point x="259" y="72" type="curve" smooth="yes"/>
      <point x="324" y="50"/>
      <point x="383" y="-14"/>
      <point x="461" y="-14" type="curve" smooth="yes"/>
      <point x="533" y="-14"/>
      <point x="570" y="41"/>
      <point x="570" y="97" type="curve" smooth="yes"/>
      <point x="570" y="170"/>
      <point x="506" y="212"/>
      <point x="442" y="222" type="curve"/>
      <point x="438" y="206" type="line"/>
      <point x="489" y="196"/>
      <point x="523" y="166"/>
      <point x="523" y="120" type="curve" smooth="yes"/>
      <point x="523" y="90"/>
      <point x="503" y="63"/>
      <point x="455" y="63" type="curve" smooth="yes"/>
      <point x="379" y="63"/>
      <point x="319" y="108"/>
      <point x="250" y="108" type="curve" smooth="yes"/>
      <point x="217" y="108"/>
      <point x="190" y="100"/>
      <point x="164" y="88" type="curve"/>
      <point x="206" y="162"/>
      <point x="229" y="221"/>
      <point x="229" y="317" type="curve" smooth="yes"/>
      <point x="229" y="465" type="line" smooth="yes"/>
      <point x="229" y="594"/>
      <point x="232" y="721"/>
      <point x="360" y="721" type="curve" smooth="yes"/>
      <point x="388" y="721"/>
      <point x="419" y="710"/>
      <point x="422" y="697" type="curve"/>
      <point x="401" y="689"/>
      <point x="389" y="672"/>
      <point x="389" y="650" type="curve" smooth="yes"/>
      <point x="389" y="623"/>
      <point x="412" y="605"/>
      <point x="435" y="605" type="curve" smooth="yes"/>
      <point x="460" y="605"/>
      <point x="482" y="625"/>
      <point x="482" y="654" type="curve" smooth="yes"/>
      <point x="482" y="673"/>
      <point x="472" y="693"/>
      <point x="452" y="709" type="curve" smooth="yes"/>
      <point x="431" y="725"/>
      <point x="400" y="736"/>
      <point x="358" y="736" type="curve" smooth="yes"/>
    </contour>
    <contour>
      <point x="59" y="317" type="line"/>
      <point x="59" y="297" type="line"/>
      <point x="374" y="297" type="line"/>
      <point x="374" y="317" type="line"/>
    </contour>
    <contour>
      <point x="59" y="417" type="line"/>
      <point x="59" y="397" type="line"/>
      <point x="374" y="397" type="line"/>
      <point x="374" y="417" type="line"/>
    </contour>
  </outline>
</glyph>
<glyph name="yen" format="1">
  <advance width="647"/>
  <unicode hex="00A5"/>
  <outline>
    <contour>
      <point x="148" y="296" type="line"/>
      <point x="148" y="276" type="line"/>
      <point x="521" y="276" type="line"/>
      <point x="521" y="296" type="line"/>
    </contour>
    <contour>
      <point x="148" y="196" type="line"/>
      <point x="148" y="176" type="line"/>
      <point x="521" y="176" type="line"/>
      <point x="521" y="196" type="line"/>
    </contour>
    <component base="Y" xOffset="30"/>
  </outline>
</glyph>
<glyph name="section" format="1">
  <advance width="508"/>
  <unicode hex="00A7"/>
  <outline>
    <contour>
      <point x="154" y="782"/>
      <point x="85" y="718"/>
      <point x="85" y="625" type="curve" smooth="yes"/>
      <point x="85" y="525"/>
      <point x="166" y="471"/>
      <point x="270" y="400" type="curve" smooth="yes"/>
      <point x="346" y="348"/>
      <point x="414" y="299"/>
      <point x="414" y="232" type="curve" smooth="yes"/>
      <point x="414" y="188"/>
      <point x="389" y="145"/>
      <point x="330" y="115" type="curve"/>
      <point x="339" y="105" type="line"/>
      <point x="436" y="154"/>
      <point x="468" y="216"/>
      <point x="468" y="282" type="curve" smooth="yes"/>
      <point x="468" y="365"/>
      <point x="417" y="411"/>
      <point x="321" y="477" type="curve" smooth="yes"/>
      <point x="243" y="531"/>
      <point x="155" y="585"/>
      <point x="155" y="664" type="curve" smooth="yes"/>
      <point x="155" y="709"/>
      <point x="182" y="763"/>
      <point x="265" y="763" type="curve" smooth="yes"/>
      <point x="294" y="763"/>
      <point x="348" y="756"/>
      <point x="362" y="727" type="curve"/>
      <point x="331" y="719"/>
      <point x="319" y="697"/>
      <point x="319" y="674" type="curve" smooth="yes"/>
      <point x="319" y="642"/>
      <point x="344" y="621"/>
      <point x="374" y="621" type="curve" smooth="yes"/>
      <point x="408" y="621"/>
      <point x="427" y="646"/>
      <point x="427" y="675" type="curve" smooth="yes"/>
      <point x="427" y="710"/>
      <point x="398" y="745"/>
      <point x="350" y="765" type="curve" smooth="yes"/>
      <point x="330" y="773"/>
      <point x="301" y="782"/>
      <point x="261" y="782" type="curve" smooth="yes"/>
    </contour>
    <contour>
      <point x="71" y="442"/>
      <point x="41" y="378"/>
      <point x="41" y="312" type="curve" smooth="yes"/>
      <point x="41" y="229"/>
      <point x="92" y="183"/>
      <point x="188" y="117" type="curve" smooth="yes"/>
      <point x="266" y="63"/>
      <point x="354" y="9"/>
      <point x="354" y="-70" type="curve" smooth="yes"/>
      <point x="354" y="-115"/>
      <point x="326" y="-169"/>
      <point x="245" y="-169" type="curve" smooth="yes"/>
      <point x="214" y="-169"/>
      <point x="159" y="-161"/>
      <point x="147" y="-133" type="curve"/>
      <point x="178" y="-125"/>
      <point x="190" y="-103"/>
      <point x="190" y="-80" type="curve" smooth="yes"/>
      <point x="190" y="-48"/>
      <point x="165" y="-27"/>
      <point x="135" y="-27" type="curve" smooth="yes"/>
      <point x="101" y="-27"/>
      <point x="82" y="-52"/>
      <point x="82" y="-81" type="curve" smooth="yes"/>
      <point x="82" y="-116"/>
      <point x="111" y="-151"/>
      <point x="159" y="-171" type="curve" smooth="yes"/>
      <point x="179" y="-179"/>
      <point x="208" y="-188"/>
      <point x="248" y="-188" type="curve" smooth="yes"/>
      <point x="355" y="-188"/>
      <point x="424" y="-124"/>
      <point x="424" y="-31" type="curve" smooth="yes"/>
      <point x="424" y="69"/>
      <point x="343" y="123"/>
      <point x="239" y="194" type="curve" smooth="yes"/>
      <point x="163" y="246"/>
      <point x="95" y="295"/>
      <point x="95" y="362" type="curve" smooth="yes"/>
      <point x="95" y="406"/>
      <point x="120" y="451"/>
      <point x="179" y="479" type="curve"/>
      <point x="168" y="491" type="line"/>
    </contour>
  </outline>
</glyph>
<glyph name="dieresis" format="1">
  <advance width="390"/>
  <unicode hex="00A8"/>
  <outline>
    <contour>
      <point x="269" y="743"/>
      <point x="243" y="716"/>
      <point x="243" y="685" type="curve" smooth="yes"/>
      <point x="243" y="653"/>
      <point x="269" y="627"/>
      <point x="301" y="627" type="curve" smooth="yes"/>
      <point x="332" y="627"/>
      <point x="359" y="653"/>
      <point x="359" y="685" type="curve" smooth="yes"/>
      <point x="359" y="716"/>
      <point x="332" y="743"/>
      <point x="301" y="743" type="curve" smooth="yes"/>
    </contour>
    <contour>
      <point x="57" y="743"/>
      <point x="31" y="716"/>
      <point x="31" y="685" type="curve" smooth="yes"/>
      <point x="31" y="653"/>
      <point x="57" y="627"/>
      <point x="89" y="627" type="curve" smooth="yes"/>
      <point x="120" y="627"/>
      <point x="147" y="653"/>
      <point x="147" y="685" type="curve" smooth="yes"/>
      <point x="147" y="716"/>
      <point x="120" y="743"/>
      <point x="89" y="743" type="curve" smooth="yes"/>
    </contour>
    <contour>
      <point x="194" y="514" type="move" name="_top"/>
    </contour>
  </outline>
</glyph>
<glyph name="copyright" format="1">
  <advance width="894"/>
  <unicode hex="00A9"/>
  <outline>
    <contour>
      <point x="227" y="782"/>
      <point x="49" y="604"/>
      <point x="49" y="384" type="curve" smooth="yes"/>
      <point x="49" y="164"/>
      <point x="227" y="-14"/>
      <point x="447" y="-14" type="curve" smooth="yes"/>
      <point x="667" y="-14"/>
      <point x="845" y="164"/>
      <point x="845" y="384" type="curve" smooth="yes"/>
      <point x="845" y="604"/>
      <point x="667" y="782"/>
      <point x="447" y="782" type="curve" smooth="yes"/>
    </contour>
    <contour>
      <point x="325" y="656"/>
      <point x="230" y="542"/>
      <point x="230" y="378" type="curve" smooth="yes"/>
      <point x="230" y="213"/>
      <point x="327" y="113"/>
      <point x="452" y="113" type="curve" smooth="yes"/>
      <point x="558" y="113"/>
      <point x="615" y="187"/>
      <point x="635" y="252" type="curve"/>
      <point x="616" y="259" type="line"/>
      <point x="581" y="183"/>
      <point x="523" y="156"/>
      <point x="470" y="156" type="curve" smooth="yes"/>
      <point x="394" y="156"/>
      <point x="327" y="218"/>
      <point x="327" y="390" type="curve" smooth="yes"/>
      <point x="327" y="498"/>
      <point x="351" y="563"/>
      <point x="384" y="599" type="curve" smooth="yes"/>
      <point x="410" y="627"/>
      <point x="441" y="638"/>
      <point x="470" y="638" type="curve" smooth="yes"/>
      <point x="508" y="638"/>
      <point x="547" y="620"/>
      <point x="560" y="596" type="curve"/>
      <point x="535" y="591"/>
      <point x="518" y="573"/>
      <point x="518" y="545" type="curve" smooth="yes"/>
      <point x="518" y="511"/>
      <point x="543" y="491"/>
      <point x="573" y="491" type="curve" smooth="yes"/>
      <point x="603" y="491"/>
      <point x="626" y="511"/>
      <point x="626" y="547" type="curve" smooth="yes"/>
      <point x="626" y="578"/>
      <point x="610" y="603"/>
      <point x="584" y="621" type="curve" smooth="yes"/>
      <point x="553" y="644"/>
      <point x="509" y="656"/>
      <point x="464" y="656" type="curve" smooth="yes"/>
    </contour>
    <contour>
      <point x="645" y="750"/>
      <point x="805" y="586"/>
      <point x="805" y="384" type="curve" smooth="yes"/>
      <point x="805" y="182"/>
      <point x="645" y="18"/>
      <point x="447" y="18" type="curve" smooth="yes"/>
      <point x="249" y="18"/>
      <point x="89" y="182"/>
      <point x="89" y="384" type="curve" smooth="yes"/>
      <point x="89" y="586"/>
      <point x="249" y="750"/>
      <point x="447" y="750" type="curve" smooth="yes"/>
    </contour>
  </outline>
</glyph>
<glyph name="guillemotleft" format="1">
  <advance width="502"/>
  <unicode hex="00AB"/>
  <outline>
    <contour>
      <point x="207" y="406"/>
      <point x="138" y="317"/>
      <point x="32" y="258" type="curve"/>
      <point x="32" y="257" type="line"/>
      <point x="138" y="198"/>
      <point x="207" y="109"/>
      <point x="262" y="-14" type="curve"/>
      <point x="279" y="-7" type="line"/>
      <point x="230" y="124"/>
      <point x="176" y="201"/>
      <point x="107" y="261" type="curve"/>
      <point x="176" y="321"/>
      <point x="230" y="391"/>
      <point x="279" y="522" type="curve"/>
      <point x="262" y="529" type="line"/>
    </contour>
    <contour>
      <point x="382" y="406"/>
      <point x="313" y="317"/>
      <point x="207" y="258" type="curve"/>
      <point x="207" y="257" type="line"/>
      <point x="313" y="198"/>
      <point x="382" y="109"/>
      <point x="437" y="-14" type="curve"/>
      <point x="454" y="-7" type="line"/>
      <point x="405" y="124"/>
      <point x="351" y="201"/>
      <point x="282" y="261" type="curve"/>
      <point x="351" y="321"/>
      <point x="405" y="391"/>
      <point x="454" y="522" type="curve"/>
      <point x="437" y="529" type="line"/>
    </contour>
  </outline>
</glyph>
<glyph name="logicalnot" format="1">
  <advance width="656"/>
  <unicode hex="00AC"/>
  <outline>
    <contour>
      <point x="583" y="370" type="line"/>
      <point x="82" y="370" type="line"/>
      <point x="82" y="340" type="line"/>
      <point x="547" y="340" type="line"/>
      <point x="547" y="165" type="line"/>
      <point x="583" y="165" type="line"/>
    </contour>
  </outline>
</glyph>
<glyph name="twosuperior" format="1">
  <advance width="338"/>
  <unicode hex="00B2"/>
  <outline>
    <contour>
      <point x="103" y="755"/>
      <point x="58" y="716"/>
      <point x="36" y="675" type="curve"/>
      <point x="51" y="667" type="line"/>
      <point x="75" y="705"/>
      <point x="106" y="721"/>
      <point x="146" y="721" type="curve" smooth="yes"/>
      <point x="187" y="721"/>
      <point x="211" y="705"/>
      <point x="211" y="667" type="curve" smooth="yes"/>
      <point x="211" y="573"/>
      <point x="94" y="508"/>
      <point x="35" y="458" type="curve"/>
      <point x="35" y="438" type="line"/>
      <point x="255" y="438" type="line" smooth="yes"/>
      <point x="268" y="438"/>
      <point x="281" y="438"/>
      <point x="293" y="435" type="curve"/>
      <point x="294" y="460"/>
      <point x="299" y="490"/>
      <point x="308" y="525" type="curve"/>
      <point x="291" y="528" type="line"/>
      <point x="282" y="506"/>
      <point x="276" y="494"/>
      <point x="244" y="494" type="curve" smooth="yes"/>
      <point x="112" y="494" type="line"/>
      <point x="165" y="551"/>
      <point x="274" y="598"/>
      <point x="274" y="680" type="curve" smooth="yes"/>
      <point x="274" y="731"/>
      <point x="232" y="755"/>
      <point x="174" y="755" type="curve" smooth="yes"/>
    </contour>
  </outline>
</glyph>
<glyph name="acute" format="1">
  <advance width="223"/>
  <unicode hex="00B4"/>
  <outline>
    <contour>
      <point x="173" y="825"/>
      <point x="149" y="824"/>
      <point x="129" y="798" type="curve" smooth="yes"/>
      <point x="99" y="759"/>
      <point x="82" y="705"/>
      <point x="20" y="608" type="curve"/>
      <point x="31" y="599" type="line"/>
      <point x="110" y="683"/>
      <point x="158" y="712"/>
      <point x="189" y="751" type="curve" smooth="yes"/>
      <point x="209" y="777"/>
      <point x="205" y="800"/>
      <point x="189" y="813" type="curve" smooth="yes"/>
    </contour>
    <contour>
      <point x="82" y="514" type="move" name="_top"/>
    </contour>
  </outline>
</glyph>
<glyph name="paragraph" format="1">
  <advance width="645"/>
  <unicode hex="00B6"/>
  <outline>
    <contour>
      <point x="167" y="709"/>
      <point x="35" y="564"/>
      <point x="35" y="360" type="curve" smooth="yes"/>
      <point x="35" y="147"/>
      <point x="139" y="-13"/>
      <point x="434" y="-13" type="curve"/>
      <point x="434" y="-65" type="line" smooth="yes"/>
      <point x="434" y="-136"/>
      <point x="417" y="-158"/>
      <point x="333" y="-161" type="curve"/>
      <point x="333" y="-181" type="line"/>
      <point x="365" y="-179"/>
      <point x="421" y="-178"/>
      <point x="481" y="-178" type="curve" smooth="yes"/>
      <point x="527" y="-178"/>
      <point x="577" y="-179"/>
      <point x="608" y="-181" type="curve"/>
      <point x="608" y="-161" type="line"/>
      <point x="540" y="-158"/>
      <point x="527" y="-148"/>
      <point x="527" y="-75" type="curve" smooth="yes"/>
      <point x="527" y="621" type="line" smooth="yes"/>
      <point x="527" y="665"/>
      <point x="539" y="686"/>
      <point x="604" y="689" type="curve"/>
      <point x="604" y="708" type="line"/>
      <point x="538" y="702"/>
      <point x="471" y="709"/>
      <point x="393" y="709" type="curve" smooth="yes"/>
    </contour>
    <contour>
      <point x="435" y="652"/>
      <point x="435" y="48"/>
      <point x="435" y="48" type="curve" smooth="yes"/>
      <point x="429" y="48"/>
      <point x="406" y="174"/>
      <point x="404" y="337" type="curve"/>
      <point x="250" y="337"/>
      <point x="124" y="347"/>
      <point x="124" y="351" type="curve" smooth="yes"/>
      <point x="124" y="354"/>
      <point x="250" y="366"/>
      <point x="404" y="366" type="curve"/>
      <point x="406" y="523"/>
      <point x="429" y="656"/>
      <point x="435" y="656" type="curve"/>
    </contour>
  </outline>
</glyph>
<glyph name="cedilla" format="1">
  <advance width="228"/>
  <unicode hex="00B8"/>
  <outline>
    <contour>
      <point x="85" y="6" type="line"/>
      <point x="51" y="-96" type="line"/>
      <point x="66" y="-91"/>
      <point x="89" y="-89"/>
      <point x="100" y="-89" type="curve" smooth="yes"/>
      <point x="127" y="-89"/>
      <point x="142" y="-98"/>
      <point x="142" y="-117" type="curve" smooth="yes"/>
      <point x="142" y="-153"/>
      <point x="91" y="-162"/>
      <point x="52" y="-162" type="curve" smooth="yes"/>
      <point x="36" y="-162"/>
      <point x="21" y="-160"/>
      <point x="14" y="-159" type="curve"/>
      <point x="10" y="-177" type="line"/>
      <point x="28" y="-183"/>
      <point x="56" y="-188"/>
      <point x="93" y="-188" type="curve" smooth="yes"/>
      <point x="141" y="-188"/>
      <point x="206" y="-168"/>
      <point x="206" y="-112" type="curve" smooth="yes"/>
      <point x="206" y="-82"/>
      <point x="182" y="-65"/>
      <point x="145" y="-65" type="curve" smooth="yes"/>
      <point x="123" y="-65"/>
      <point x="103" y="-68"/>
      <point x="86" y="-72" type="curve"/>
      <point x="112" y="6" type="line"/>
    </contour>
    <contour>
      <point x="115" y="0" type="move" name="_bottom"/>
    </contour>
  </outline>
</glyph>
<glyph name="guillemotright" format="1">
  <advance width="501"/>
  <unicode hex="00BB"/>
  <outline>
    <contour>
      <point x="223" y="521" type="line"/>
      <point x="272" y="390"/>
      <point x="326" y="313"/>
      <point x="395" y="253" type="curve"/>
      <point x="326" y="193"/>
      <point x="272" y="123"/>
      <point x="223" y="-8" type="curve"/>
      <point x="240" y="-15" type="line"/>
      <point x="295" y="108"/>
      <point x="364" y="197"/>
      <point x="470" y="256" type="curve"/>
      <point x="470" y="257" type="line"/>
      <point x="364" y="316"/>
      <point x="295" y="405"/>
      <point x="240" y="528" type="curve"/>
    </contour>
    <contour>
      <point x="48" y="521" type="line"/>
      <point x="97" y="390"/>
      <point x="151" y="313"/>
      <point x="220" y="253" type="curve"/>
      <point x="151" y="193"/>
      <point x="97" y="123"/>
      <point x="48" y="-8" type="curve"/>
      <point x="65" y="-15" type="line"/>
      <point x="120" y="108"/>
      <point x="189" y="197"/>
      <point x="295" y="256" type="curve"/>
      <point x="295" y="257" type="line"/>
      <point x="189" y="316"/>
      <point x="120" y="405"/>
      <point x="65" y="528" type="curve"/>
    </contour>
  </outline>
</glyph>
<glyph name="questiondown" format="1">
  <advance width="453"/>
  <unicode hex="00BF"/>
  <outline>
    <contour>
      <point x="256" y="320" type="line"/>
      <point x="256" y="194" type="line"/>
      <point x="122" y="163"/>
      <point x="31" y="90"/>
      <point x="31" y="-18" type="curve" smooth="yes"/>
      <point x="31" y="-124"/>
      <point x="116" y="-188"/>
      <point x="241" y="-188" type="curve" smooth="yes"/>
      <point x="308" y="-188"/>
      <point x="350" y="-175"/>
      <point x="377" y="-159" type="curve" smooth="yes"/>
      <point x="406" y="-142"/>
      <point x="424" y="-118"/>
      <point x="424" y="-90" type="curve" smooth="yes"/>
      <point x="424" y="-59"/>
      <point x="402" y="-37"/>
      <point x="371" y="-37" type="curve" smooth="yes"/>
      <point x="341" y="-37"/>
      <point x="316" y="-57"/>
      <point x="316" y="-91" type="curve" smooth="yes"/>
      <point x="316" y="-120"/>
      <point x="333" y="-137"/>
      <point x="358" y="-142" type="curve"/>
      <point x="335" y="-163"/>
      <point x="292" y="-168"/>
      <point x="260" y="-168" type="curve" smooth="yes"/>
      <point x="177" y="-168"/>
      <point x="120" y="-118"/>
      <point x="120" y="1" type="curve" smooth="yes"/>
      <point x="120" y="75"/>
      <point x="143" y="139"/>
      <point x="276" y="185" type="curve"/>
      <point x="276" y="320" type="line"/>
    </contour>
    <component base="period" xOffset="139" yOffset="416"/>
  </outline>
</glyph>
<glyph name="AE" format="1">
  <advance width="854"/>
  <unicode hex="00C6"/>
  <outline>
    <contour>
      <point x="476" y="772" type="line"/>
      <point x="59" y="84" type="line" smooth="yes"/>
      <point x="31" y="37"/>
      <point x="11" y="21"/>
      <point x="-10" y="20" type="curve"/>
      <point x="-10" y="0" type="line"/>
      <point x="7" y="2"/>
      <point x="34" y="3"/>
      <point x="57" y="3" type="curve" smooth="yes"/>
      <point x="93" y="3"/>
      <point x="128" y="2"/>
      <point x="148" y="0" type="curve"/>
      <point x="148" y="20" type="line"/>
      <point x="80" y="23"/>
      <point x="60" y="42"/>
      <point x="97" y="104" type="curve" smooth="yes"/>
      <point x="500" y="772" type="line"/>
    </contour>
    <contour>
      <point x="730" y="705"/>
      <point x="652" y="705"/>
      <point x="597" y="705" type="curve" smooth="yes"/>
      <point x="543" y="705"/>
      <point x="426" y="705"/>
      <point x="337" y="708" type="curve"/>
      <point x="337" y="688" type="line"/>
      <point x="405" y="685"/>
      <point x="418" y="675"/>
      <point x="418" y="602" type="curve" smooth="yes"/>
      <point x="418" y="106" type="line" smooth="yes"/>
      <point x="418" y="33"/>
      <point x="409" y="23"/>
      <point x="357" y="20" type="curve"/>
      <point x="357" y="0" type="line"/>
      <point x="440" y="3"/>
      <point x="547" y="3"/>
      <point x="597" y="3" type="curve" smooth="yes"/>
      <point x="658" y="3"/>
      <point x="744" y="3"/>
      <point x="806" y="0" type="curve"/>
      <point x="801" y="51"/>
      <point x="799" y="103"/>
      <point x="799" y="128" type="curve" smooth="yes"/>
      <point x="799" y="156"/>
      <point x="800" y="182"/>
      <point x="802" y="200" type="curve"/>
      <point x="779" y="200" type="line"/>
      <point x="768" y="68"/>
      <point x="763" y="23"/>
      <point x="665" y="23" type="curve" smooth="yes"/>
      <point x="592" y="23" type="line" smooth="yes"/>
      <point x="524" y="23"/>
      <point x="511" y="33"/>
      <point x="511" y="106" type="curve" smooth="yes"/>
      <point x="511" y="602" type="line" smooth="yes"/>
      <point x="511" y="675"/>
      <point x="524" y="685"/>
      <point x="592" y="685" type="curve" smooth="yes"/>
      <point x="655" y="685" type="line" smooth="yes"/>
      <point x="737" y="685"/>
      <point x="749" y="646"/>
      <point x="759" y="528" type="curve"/>
      <point x="782" y="528" type="line"/>
      <point x="780" y="543"/>
      <point x="779" y="566"/>
      <point x="779" y="590" type="curve" smooth="yes"/>
      <point x="779" y="613"/>
      <point x="781" y="661"/>
      <point x="786" y="708" type="curve"/>
    </contour>
    <contour>
      <point x="241" y="366" type="line"/>
      <point x="231" y="346" type="line"/>
      <point x="451" y="346" type="line"/>
      <point x="451" y="366" type="line"/>
    </contour>
    <contour>
      <point x="481" y="366" type="line"/>
      <point x="481" y="366"/>
      <point x="481" y="346"/>
      <point x="481" y="346" type="curve"/>
      <point x="651" y="346" type="line"/>
      <point x="651" y="346"/>
      <point x="651" y="366"/>
      <point x="651" y="366" type="curve"/>
    </contour>
    <contour>
      <point x="657" y="478" type="line"/>
      <point x="651" y="438"/>
      <point x="654" y="366"/>
      <point x="584" y="366" type="curve"/>
      <point x="584" y="346" type="line"/>
      <point x="653" y="346"/>
      <point x="654" y="288"/>
      <point x="660" y="234" type="curve"/>
      <point x="683" y="234" type="line"/>
      <point x="678" y="300"/>
      <point x="677" y="327"/>
      <point x="677" y="356" type="curve" smooth="yes"/>
      <point x="677" y="385"/>
      <point x="675" y="412"/>
      <point x="680" y="478" type="curve"/>
    </contour>
    <contour>
      <point x="427" y="708" type="move" name="top"/>
    </contour>
  </outline>
</glyph>
<glyph name="Eth" format="1">
  <advance width="724"/>
  <unicode hex="00D0"/>
  <outline>
    <contour>
      <point x="43" y="366" type="line"/>
      <point x="43" y="346" type="line"/>
      <point x="356" y="346" type="line"/>
      <point x="356" y="366" type="line"/>
    </contour>
    <component base="D" xOffset="1"/>
  </outline>
</glyph>
<glyph name="multiply" format="1">
  <advance width="510"/>
  <unicode hex="00D7"/>
  <outline>
    <contour>
      <point x="59" y="530" type="line"/>
      <point x="234" y="355" type="line"/>
      <point x="60" y="182" type="line"/>
      <point x="82" y="160" type="line"/>
      <point x="256" y="334" type="line"/>
      <point x="429" y="161" type="line"/>
      <point x="451" y="183" type="line"/>
      <point x="278" y="356" type="line"/>
      <point x="451" y="528" type="line"/>
      <point x="429" y="550" type="line"/>
      <point x="256" y="377" type="line"/>
      <point x="81" y="552" type="line"/>
    </contour>
  </outline>
</glyph>
<glyph name="Oslash" format="1">
  <advance width="741"/>
  <unicode hex="00D8"/>
  <outline>
    <contour>
      <point x="186" y="95" type="line"/>
      <point x="204" y="77" type="line"/>
      <point x="554" y="612" type="line"/>
      <point x="539" y="632" type="line"/>
    </contour>
    <contour>
      <point x="73" y="-59" type="line"/>
      <point x="94" y="-73" type="line"/>
      <point x="196" y="77" type="line"/>
      <point x="178" y="95" type="line"/>
    </contour>
    <contour>
      <point x="546" y="632" type="line"/>
      <point x="561" y="612" type="line"/>
      <point x="662" y="760" type="line"/>
      <point x="643" y="773" type="line"/>
    </contour>
    <component base="O"/>
    <contour>
      <point x="377" y="708" type="move" name="top"/>
    </contour>
  </outline>
</glyph>
<glyph name="ae" format="1">
  <advance width="745"/>
  <unicode hex="00E6"/>
  <outline>
    <contour>
      <point x="163" y="-7" type="curve" smooth="yes"/>
      <point x="221" y="-7"/>
      <point x="288" y="8"/>
      <point x="347" y="123" type="curve"/>
      <point x="408" y="350" type="line"/>
      <point x="408" y="414"/>
      <point x="401" y="460"/>
      <point x="368" y="492" type="curve" smooth="yes"/>
      <point x="342" y="516"/>
      <point x="305" y="529"/>
      <point x="250" y="529" type="curve" smooth="yes"/>
      <point x="188" y="529"/>
      <point x="138" y="511"/>
      <point x="108" y="490" type="curve" smooth="yes"/>
      <point x="81" y="471"/>
      <point x="62" y="452"/>
      <point x="62" y="418" type="curve" smooth="yes"/>
      <point x="62" y="387"/>
      <point x="79" y="358"/>
      <point x="118" y="358" type="curve" smooth="yes"/>
      <point x="151" y="358"/>
      <point x="175" y="378"/>
      <point x="175" y="412" type="curve" smooth="yes"/>
      <point x="175" y="445"/>
      <point x="153" y="467"/>
      <point x="128" y="473" type="curve"/>
      <point x="151" y="502"/>
      <point x="193" y="509"/>
      <point x="227" y="509" type="curve" smooth="yes"/>
      <point x="279" y="509"/>
      <point x="320" y="492"/>
      <point x="320" y="408" type="curve" smooth="yes"/>
      <point x="320" y="346" type="line" smooth="yes"/>
      <point x="320" y="253"/>
      <point x="39" y="279"/>
      <point x="39" y="112" type="curve" smooth="yes"/>
      <point x="39" y="40"/>
      <point x="76" y="-7"/>
    </contour>
    <contour>
      <point x="207" y="33" type="curve" smooth="yes"/>
      <point x="161" y="33"/>
      <point x="127" y="62"/>
      <point x="127" y="124" type="curve" smooth="yes"/>
      <point x="127" y="254"/>
      <point x="280" y="247"/>
      <point x="320" y="305" type="curve"/>
      <point x="320" y="109" type="line"/>
      <point x="286" y="54"/>
      <point x="247" y="33"/>
    </contour>
    <contour>
      <point x="529" y="-14" type="curve" smooth="yes"/>
      <point x="618" y="-14"/>
      <point x="676" y="53"/>
      <point x="696" y="120" type="curve"/>
      <point x="676" y="128" type="line"/>
      <point x="645" y="53"/>
      <point x="601" y="28"/>
      <point x="549" y="28" type="curve" smooth="yes"/>
      <point x="477" y="28"/>
      <point x="408" y="108"/>
      <point x="408" y="245" type="curve" smooth="yes"/>
      <point x="408" y="269"/>
      <point x="409" y="294"/>
      <point x="412" y="314" type="curve"/>
      <point x="409" y="318" type="line"/>
      <point x="417" y="451"/>
      <point x="465" y="510"/>
      <point x="521" y="510" type="curve" smooth="yes"/>
      <point x="581" y="510"/>
      <point x="609" y="426"/>
      <point x="606" y="328" type="curve"/>
      <point x="378" y="328" type="line"/>
      <point x="379" y="309" type="line"/>
      <point x="702" y="309" type="line"/>
      <point x="702" y="460"/>
      <point x="636" y="529"/>
      <point x="525" y="529" type="curve" smooth="yes"/>
      <point x="400" y="529"/>
      <point x="323" y="431"/>
      <point x="323" y="245" type="curve" smooth="yes"/>
      <point x="323" y="82"/>
      <point x="396" y="-14"/>
    </contour>
    <contour>
      <point x="380" y="0" type="move" name="bottom"/>
    </contour>
    <contour>
      <point x="593" y="0" type="move" name="ogonek"/>
    </contour>
    <contour>
      <point x="374" y="514" type="move" name="top"/>
    </contour>
  </outline>
</glyph>
<glyph name="eth" format="1">
  <advance width="554"/>
  <unicode hex="00F0"/>
  <outline>
    <contour>
      <point x="130" y="765" type="line"/>
      <point x="267" y="701"/>
      <point x="403" y="608"/>
      <point x="403" y="302" type="curve" smooth="yes"/>
      <point x="403" y="72"/>
      <point x="335" y="6"/>
      <point x="265" y="6" type="curve" smooth="yes"/>
      <point x="200" y="6"/>
      <point x="143" y="73"/>
      <point x="143" y="253" type="curve" smooth="yes"/>
      <point x="143" y="443"/>
      <point x="200" y="508"/>
      <point x="271" y="508" type="curve" smooth="yes"/>
      <point x="326" y="508"/>
      <point x="394" y="485"/>
      <point x="403" y="342" type="curve"/>
      <point x="424" y="346" type="line"/>
      <point x="414" y="471"/>
      <point x="365" y="529"/>
      <point x="264" y="529" type="curve" smooth="yes"/>
      <point x="120" y="529"/>
      <point x="46" y="387"/>
      <point x="46" y="255" type="curve" smooth="yes"/>
      <point x="46" y="76"/>
      <point x="139" y="-14"/>
      <point x="270" y="-14" type="curve" smooth="yes"/>
      <point x="387" y="-14"/>
      <point x="498" y="87"/>
      <point x="498" y="302" type="curve" smooth="yes"/>
      <point x="498" y="569"/>
      <point x="331" y="706"/>
      <point x="138" y="782" type="curve"/>
    </contour>
    <contour>
      <point x="88" y="600" type="line"/>
      <point x="97" y="582" type="line"/>
      <point x="296" y="679" type="line"/>
      <point x="279" y="693" type="line"/>
    </contour>
    <contour>
      <point x="279" y="693" type="line"/>
      <point x="296" y="679" type="line"/>
      <point x="444" y="751" type="line"/>
      <point x="435" y="769" type="line"/>
    </contour>
  </outline>
</glyph>
<glyph name="divide" format="1">
  <advance width="649"/>
  <unicode hex="00F7"/>
  <outline>
    <contour>
      <point x="294" y="266"/>
      <point x="269" y="241"/>
      <point x="269" y="211" type="curve" smooth="yes"/>
      <point x="269" y="180"/>
      <point x="294" y="155"/>
      <point x="324" y="155" type="curve" smooth="yes"/>
      <point x="355" y="155"/>
      <point x="380" y="180"/>
      <point x="380" y="211" type="curve" smooth="yes"/>
      <point x="380" y="241"/>
      <point x="355" y="266"/>
      <point x="324" y="266" type="curve" smooth="yes"/>
    </contour>
    <contour>
      <point x="294" y="554"/>
      <point x="269" y="529"/>
      <point x="269" y="499" type="curve" smooth="yes"/>
      <point x="269" y="468"/>
      <point x="294" y="444"/>
      <point x="324" y="444" type="curve" smooth="yes"/>
      <point x="355" y="444"/>
      <point x="380" y="468"/>
      <point x="380" y="499" type="curve" smooth="yes"/>
      <point x="380" y="529"/>
      <point x="355" y="554"/>
      <point x="324" y="554" type="curve" smooth="yes"/>
    </contour>
    <component base="minus"/>
  </outline>
</glyph>
<glyph name="oslash" format="1">
  <advance width="547"/>
  <unicode hex="00F8"/>
  <outline>
    <contour>
      <point x="152" y="84" type="line"/>
      <point x="168" y="63" type="line"/>
      <point x="408" y="446" type="line"/>
      <point x="393" y="466" type="line"/>
    </contour>
    <contour>
      <point x="44" y="-59" type="line"/>
      <point x="65" y="-73" type="line"/>
      <point x="158" y="63" type="line"/>
      <point x="142" y="84" type="line"/>
    </contour>
    <contour>
      <point x="403" y="466" type="line"/>
      <point x="418" y="446" type="line"/>
      <point x="505" y="574" type="line"/>
      <point x="486" y="587" type="line"/>
    </contour>
    <component base="o"/>
    <contour>
      <point x="277" y="514" type="move" name="top"/>
    </contour>
  </outline>
</glyph>
<glyph name="thorn" format="1">
  <advance width="559"/>
  <unicode hex="00FE"/>
  <outline>
    <contour>
      <point x="137" y="773"/>
      <point x="101" y="769"/>
      <point x="62" y="769" type="curve" smooth="yes"/>
      <point x="42" y="769"/>
      <point x="21" y="770"/>
      <point x="0" y="772" type="curve"/>
      <point x="0" y="751" type="line"/>
      <point x="58" y="751"/>
      <point x="76" y="723"/>
      <point x="76" y="663" type="curve" smooth="yes"/>
      <point x="76" y="-98" type="line" smooth="yes"/>
      <point x="76" y="-146"/>
      <point x="58" y="-160"/>
      <point x="10" y="-160" type="curve"/>
      <point x="10" y="-181" type="line"/>
      <point x="31" y="-180"/>
      <point x="76" y="-177"/>
      <point x="118" y="-177" type="curve" smooth="yes"/>
      <point x="176" y="-177"/>
      <point x="233" y="-180"/>
      <point x="262" y="-181" type="curve"/>
      <point x="262" y="-160" type="line"/>
      <point x="202" y="-160"/>
      <point x="166" y="-145"/>
      <point x="166" y="-88" type="curve" smooth="yes"/>
      <point x="166" y="783" type="line"/>
    </contour>
    <contour>
      <point x="234" y="529"/>
      <point x="162" y="463"/>
      <point x="147" y="350" type="curve"/>
      <point x="159" y="336" type="line"/>
      <point x="173" y="445"/>
      <point x="233" y="499"/>
      <point x="299" y="499" type="curve" smooth="yes"/>
      <point x="375" y="499"/>
      <point x="415" y="426"/>
      <point x="415" y="267" type="curve" smooth="yes"/>
      <point x="415" y="125"/>
      <point x="383" y="9"/>
      <point x="272" y="9" type="curve" smooth="yes"/>
      <point x="218" y="9"/>
      <point x="183" y="37"/>
      <point x="165" y="75" type="curve"/>
      <point x="155" y="61" type="line"/>
      <point x="171" y="19"/>
      <point x="220" y="-14"/>
      <point x="283" y="-14" type="curve" smooth="yes"/>
      <point x="446" y="-14"/>
      <point x="512" y="136"/>
      <point x="512" y="281" type="curve" smooth="yes"/>
      <point x="512" y="442"/>
      <point x="431" y="529"/>
      <point x="326" y="529" type="curve" smooth="yes"/>
    </contour>
  </outline>
</glyph>
<glyph name="Dcroat" format="1">
  <advance width="724"/>
  <unicode hex="0110"/>
  <outline>
    <contour>
      <point x="43" y="366" type="line"/>
      <point x="43" y="346" type="line"/>
      <point x="356" y="346" type="line"/>
      <point x="356" y="366" type="line"/>
    </contour>
    <component base="D" xOffset="1"/>
  </outline>
</glyph>
<glyph name="dcroat" format="1">
  <advance width="581"/>
  <unicode hex="0111"/>
  <outline>
    <contour>
      <point x="216" y="628" type="line"/>
      <point x="216" y="608" type="line"/>
      <point x="570" y="608" type="line"/>
      <point x="570" y="628" type="line"/>
    </contour>
    <component base="d"/>
  </outline>
</glyph>
<glyph name="gcommaaccent" format="1">
  <advance width="505"/>
  <unicode hex="0123"/>
  <outline>
    <contour>
      <point x="82" y="187"/>
      <point x="49" y="148"/>
      <point x="49" y="101" type="curve" smooth="yes"/>
      <point x="49" y="35"/>
      <point x="115" y="24"/>
      <point x="149" y="24" type="curve" smooth="yes"/>
      <point x="353" y="24" type="line" smooth="yes"/>
      <point x="412" y="24"/>
      <point x="429" y="7"/>
      <point x="429" y="-28" type="curve" smooth="yes"/>
      <point x="429" y="-120"/>
      <point x="324" y="-171"/>
      <point x="237" y="-171" type="curve" smooth="yes"/>
      <point x="177" y="-171"/>
      <point x="109" y="-142"/>
      <point x="109" y="-78" type="curve" smooth="yes"/>
      <point x="109" y="-34"/>
      <point x="138" y="7"/>
      <point x="189" y="29" type="curve"/>
      <point x="177" y="34" type="line"/>
      <point x="103" y="5"/>
      <point x="27" y="-39"/>
      <point x="27" y="-100" type="curve" smooth="yes"/>
      <point x="27" y="-155"/>
      <point x="115" y="-188"/>
      <point x="212" y="-188" type="curve" smooth="yes"/>
      <point x="400" y="-188"/>
      <point x="488" y="-78"/>
      <point x="488" y="14" type="curve" smooth="yes"/>
      <point x="488" y="88"/>
      <point x="435" y="110"/>
      <point x="371" y="110" type="curve" smooth="yes"/>
      <point x="164" y="110" type="line" smooth="yes"/>
      <point x="130" y="110"/>
      <point x="108" y="113"/>
      <point x="108" y="143" type="curve" smooth="yes"/>
      <point x="108" y="179"/>
      <point x="141" y="197"/>
      <point x="190" y="228" type="curve"/>
      <point x="178" y="237" type="line"/>
    </contour>
    <contour>
      <point x="298" y="511"/>
      <point x="333" y="478"/>
      <point x="333" y="371" type="curve" smooth="yes"/>
      <point x="333" y="264"/>
      <point x="298" y="231"/>
      <point x="242" y="231" type="curve" smooth="yes"/>
      <point x="186" y="231"/>
      <point x="151" y="264"/>
      <point x="151" y="371" type="curve" smooth="yes"/>
      <point x="151" y="478"/>
      <point x="186" y="511"/>
      <point x="242" y="511" type="curve" smooth="yes"/>
    </contour>
    <contour>
      <point x="137" y="529"/>
      <point x="57" y="481"/>
      <point x="57" y="371" type="curve" smooth="yes"/>
      <point x="57" y="261"/>
      <point x="137" y="213"/>
      <point x="242" y="213" type="curve" smooth="yes"/>
      <point x="347" y="213"/>
      <point x="427" y="261"/>
      <point x="427" y="371" type="curve" smooth="yes"/>
      <point x="427" y="481"/>
      <point x="347" y="529"/>
      <point x="242" y="529" type="curve" smooth="yes"/>
    </contour>
    <contour>
      <point x="384" y="646"/>
      <point x="359" y="622"/>
      <point x="344" y="599" type="curve" smooth="yes"/>
      <point x="330" y="578"/>
      <point x="317" y="549"/>
      <point x="311" y="510" type="curve"/>
      <point x="328" y="495" type="line"/>
      <point x="330" y="520"/>
      <point x="337" y="541"/>
      <point x="343" y="556" type="curve" smooth="yes"/>
      <point x="349" y="570"/>
      <point x="356" y="582"/>
      <point x="364" y="585" type="curve"/>
      <point x="367" y="555"/>
      <point x="387" y="538"/>
      <point x="415" y="538" type="curve" smooth="yes"/>
      <point x="449" y="538"/>
      <point x="469" y="563"/>
      <point x="469" y="593" type="curve" smooth="yes"/>
      <point x="469" y="624"/>
      <point x="447" y="646"/>
      <point x="416" y="646" type="curve" smooth="yes"/>
    </contour>
    <component base="commaaccentcomb" xOffset="345" yOffset="575" xScale="-1" yScale="-1"/>
  </outline>
</glyph>
<glyph name="Hbar" format="1">
  <advance width="757"/>
  <unicode hex="0126"/>
  <outline>
    <contour>
      <point x="42" y="533" type="line"/>
      <point x="42" y="513" type="line"/>
      <point x="715" y="513" type="line"/>
      <point x="715" y="533" type="line"/>
    </contour>
    <component base="H"/>
  </outline>
</glyph>
<glyph name="hbar" format="1">
  <advance width="588"/>
  <unicode hex="0127"/>
  <outline>
    <contour>
      <point x="10" y="628" type="line"/>
      <point x="10" y="608" type="line"/>
      <point x="364" y="608" type="line"/>
      <point x="364" y="628" type="line"/>
    </contour>
    <component base="h"/>
  </outline>
</glyph>
<glyph name="imacron" format="1">
  <advance width="293"/>
  <unicode hex="012B"/>
  <outline>
    <contour>
      <point x="281" y="712" type="line"/>
      <point x="-11" y="712" type="line"/>
      <point x="-11" y="687" type="line"/>
      <point x="281" y="687" type="line"/>
    </contour>
    <component base="dotlessi"/>
  </outline>
</glyph>
<glyph name="dotlessi" format="1">
  <advance width="293"/>
  <unicode hex="0131"/>
  <outline>
    <contour>
      <point x="166" y="516"/>
      <point x="130" y="512"/>
      <point x="91" y="512" type="curve" smooth="yes"/>
      <point x="71" y="512"/>
      <point x="50" y="513"/>
      <point x="29" y="515" type="curve"/>
      <point x="29" y="494" type="line"/>
      <point x="87" y="494"/>
      <point x="105" y="466"/>
      <point x="105" y="406" type="curve" smooth="yes"/>
      <point x="105" y="93" type="line" smooth="yes"/>
      <point x="105" y="37"/>
      <point x="84" y="21"/>
      <point x="29" y="21" type="curve"/>
      <point x="29" y="0" type="line"/>
      <point x="52" y="1"/>
      <point x="104" y="4"/>
      <point x="150" y="4" type="curve" smooth="yes"/>
      <point x="196" y="4"/>
      <point x="248" y="1"/>
      <point x="271" y="0" type="curve"/>
      <point x="271" y="21" type="line"/>
      <point x="216" y="21"/>
      <point x="195" y="37"/>
      <point x="195" y="93" type="curve" smooth="yes"/>
      <point x="195" y="526" type="line"/>
    </contour>
    <contour>
      <point x="150" y="0" type="move" name="bottom"/>
    </contour>
    <contour>
      <point x="261" y="0" type="move" name="ogonek"/>
    </contour>
    <contour>
      <point x="141" y="514" type="move" name="top"/>
    </contour>
  </outline>
</glyph>
<glyph name="ij" format="1">
  <advance width="562"/>
  <unicode hex="0133"/>
  <outline>
    <contour>
      <point x="454" y="516"/>
      <point x="418" y="512"/>
      <point x="379" y="512" type="curve" smooth="yes"/>
      <point x="359" y="512"/>
      <point x="338" y="513"/>
      <point x="317" y="515" type="curve"/>
      <point x="317" y="494" type="line"/>
      <point x="375" y="494"/>
      <point x="393" y="466"/>
      <point x="393" y="406" type="curve" smooth="yes"/>
      <point x="393" y="199" type="line" smooth="yes"/>
      <point x="393" y="97"/>
      <point x="341" y="18"/>
      <point x="258" y="18" type="curve" smooth="yes"/>
      <point x="186" y="18"/>
      <point x="182" y="71"/>
      <point x="182" y="133" type="curve" smooth="yes"/>
      <point x="182" y="526" type="line"/>
      <point x="153" y="516"/>
      <point x="117" y="512"/>
      <point x="78" y="512" type="curve" smooth="yes"/>
      <point x="58" y="512"/>
      <point x="37" y="513"/>
      <point x="16" y="515" type="curve"/>
      <point x="16" y="494" type="line"/>
      <point x="74" y="494"/>
      <point x="92" y="466"/>
      <point x="92" y="406" type="curve" smooth="yes"/>
      <point x="92" y="155" type="line" smooth="yes"/>
      <point x="92" y="92"/>
      <point x="100" y="51"/>
      <point x="125" y="24" type="curve" smooth="yes"/>
      <point x="148" y="0"/>
      <point x="182" y="-14"/>
      <point x="229" y="-14" type="curve" smooth="yes"/>
      <point x="312" y="-14"/>
      <point x="369" y="35"/>
      <point x="393" y="113" type="curve"/>
      <point x="393" y="-46" type="line" smooth="yes"/>
      <point x="393" y="-136"/>
      <point x="371" y="-173"/>
      <point x="314" y="-173" type="curve" smooth="yes"/>
      <point x="309" y="-173"/>
      <point x="303" y="-173"/>
      <point x="297" y="-172" type="curve"/>
      <point x="321" y="-162"/>
      <point x="331" y="-147"/>
      <point x="331" y="-127" type="curve" smooth="yes"/>
      <point x="331" y="-99"/>
      <point x="311" y="-83"/>
      <point x="284" y="-83" type="curve" smooth="yes"/>
      <point x="253" y="-83"/>
      <point x="235" y="-103"/>
      <point x="235" y="-132" type="curve" smooth="yes"/>
      <point x="235" y="-167"/>
      <point x="262" y="-188"/>
      <point x="316" y="-188" type="curve" smooth="yes"/>
      <point x="454" y="-188"/>
      <point x="483" y="-48"/>
      <point x="483" y="115" type="curve" smooth="yes"/>
      <point x="483" y="526" type="line"/>
    </contour>
    <component base="dotaccent" xOffset="24"/>
    <component base="dotaccent" xOffset="328"/>
  </outline>
</glyph>
<glyph name="kgreenlandic" format="1">
  <advance width="563"/>
  <unicode hex="0138"/>
  <outline>
    <contour>
      <point x="506" y="513"/>
      <point x="485" y="512"/>
      <point x="456" y="512" type="curve" smooth="yes"/>
      <point x="427" y="512"/>
      <point x="388" y="513"/>
      <point x="353" y="515" type="curve"/>
      <point x="353" y="495" type="line"/>
      <point x="405" y="495"/>
      <point x="421" y="472"/>
      <point x="392" y="440" type="curve" smooth="yes"/>
      <point x="273" y="309" type="line" smooth="yes"/>
      <point x="249" y="284"/>
      <point x="230" y="270"/>
      <point x="191" y="264" type="curve"/>
      <point x="191" y="244" type="line"/>
      <point x="212" y="244"/>
      <point x="229" y="230"/>
      <point x="251" y="203" type="curve" smooth="yes"/>
      <point x="385" y="55" type="line" smooth="yes"/>
      <point x="401" y="38"/>
      <point x="387" y="21"/>
      <point x="360" y="21" type="curve"/>
      <point x="360" y="0" type="line"/>
      <point x="381" y="1"/>
      <point x="429" y="4"/>
      <point x="471" y="4" type="curve" smooth="yes"/>
      <point x="501" y="4"/>
      <point x="537" y="1"/>
      <point x="552" y="0" type="curve"/>
      <point x="552" y="21" type="line"/>
      <point x="529" y="25"/>
      <point x="505" y="50"/>
      <point x="481" y="76" type="curve" smooth="yes"/>
      <point x="287" y="288" type="line"/>
      <point x="433" y="448" type="line" smooth="yes"/>
      <point x="467" y="486"/>
      <point x="490" y="492"/>
      <point x="523" y="495" type="curve"/>
      <point x="523" y="515" type="line"/>
    </contour>
    <contour>
      <point x="166" y="516"/>
      <point x="130" y="512"/>
      <point x="91" y="512" type="curve" smooth="yes"/>
      <point x="71" y="512"/>
      <point x="50" y="513"/>
      <point x="29" y="515" type="curve"/>
      <point x="29" y="494" type="line"/>
      <point x="87" y="494"/>
      <point x="105" y="466"/>
      <point x="105" y="406" type="curve" smooth="yes"/>
      <point x="105" y="93" type="line" smooth="yes"/>
      <point x="105" y="37"/>
      <point x="84" y="21"/>
      <point x="29" y="21" type="curve"/>
      <point x="29" y="0" type="line"/>
      <point x="52" y="1"/>
      <point x="104" y="4"/>
      <point x="150" y="4" type="curve" smooth="yes"/>
      <point x="192" y="4"/>
      <point x="240" y="1"/>
      <point x="261" y="0" type="curve"/>
      <point x="261" y="21" type="line"/>
      <point x="213" y="21"/>
      <point x="195" y="37"/>
      <point x="195" y="93" type="curve" smooth="yes"/>
      <point x="195" y="526" type="line"/>
    </contour>
  </outline>
</glyph>
<glyph name="Lslash" format="1">
  <advance width="588"/>
  <unicode hex="0141"/>
  <outline>
    <contour>
      <point x="189" y="308" type="line"/>
      <point x="189" y="285" type="line"/>
      <point x="473" y="450" type="line"/>
      <point x="473" y="473" type="line"/>
    </contour>
    <contour>
      <point x="42" y="233" type="line"/>
      <point x="42" y="210" type="line"/>
      <point x="189" y="295" type="line"/>
      <point x="189" y="318" type="line"/>
    </contour>
    <component base="L"/>
  </outline>
</glyph>
<glyph name="Eng" format="1">
  <advance width="705"/>
  <unicode hex="014A"/>
  <outline>
    <contour>
      <point x="648" y="706"/>
      <point x="611" y="705"/>
      <point x="577" y="705" type="curve" smooth="yes"/>
      <point x="543" y="705"/>
      <point x="509" y="706"/>
      <point x="485" y="708" type="curve"/>
      <point x="485" y="688" type="line"/>
      <point x="553" y="685"/>
      <point x="566" y="675"/>
      <point x="566" y="602" type="curve" smooth="yes"/>
      <point x="566" y="184" type="line"/>
      <point x="227" y="708" type="line"/>
      <point x="202" y="706"/>
      <point x="168" y="705"/>
      <point x="135" y="705" type="curve" smooth="yes"/>
      <point x="101" y="705"/>
      <point x="64" y="706"/>
      <point x="42" y="708" type="curve"/>
      <point x="42" y="688" type="line"/>
      <point x="110" y="685"/>
      <point x="123" y="675"/>
      <point x="123" y="602" type="curve" smooth="yes"/>
      <point x="123" y="106" type="line" smooth="yes"/>
      <point x="123" y="33"/>
      <point x="110" y="23"/>
      <point x="42" y="20" type="curve"/>
      <point x="42" y="0" type="line"/>
      <point x="64" y="2"/>
      <point x="101" y="3"/>
      <point x="135" y="3" type="curve" smooth="yes"/>
      <point x="169" y="3"/>
      <point x="203" y="2"/>
      <point x="227" y="0" type="curve"/>
      <point x="227" y="20" type="line"/>
      <point x="159" y="23"/>
      <point x="146" y="33"/>
      <point x="146" y="106" type="curve" smooth="yes"/>
      <point x="146" y="644" type="line"/>
      <point x="566" y="-5" type="line"/>
      <point x="569" y="-5"/>
      <point x="571" y="-5"/>
      <point x="574" y="-5" type="curve"/>
      <point x="589" y="276" type="line"/>
      <point x="589" y="602" type="line" smooth="yes"/>
      <point x="589" y="675"/>
      <point x="602" y="685"/>
      <point x="670" y="688" type="curve"/>
      <point x="670" y="708" type="line"/>
    </contour>
    <contour>
      <point x="589" y="445"/>
      <point x="566" y="445"/>
      <point x="566" y="445" type="curve"/>
      <point x="566" y="52" type="line" smooth="yes"/>
      <point x="566" y="-85"/>
      <point x="533" y="-171"/>
      <point x="451" y="-171" type="curve" smooth="yes"/>
      <point x="443" y="-171"/>
      <point x="434" y="-170"/>
      <point x="428" y="-169" type="curve"/>
      <point x="443" y="-160"/>
      <point x="454" y="-141"/>
      <point x="454" y="-123" type="curve" smooth="yes"/>
      <point x="454" y="-97"/>
      <point x="431" y="-76"/>
      <point x="404" y="-76" type="curve" smooth="yes"/>
      <point x="378" y="-76"/>
      <point x="357" y="-95"/>
      <point x="357" y="-126" type="curve" smooth="yes"/>
      <point x="357" y="-171"/>
      <point x="400" y="-188"/>
      <point x="447" y="-188" type="curve" smooth="yes"/>
      <point x="526" y="-188"/>
      <point x="589" y="-139"/>
      <point x="589" y="91" type="curve" smooth="yes"/>
      <point x="589" y="445" type="line"/>
    </contour>
  </outline>
</glyph>
<glyph name="eng" format="1">
  <advance width="579"/>
  <unicode hex="014B"/>
  <outline>
    <contour>
      <point x="297" y="528"/>
      <point x="230" y="498"/>
      <point x="195" y="408" type="curve"/>
      <point x="195" y="526" type="line"/>
      <point x="166" y="516"/>
      <point x="130" y="512"/>
      <point x="91" y="512" type="curve" smooth="yes"/>
      <point x="71" y="512"/>
      <point x="50" y="513"/>
      <point x="29" y="515" type="curve"/>
      <point x="29" y="494" type="line"/>
      <point x="87" y="494"/>
      <point x="105" y="466"/>
      <point x="105" y="406" type="curve" smooth="yes"/>
      <point x="105" y="93" type="line" smooth="yes"/>
      <point x="105" y="37"/>
      <point x="84" y="21"/>
      <point x="29" y="21" type="curve"/>
      <point x="29" y="0" type="line"/>
      <point x="52" y="1"/>
      <point x="105" y="4"/>
      <point x="149" y="4" type="curve" smooth="yes"/>
      <point x="193" y="4"/>
      <point x="240" y="1"/>
      <point x="261" y="0" type="curve"/>
      <point x="261" y="21" type="line"/>
      <point x="213" y="21"/>
      <point x="195" y="37"/>
      <point x="195" y="93" type="curve" smooth="yes"/>
      <point x="195" y="315" type="line" smooth="yes"/>
      <point x="195" y="417"/>
      <point x="251" y="496"/>
      <point x="335" y="496" type="curve" smooth="yes"/>
      <point x="407" y="496"/>
      <point x="416" y="443"/>
      <point x="416" y="381" type="curve" smooth="yes"/>
      <point x="416" y="-65" type="line" smooth="yes"/>
      <point x="416" y="-85"/>
      <point x="414" y="-102"/>
      <point x="411" y="-116" type="curve" smooth="yes"/>
      <point x="408" y="-129"/>
      <point x="403" y="-140"/>
      <point x="396" y="-148" type="curve" smooth="yes"/>
      <point x="384" y="-163"/>
      <point x="366" y="-170"/>
      <point x="341" y="-173" type="curve"/>
      <point x="354" y="-159"/>
      <point x="357" y="-143"/>
      <point x="357" y="-133" type="curve" smooth="yes"/>
      <point x="357" y="-108"/>
      <point x="339" y="-88"/>
      <point x="312" y="-88" type="curve" smooth="yes"/>
      <point x="283" y="-88"/>
      <point x="265" y="-108"/>
      <point x="265" y="-135" type="curve" smooth="yes"/>
      <point x="265" y="-163"/>
      <point x="286" y="-188"/>
      <point x="332" y="-188" type="curve" smooth="yes"/>
      <point x="374" y="-188"/>
      <point x="421" y="-168"/>
      <point x="453" y="-127" type="curve" smooth="yes"/>
      <point x="498" y="-70"/>
      <point x="506" y="23"/>
      <point x="506" y="115" type="curve" smooth="yes"/>
      <point x="506" y="359" type="line" smooth="yes"/>
      <point x="506" y="427"/>
      <point x="496" y="463"/>
      <point x="471" y="490" type="curve" smooth="yes"/>
      <point x="448" y="514"/>
      <point x="416" y="528"/>
      <point x="365" y="528" type="curve" smooth="yes"/>
    </contour>
  </outline>
</glyph>
<glyph name="OE" format="1">
  <advance width="928"/>
  <unicode hex="0152"/>
  <outline>
    <contour>
      <point x="185" y="722"/>
      <point x="53" y="572"/>
      <point x="53" y="348" type="curve" smooth="yes"/>
      <point x="53" y="119"/>
      <point x="180" y="-14"/>
      <point x="370" y="-14" type="curve" smooth="yes"/>
      <point x="399" y="-14"/>
      <point x="426" y="-9"/>
      <point x="452" y="1" type="curve"/>
      <point x="531" y="3"/>
      <point x="625" y="3"/>
      <point x="671" y="3" type="curve" smooth="yes"/>
      <point x="732" y="3"/>
      <point x="818" y="3"/>
      <point x="880" y="0" type="curve"/>
      <point x="875" y="51"/>
      <point x="873" y="103"/>
      <point x="873" y="128" type="curve" smooth="yes"/>
      <point x="873" y="156"/>
      <point x="874" y="182"/>
      <point x="876" y="200" type="curve"/>
      <point x="853" y="200" type="line"/>
      <point x="839" y="68"/>
      <point x="814" y="23"/>
      <point x="689" y="23" type="curve" smooth="yes"/>
      <point x="666" y="23" type="line"/>
      <point x="598" y="23"/>
      <point x="585" y="33"/>
      <point x="585" y="106" type="curve" smooth="yes"/>
      <point x="585" y="602" type="line" smooth="yes"/>
      <point x="585" y="675"/>
      <point x="598" y="685"/>
      <point x="666" y="685" type="curve" smooth="yes"/>
      <point x="699" y="685" type="line" smooth="yes"/>
      <point x="805" y="685"/>
      <point x="820" y="646"/>
      <point x="833" y="528" type="curve"/>
      <point x="856" y="528" type="line"/>
      <point x="854" y="543"/>
      <point x="853" y="566"/>
      <point x="853" y="590" type="curve" smooth="yes"/>
      <point x="853" y="613"/>
      <point x="855" y="661"/>
      <point x="860" y="708" type="curve"/>
      <point x="804" y="705"/>
      <point x="726" y="705"/>
      <point x="671" y="705" type="curve" smooth="yes"/>
      <point x="626" y="705"/>
      <point x="539" y="705"/>
      <point x="459" y="707" type="curve"/>
      <point x="432" y="717"/>
      <point x="403" y="722"/>
      <point x="371" y="722" type="curve" smooth="yes"/>
    </contour>
    <contour>
      <point x="435" y="704"/>
      <point x="492" y="675"/>
      <point x="492" y="602" type="curve" smooth="yes"/>
      <point x="492" y="106" type="line" smooth="yes"/>
      <point x="492" y="33"/>
      <point x="426" y="4"/>
      <point x="374" y="4" type="curve" smooth="yes"/>
      <point x="251" y="4"/>
      <point x="153" y="139"/>
      <point x="153" y="352" type="curve" smooth="yes"/>
      <point x="153" y="559"/>
      <point x="237" y="704"/>
      <point x="367" y="704" type="curve" smooth="yes"/>
    </contour>
    <contour>
      <point x="555" y="366" type="line"/>
      <point x="555" y="366"/>
      <point x="555" y="346"/>
      <point x="555" y="346" type="curve"/>
      <point x="725" y="346" type="line"/>
      <point x="725" y="346"/>
      <point x="725" y="366"/>
      <point x="725" y="366" type="curve"/>
    </contour>
    <contour>
      <point x="721" y="478" type="line"/>
      <point x="713" y="438"/>
      <point x="715" y="366"/>
      <point x="628" y="366" type="curve"/>
      <point x="628" y="346" type="line"/>
      <point x="715" y="346"/>
      <point x="716" y="288"/>
      <point x="724" y="234" type="curve"/>
      <point x="747" y="234" type="line"/>
      <point x="742" y="300"/>
      <point x="741" y="327"/>
      <point x="741" y="356" type="curve" smooth="yes"/>
      <point x="741" y="385"/>
      <point x="739" y="412"/>
      <point x="744" y="478" type="curve"/>
    </contour>
    <contour>
      <point x="464" y="708" type="move" name="top"/>
    </contour>
  </outline>
</glyph>
<glyph name="oe" format="1">
  <advance width="835"/>
  <unicode hex="0153"/>
  <outline>
    <contour>
      <point x="144" y="528"/>
      <point x="48" y="449"/>
      <point x="48" y="257" type="curve" smooth="yes"/>
      <point x="48" y="65"/>
      <point x="144" y="-14"/>
      <point x="265" y="-14" type="curve" smooth="yes"/>
      <point x="374" y="-14"/>
      <point x="462" y="65"/>
      <point x="462" y="257" type="curve" smooth="yes"/>
      <point x="462" y="449"/>
      <point x="374" y="528"/>
      <point x="265" y="528" type="curve" smooth="yes"/>
    </contour>
    <contour>
      <point x="335" y="508"/>
      <point x="385" y="436"/>
      <point x="385" y="257" type="curve" smooth="yes"/>
      <point x="385" y="78"/>
      <point x="335" y="6"/>
      <point x="265" y="6" type="curve" smooth="yes"/>
      <point x="195" y="6"/>
      <point x="145" y="78"/>
      <point x="145" y="257" type="curve" smooth="yes"/>
      <point x="145" y="436"/>
      <point x="195" y="508"/>
      <point x="265" y="508" type="curve" smooth="yes"/>
    </contour>
    <contour>
      <point x="486" y="529"/>
      <point x="405" y="421"/>
      <point x="405" y="245" type="curve" smooth="yes"/>
      <point x="405" y="92"/>
      <point x="482" y="-14"/>
      <point x="615" y="-14" type="curve" smooth="yes"/>
      <point x="709" y="-14"/>
      <point x="771" y="53"/>
      <point x="792" y="120" type="curve"/>
      <point x="772" y="128" type="line"/>
      <point x="739" y="53"/>
      <point x="691" y="28"/>
      <point x="635" y="28" type="curve" smooth="yes"/>
      <point x="558" y="28"/>
      <point x="482" y="108"/>
      <point x="482" y="245" type="curve" smooth="yes"/>
      <point x="482" y="269"/>
      <point x="483" y="294"/>
      <point x="486" y="314" type="curve"/>
      <point x="483" y="318" type="line"/>
      <point x="492" y="451"/>
      <point x="546" y="510"/>
      <point x="607" y="510" type="curve" smooth="yes"/>
      <point x="667" y="510"/>
      <point x="695" y="426"/>
      <point x="692" y="328" type="curve"/>
      <point x="464" y="328" type="line"/>
      <point x="464" y="328"/>
      <point x="465" y="309"/>
      <point x="465" y="309" type="curve"/>
      <point x="788" y="309" type="line"/>
      <point x="788" y="460"/>
      <point x="722" y="529"/>
      <point x="611" y="529" type="curve" smooth="yes"/>
    </contour>
    <contour>
      <point x="418" y="514" type="move" name="top"/>
    </contour>
  </outline>
</glyph>
<glyph name="Tbar" format="1">
  <advance width="627"/>
  <unicode hex="0166"/>
  <outline>
    <contour>
      <point x="105" y="366" type="line"/>
      <point x="105" y="346" type="line"/>
      <point x="519" y="346" type="line"/>
      <point x="519" y="366" type="line"/>
    </contour>
    <component base="T" xOffset="2"/>
  </outline>
</glyph>
<glyph name="tbar" format="1">
  <advance width="376"/>
  <unicode hex="0167"/>
  <outline>
    <contour>
      <point x="341" y="421" type="line"/>
      <point x="7" y="421" type="line"/>
      <point x="7" y="401" type="line"/>
      <point x="341" y="401" type="line"/>
    </contour>
    <component base="t" xOffset="3"/>
  </outline>
</glyph>
<glyph name="uni018F" format="1">
  <advance width="703"/>
  <unicode hex="018F"/>
  <outline>
    <contour>
      <point x="338" y="-14" type="curve" smooth="yes"/>
      <point x="537" y="-14"/>
      <point x="650" y="128"/>
      <point x="650" y="351" type="curve" smooth="yes"/>
      <point x="650" y="579"/>
      <point x="532" y="722"/>
      <point x="332" y="722" type="curve" smooth="yes"/>
      <point x="234" y="722"/>
      <point x="183" y="688"/>
      <point x="138" y="657" type="curve" smooth="yes"/>
      <point x="111" y="639"/>
      <point x="99" y="647"/>
      <point x="93" y="708" type="curve"/>
      <point x="70" y="708" type="line"/>
      <point x="73" y="659"/>
      <point x="74" y="594"/>
      <point x="74" y="478" type="curve"/>
      <point x="97" y="478" type="line"/>
      <point x="109" y="553"/>
      <point x="120" y="595"/>
      <point x="147" y="626" type="curve" smooth="yes"/>
      <point x="187" y="672"/>
      <point x="257" y="693"/>
      <point x="311" y="693" type="curve" smooth="yes"/>
      <point x="443" y="693"/>
      <point x="551" y="570"/>
      <point x="551" y="358" type="curve" smooth="yes"/>
      <point x="551" y="337"/>
      <point x="550" y="311"/>
      <point x="547" y="291" type="curve"/>
      <point x="550" y="287" type="line"/>
      <point x="534" y="94"/>
      <point x="458" y="5"/>
      <point x="349" y="5" type="curve" smooth="yes"/>
      <point x="222" y="5"/>
      <point x="143" y="124"/>
      <point x="151" y="277" type="curve"/>
      <point x="589" y="277" type="line"/>
      <point x="588" y="296" type="line"/>
      <point x="53" y="296" type="line"/>
      <point x="53" y="83"/>
      <point x="173" y="-14"/>
    </contour>
    <contour>
      <point x="352" y="0" type="move" name="bottom"/>
    </contour>
    <contour>
      <point x="352" y="708" type="move" name="top"/>
    </contour>
  </outline>
</glyph>
<glyph name="florin" format="1">
  <advance width="459"/>
  <unicode hex="0192"/>
  <outline>
    <contour>
      <point x="277" y="782"/>
      <point x="233" y="763"/>
      <point x="207" y="732" type="curve" smooth="yes"/>
      <point x="169" y="687"/>
      <point x="156" y="633"/>
      <point x="156" y="515" type="curve" smooth="yes"/>
      <point x="156" y="-65" type="line" smooth="yes"/>
      <point x="156" y="-86"/>
      <point x="154" y="-102"/>
      <point x="151" y="-116" type="curve" smooth="yes"/>
      <point x="148" y="-130"/>
      <point x="142" y="-141"/>
      <point x="135" y="-149" type="curve" smooth="yes"/>
      <point x="123" y="-163"/>
      <point x="105" y="-170"/>
      <point x="81" y="-173" type="curve"/>
      <point x="94" y="-159"/>
      <point x="97" y="-143"/>
      <point x="97" y="-133" type="curve" smooth="yes"/>
      <point x="97" y="-108"/>
      <point x="79" y="-88"/>
      <point x="52" y="-88" type="curve" smooth="yes"/>
      <point x="23" y="-88"/>
      <point x="5" y="-108"/>
      <point x="5" y="-135" type="curve" smooth="yes"/>
      <point x="5" y="-163"/>
      <point x="26" y="-188"/>
      <point x="72" y="-188" type="curve" smooth="yes"/>
      <point x="114" y="-188"/>
      <point x="161" y="-168"/>
      <point x="193" y="-127" type="curve" smooth="yes"/>
      <point x="238" y="-70"/>
      <point x="246" y="23"/>
      <point x="246" y="115" type="curve" smooth="yes"/>
      <point x="246" y="515" type="line" smooth="yes"/>
      <point x="246" y="648"/>
      <point x="247" y="700"/>
      <point x="264" y="730" type="curve" smooth="yes"/>
      <point x="276" y="752"/>
      <point x="298" y="767"/>
      <point x="329" y="767" type="curve" smooth="yes"/>
      <point x="357" y="767"/>
      <point x="378" y="755"/>
      <point x="382" y="743" type="curve"/>
      <point x="353" y="734"/>
      <point x="339" y="715"/>
      <point x="339" y="692" type="curve" smooth="yes"/>
      <point x="339" y="660"/>
      <point x="361" y="642"/>
      <point x="393" y="642" type="curve" smooth="yes"/>
      <point x="425" y="642"/>
      <point x="444" y="665"/>
      <point x="444" y="693" type="curve" smooth="yes"/>
      <point x="444" y="741"/>
      <point x="398" y="782"/>
      <point x="326" y="782" type="curve" smooth="yes"/>
    </contour>
    <contour>
      <point x="36" y="514" type="line"/>
      <point x="36" y="494" type="line"/>
      <point x="413" y="494" type="line"/>
      <point x="413" y="514" type="line"/>
    </contour>
  </outline>
</glyph>
<glyph name="Ohorn" format="1">
  <advance width="741"/>
  <unicode hex="01A0"/>
  <outline>
    <contour>
      <point x="450" y="704" type="curve"/>
      <point x="482" y="682" type="line"/>
      <point x="548" y="683"/>
      <point x="599" y="697"/>
      <point x="638" y="720" type="curve" smooth="yes"/>
      <point x="677" y="743"/>
      <point x="703" y="775"/>
      <point x="703" y="809" type="curve" smooth="yes"/>
      <point x="703" y="838"/>
      <point x="684" y="864"/>
      <point x="647" y="864" type="curve" smooth="yes"/>
      <point x="608" y="864"/>
      <point x="589" y="835"/>
      <point x="589" y="805" type="curve" smooth="yes"/>
      <point x="589" y="774"/>
      <point x="609" y="750"/>
      <point x="630" y="734" type="curve"/>
      <point x="631" y="741" type="line"/>
      <point x="588" y="712"/>
      <point x="538" y="699"/>
    </contour>
    <component base="O"/>
  </outline>
</glyph>
